<?xml version="1.0" encoding="utf-8"?>
<!-- Generator: Adobe Illustrator 24.0.1, SVG Export Plug-In . SVG Version: 6.00 Build 0)  -->
<svg version="1.1" id="Layer_1" xmlns="http://www.w3.org/2000/svg" xmlns:xlink="http://www.w3.org/1999/xlink" x="0px" y="0px"
	 viewBox="0 0 51.1 35.8" style="enable-background:new 0 0 51.1 35.8;" xml:space="preserve">
<style type="text/css">
	.st0{fill-rule:evenodd;clip-rule:evenodd;fill:#FFFFFF;}
</style>
<g>
	<path class="st0" d="M33.6,8.7c-2.3-2.3-5.3-3.6-8.5-3.6c-6.6,0-12,5.5-12,12.3c0,2.2,0.6,4.3,1.6,6.2L13,30l6.4-1.7
		c1.8,1,3.7,1.5,5.7,1.5h0c6.6,0,12-5.5,12-12.3C37.1,14.1,35.9,11,33.6,8.7 M25.1,28.5L25.1,28.5c-1.9,0-3.8-0.5-5.5-1.5l-0.4-0.2
		l-4.5,1.6l1.5-4.6L16,23.3c-1.1-1.8-1.6-3.8-1.6-5.9c0-6.1,4.8-11.1,10.8-11.1c2.9,0,5.6,1.2,7.6,3.3c2,2.1,3.2,4.9,3.2,7.8
		C35.9,23.6,31.1,28.5,25.1,28.5"/>
	<path class="st0" d="M31,20.2c-0.3-0.2-1.9-1-2.2-1.1c-0.3-0.1-0.5-0.2-0.7,0.2c-0.2,0.3-0.8,1.1-1,1.3c-0.2,0.2-0.4,0.3-0.7,0.1
		C26,20.5,25,20.2,23.8,19c-1-0.9-1.6-2-1.8-2.3c-0.2-0.3,0-0.5,0.1-0.7c0.1-0.1,0.3-0.4,0.5-0.6c0.2-0.2,0.2-0.3,0.3-0.6
		c0.1-0.2,0.1-0.4,0-0.6c-0.1-0.2-0.7-1.8-1-2.5c-0.3-0.7-0.5-0.6-0.7-0.6c-0.2,0-0.4,0-0.6,0c-0.2,0-0.6,0.1-0.9,0.4
		c-0.3,0.3-1.1,1.1-1.1,2.8c0,1.6,1.2,3.2,1.3,3.5c0.2,0.2,2.3,3.6,5.5,5c0.8,0.3,1.4,0.5,1.8,0.7c0.8,0.3,1.5,0.2,2,0.1
		c0.6-0.1,1.9-0.8,2.2-1.6c0.3-0.8,0.3-1.4,0.2-1.6C31.6,20.5,31.4,20.4,31,20.2"/>
</g>
</svg>
