<?xml version="1.0" encoding="utf-8"?>
<!-- Generator: Adobe Illustrator 24.0.1, SVG Export Plug-In . SVG Version: 6.00 Build 0)  -->
<svg version="1.1" id="Layer_1" xmlns="http://www.w3.org/2000/svg" xmlns:xlink="http://www.w3.org/1999/xlink" x="0px" y="0px"
	 viewBox="0 0 79.1 76.9" style="enable-background:new 0 0 79.1 76.9;" xml:space="preserve">
<style type="text/css">
	.st0{fill:none;stroke:#FFFFFF;stroke-width:1.5;stroke-linecap:round;stroke-linejoin:round;stroke-miterlimit:10;}
</style>
<g>
	<path class="st0" d="M36.4,28.2l2.9-5.7c0.6-1.3,2.4-1.2,3,0.1l2.7,5.8l6.3,1c1.4,0.2,1.9,2,0.9,2.9l-4.7,4.4l1,6.3
		c0.2,1.4-1.3,2.4-2.5,1.7l-5.6-3.1l-5.7,2.9c-1.3,0.6-2.7-0.5-2.4-1.8l1.2-6.3L29,31.9c-1-1-0.4-2.7,1-2.9L36.4,28.2z"/>
	<line class="st0" x1="40.5" y1="57.5" x2="40.5" y2="65"/>
	<line class="st0" x1="40.5" y1="9.2" x2="40.5" y2="16.7"/>
	<line class="st0" x1="50.7" y1="54.8" x2="54.4" y2="61.3"/>
	<line class="st0" x1="26.5" y1="12.9" x2="30.3" y2="19.4"/>
	<line class="st0" x1="58.1" y1="47.3" x2="64.6" y2="51.1"/>
	<line class="st0" x1="16.3" y1="23.2" x2="22.8" y2="26.9"/>
	<line class="st0" x1="60.9" y1="37.1" x2="68.4" y2="37.1"/>
	<line class="st0" x1="12.6" y1="37.1" x2="20.1" y2="37.1"/>
	<line class="st0" x1="58.1" y1="26.9" x2="64.6" y2="23.2"/>
	<line class="st0" x1="16.3" y1="51.1" x2="22.8" y2="47.3"/>
	<line class="st0" x1="50.7" y1="19.4" x2="54.4" y2="12.9"/>
	<line class="st0" x1="26.5" y1="61.3" x2="30.3" y2="54.8"/>
</g>
</svg>
