<?xml version="1.0" encoding="utf-8"?>
<!-- Generator: Adobe Illustrator 24.0.1, SVG Export Plug-In . SVG Version: 6.00 Build 0)  -->
<svg version="1.1" id="Layer_1" xmlns="http://www.w3.org/2000/svg" xmlns:xlink="http://www.w3.org/1999/xlink" x="0px" y="0px"
	 viewBox="0 0 55 55" style="enable-background:new 0 0 55 55;" xml:space="preserve">
<style type="text/css">
	.st0{fill:none;stroke:#F4F9EA;stroke-width:3;stroke-miterlimit:10;}
	.st1{fill:none;stroke:#F4F9EA;stroke-width:0.6;stroke-linecap:round;stroke-linejoin:round;stroke-miterlimit:10;}
	
		.st2{fill-rule:evenodd;clip-rule:evenodd;fill:none;stroke:#F4F9EA;stroke-width:0.6;stroke-linecap:round;stroke-linejoin:round;stroke-miterlimit:10;}
	.st3{fill-rule:evenodd;clip-rule:evenodd;fill:#F4F9EA;}
	.st4{fill:#F4F9EA;}
</style>
<circle class="st0" cx="27.82" cy="27.56" r="24.47"/>
<path class="st1" d="M11.69,37.76l2.52-2.52l8.68,8.31c0,0,0.65-1.03,1.59-1.03s2.71-0.19,4.2-1.31"/>
<path class="st1" d="M14.87,35.8c0,0,0.56-0.84,0.65-1.77c0.09-0.93-0.28-1.87-0.09-3.17s0.09-2.15,0.93-3.17
	c0.84-1.03,2.52-3.74,2.71-5.7s0.19-2.99,0.93-3.27c0.75-0.28,2.8,1.4,2.8,3.36s-0.28,5.04-0.84,5.88
	c-0.56,0.84-0.93,2.24-0.93,2.24s0,5.14,0,6.07s0.28,2.8,2.52,2.8s9.24,0,10.27,0s2.05-0.84,2.05-2.05c0-1.21,0-2.19,0-2.19"/>
<path class="st1" d="M35.97,22.35c0,0,0-6.54,0-7.1s-0.47-2.52-2.15-2.52s-9.15,0-10.18,0s-2.61,0.93-2.61,2.8v1.4"/>
<path class="st1" d="M38.93,24.4l-2.11,2.1c-0.63,0.63-1.65,0.62-2.27-0.01v0c-0.63-0.63-0.62-1.65,0.01-2.27l2.11-2.1
	c0.63-0.63,1.65-0.62,2.27,0.01l0,0C39.56,22.76,39.56,23.78,38.93,24.4z"/>
<path class="st1" d="M39.39,29.02l-2,1.99c-0.66,0.65-1.72,0.65-2.38-0.01l-0.03-0.03c-0.65-0.66-0.65-1.72,0.01-2.38l2-1.99
	c0.66-0.65,1.72-0.65,2.38,0.01l0.03,0.03C40.05,27.31,40.04,28.37,39.39,29.02z"/>
<path class="st1" d="M39.48,33.32l-1.37,1.36c-0.58,0.58-1.52,0.57-2.1-0.01l-0.2-0.2c-0.58-0.58-0.57-1.52,0.01-2.1l1.37-1.36
	c0.58-0.58,1.52-0.57,2.1,0.01l0.2,0.2C40.06,31.81,40.06,32.75,39.48,33.32z"/>
<path class="st2" d="M35.93,18.3l3.49-2.49c0,0,1.62-1,2.24-0.25c0.62,0.75,1.12,1.62,0.12,2.49c-1,0.87-5.48,3.86-5.48,3.86"/>
<circle class="st3" cx="27.97" cy="15.81" r="0.62"/>
<line class="st2" x1="24.85" y1="36.61" x2="31.95" y2="36.61"/>
<g>
	<path class="st4" d="M28.15,30.86v-1.28c-0.74-0.01-1.5-0.24-1.95-0.56l0.31-0.86c0.45,0.29,1.12,0.55,1.83,0.55
		c0.91,0,1.52-0.53,1.52-1.26c0-0.7-0.5-1.14-1.45-1.53c-1.31-0.51-2.11-1.12-2.11-2.23c0-1.06,0.76-1.87,1.92-2.06v-1.28h0.81v1.24
		c0.76,0.03,1.28,0.23,1.67,0.45l-0.32,0.85c-0.27-0.15-0.79-0.45-1.61-0.45c-0.99,0-1.36,0.59-1.36,1.12
		c0,0.65,0.47,0.99,1.59,1.46c1.32,0.54,1.99,1.19,1.99,2.33c0,1.03-0.7,1.97-2.02,2.18v1.33H28.15z"/>
</g>
</svg>
