<?xml version="1.0" encoding="utf-8"?>
<!-- Generator: Adobe Illustrator 24.0.1, SVG Export Plug-In . SVG Version: 6.00 Build 0)  -->
<svg version="1.1" id="Layer_1" xmlns="http://www.w3.org/2000/svg" xmlns:xlink="http://www.w3.org/1999/xlink" x="0px" y="0px"
	 viewBox="0 0 31 31" style="enable-background:new 0 0 31 31;" xml:space="preserve">
<style type="text/css">
	.st0{fill:none;stroke:#A79F88;stroke-width:0.6;stroke-linecap:round;stroke-linejoin:round;stroke-miterlimit:10;}
</style>
<path class="st0" d="M9.46,14.57c0,0,0,7.72,0,8.42"/>
<path class="st0" d="M12.76,28.88c-1.46,0.04-3.04-0.22-4.24-1.15c-2.56-1.98-2.68-3.15-2.68-5.36s0-5.24,0-6.17
	c0-0.93,0.93-1.98,1.75-1.63c0.82,0.35,1.86,1.4,1.86,2.45"/>
<path class="st0" d="M18.2,6.76c0,0,2.1,0.12,2.1,1.86s0,5.48,0,5.48"/>
<path class="st0" d="M20.37,10.24c0,0,1.87-2.08,3.01-0.7c1.05,1.27,0.31,1.79-0.52,2.62s-1.53,1.49-1.53,1.49"/>
<path class="st0" d="M22.57,16.67l-1.04,0.99c-0.61,0.57-1.56,0.55-2.13-0.06l-0.24-0.25c-0.57-0.61-0.55-1.56,0.06-2.13l1.04-0.99
	c0.61-0.57,1.56-0.55,2.13,0.06l0.24,0.25C23.2,15.14,23.17,16.1,22.57,16.67z"/>
<path class="st0" d="M22.65,20.36l-0.92,0.87c-0.53,0.5-1.37,0.48-1.88-0.05l-0.21-0.22c-0.5-0.53-0.48-1.37,0.05-1.88l0.92-0.87
	c0.53-0.5,1.37-0.48,1.88,0.05l0.21,0.22C23.2,19.02,23.18,19.86,22.65,20.36z"/>
<line class="st0" x1="13.54" y1="22.84" x2="13.9" y2="22.84"/>
<path class="st0" d="M10.8,11.07l2.45,2.45v-2.33c0,0,0.64,0,1.17,0s1.4-0.06,1.4-1.34s0-3.73,0-4.83s-0.23-1.92-1.4-1.92
	s-7.81,0-8.39,0S4.1,3.21,4.1,4.9s0,3.79,0,4.25s-0.12,1.86,1.75,1.86S10.8,11.07,10.8,11.07z"/>
<path class="st0" d="M22,7.44c-0.44-1.62-1.93-2.81-3.69-2.81c-0.29,0-0.58,0.03-0.86,0.1"/>
<path class="st0" d="M23.52,7.38c-0.5-2.42-2.64-4.24-5.21-4.24c-0.5,0-0.98,0.07-1.44,0.2"/>
<path class="st0" d="M25.51,9.45c0.05-0.33,0.07-0.66,0.07-1c0-4.01-3.25-7.26-7.26-7.26c-1.08,0-2.11,0.24-3.03,0.66"/>
<path class="st0" d="M24.2,30.36c0,0,0-1.72,0-4.31s-1.44-3.73-1.44-3.73l-4.74-1.72c0,0,0-2.3,0-3.88s-0.72-2.44-2.44-2.44
	s-1.44,2.58-1.44,2.58v8.33c0,0-4.02-3.45-6.03-1.44c0,0,1.44,1.44,2.87,3.16c0.92,1.1,1.78,2.39,2.55,3.43"/>
</svg>
