<?xml version="1.0" encoding="utf-8"?>
<!-- Generator: Adobe Illustrator 24.0.1, SVG Export Plug-In . SVG Version: 6.00 Build 0)  -->
<svg version="1.1" id="Layer_1" xmlns="http://www.w3.org/2000/svg" xmlns:xlink="http://www.w3.org/1999/xlink" x="0px" y="0px"
	 viewBox="0 0 31 31" style="enable-background:new 0 0 31 31;" xml:space="preserve">
<style type="text/css">
	.st0{fill:none;stroke:#A79F88;stroke-width:0.6;stroke-linecap:round;stroke-linejoin:round;stroke-miterlimit:10;}
	.st1{fill:none;stroke:#A79F88;stroke-width:0.4359;stroke-miterlimit:10;}
	.st2{fill:none;stroke:#A79F88;stroke-width:0.4359;stroke-linecap:round;stroke-linejoin:round;stroke-miterlimit:10;}
</style>
<path class="st0" d="M25.38,16.37c1.13-1.24,1.35-3.13,0.41-4.62c-0.16-0.25-0.34-0.47-0.54-0.67"/>
<path class="st0" d="M26.24,17.62c1.78-1.71,2.18-4.5,0.81-6.67c-0.27-0.42-0.58-0.8-0.94-1.11"/>
<path class="st0" d="M25.55,20.41c0.3-0.14,0.6-0.3,0.88-0.48c3.39-2.14,4.4-6.63,2.26-10.02c-0.58-0.91-1.33-1.66-2.18-2.21"/>
<path class="st0" d="M6.04,16.37c-1.13-1.24-1.35-3.13-0.41-4.62c0.16-0.25,0.34-0.47,0.54-0.67"/>
<path class="st0" d="M5.18,17.62C3.4,15.9,3,13.12,4.37,10.95c0.27-0.42,0.58-0.8,0.94-1.11"/>
<path class="st0" d="M5.87,20.41c-0.3-0.14-0.6-0.3-0.88-0.48c-3.39-2.14-4.4-6.63-2.26-10.02C3.3,8.99,4.05,8.25,4.9,7.7"/>
<g>
	<path class="st1" d="M21.26,30.25H10.22c-1.1,0-1.99-0.89-1.99-1.99V2.91c0-1.1,0.89-1.99,1.99-1.99h11.04
		c1.1,0,1.99,0.89,1.99,1.99v25.34C23.26,29.36,22.36,30.25,21.26,30.25z"/>
	<line class="st2" x1="15.69" y1="3.24" x2="15.98" y2="3.24"/>
	<line class="st2" x1="14.11" y1="27.67" x2="17.32" y2="27.67"/>
	<path class="st2" d="M9.17,17.7H20c0.79,0,1.43-0.64,1.43-1.43V6.84c0-0.8-0.66-1.45-1.47-1.43l-8.12,0.19
		c-0.78,0.02-1.4,0.65-1.4,1.43v9.04L9.17,17.7z"/>
	<circle class="st2" cx="16.03" cy="9.24" r="1.75"/>
	<path class="st2" d="M12.82,15.44v-1.18c0-1.56,1.27-2.83,2.83-2.83h0.69c1.56,0,2.83,1.27,2.83,2.83v1.26"/>
	<line class="st2" x1="14.35" y1="13.76" x2="14.35" y2="15.44"/>
	<line class="st2" x1="17.64" y1="13.76" x2="17.64" y2="15.44"/>
	<line class="st2" x1="15.9" y1="19.59" x2="15.9" y2="22.8"/>
	<polyline class="st2" points="14.66,21.7 15.9,22.8 16.99,21.63 	"/>
	<line class="st2" x1="13.27" y1="24.11" x2="18.45" y2="24.11"/>
</g>
</svg>
