<?xml version="1.0" encoding="utf-8"?>
<!-- Generator: Adobe Illustrator 24.0.1, SVG Export Plug-In . SVG Version: 6.00 Build 0)  -->
<svg version="1.1" id="Layer_1" xmlns="http://www.w3.org/2000/svg" xmlns:xlink="http://www.w3.org/1999/xlink" x="0px" y="0px"
	 viewBox="0 0 50 50" style="enable-background:new 0 0 50 50;" xml:space="preserve">
<style type="text/css">
	.st0{fill:#006E96;}
	.st1{fill:none;stroke:#FFFFFF;stroke-width:0.3923;stroke-miterlimit:10;}
	.st2{fill:none;stroke:#FFFFFF;stroke-width:0.3923;stroke-linecap:round;stroke-linejoin:round;stroke-miterlimit:10;}
	.st3{fill:none;stroke:#FFFFFF;stroke-width:0.54;stroke-linecap:round;stroke-linejoin:round;stroke-miterlimit:10;}
	.st4{fill-rule:evenodd;clip-rule:evenodd;fill:none;stroke:#FFFFFF;stroke-width:0.45;stroke-miterlimit:10;}
	.st5{fill:none;stroke:#FFFFFF;stroke-width:0.45;stroke-miterlimit:10;}
</style>
<circle class="st0" cx="25.16" cy="24.9" r="24.47"/>
<g>
	<g>
		<path class="st1" d="M36.03,42.96h-9.94c-0.99,0-1.8-0.8-1.8-1.8V18.35c0-0.99,0.8-1.8,1.8-1.8h9.94c0.99,0,1.8,0.8,1.8,1.8v22.81
			C37.83,42.16,37.02,42.96,36.03,42.96z"/>
		<line class="st2" x1="31.01" y1="18.64" x2="31.28" y2="18.64"/>
		<line class="st2" x1="29.6" y1="40.64" x2="32.49" y2="40.64"/>
		<path class="st2" d="M25.15,31.66h9.74c0.71,0,1.29-0.58,1.29-1.29v-8.49c0-0.72-0.6-1.31-1.32-1.29l-7.31,0.17
			c-0.7,0.02-1.26,0.59-1.26,1.29v8.13L25.15,31.66z"/>
		<circle class="st2" cx="31.33" cy="24.05" r="1.58"/>
		<path class="st2" d="M28.44,29.63v-1.07c0-1.41,1.14-2.55,2.55-2.55h0.62c1.41,0,2.55,1.14,2.55,2.55v1.13"/>
		<line class="st2" x1="29.82" y1="28.12" x2="29.82" y2="29.63"/>
		<line class="st2" x1="32.77" y1="28.12" x2="32.77" y2="29.63"/>
		<line class="st2" x1="31.21" y1="33.36" x2="31.21" y2="36.25"/>
		<polyline class="st2" points="30.09,35.27 31.21,36.25 32.19,35.2 		"/>
		<line class="st2" x1="28.84" y1="37.43" x2="33.5" y2="37.43"/>
	</g>
</g>
<g>
	<path class="st3" d="M25.51,14.95c0,0,0-5.5,0-5.98s-0.39-2.12-1.81-2.12s-7.71,0-8.57,0c-0.87,0-2.2,0.79-2.2,2.36v1.18v12.5
		c0,1.34,0,3.27,0,3.77c0,0.79,0.24,2.36,2.12,2.36s7.79,0,8.65,0"/>
	<g>
		<g>
			<g>
				<path class="st4" d="M19.07,16.59h0.78c0.06,0,0.12,0.05,0.12,0.12v1.22c0,0.06-0.05,0.12-0.12,0.12h-0.78
					c-0.06,0-0.12-0.05-0.12-0.12v-1.22C18.95,16.64,19.01,16.59,19.07,16.59z"/>
			</g>
			<rect x="16.65" y="14.9" class="st4" width="1.29" height="1.29"/>
			<rect x="20.99" y="14.9" class="st4" width="1.29" height="1.29"/>
			<rect x="16.65" y="19.14" class="st4" width="1.29" height="1.29"/>
			<polyline class="st4" points="20.99,19.76 20.99,20.43 22.28,20.43 22.28,19.74 			"/>
			<polyline class="st4" points="21.64,19.08 22.29,19.08 22.29,17.18 			"/>
			<line class="st4" x1="21.02" y1="17.38" x2="21.02" y2="16.93"/>
			<line class="st4" x1="21.02" y1="19.04" x2="21.02" y2="17.74"/>
			<line class="st4" x1="17.73" y1="18.36" x2="17.73" y2="17.9"/>
			<polyline class="st4" points="18.41,19.02 19.87,19.02 19.87,20.37 18.9,20.37 			"/>
			<polyline class="st4" points="18.1,17.17 16.6,17.17 16.6,18.09 			"/>
			<polyline class="st4" points="18.86,14.87 19.78,14.87 19.78,15.76 			"/>
			<polyline class="st4" points="21.8,13.61 23.38,13.61 23.38,15.2 			"/>
			<polyline class="st4" points="17.03,13.61 15.44,13.61 15.44,15.2 			"/>
			<polyline class="st4" points="21.8,21.64 23.38,21.64 23.38,20.05 			"/>
			<polyline class="st4" points="17.03,21.64 15.44,21.64 15.44,20.05 			"/>
		</g>
		<path class="st5" d="M18.54,18.69v-2.14c0-0.27,0.22-0.49,0.49-0.49h0.83"/>
		<path class="st5" d="M20.38,16v2.14c0,0.27-0.22,0.49-0.49,0.49h-0.83"/>
	</g>
</g>
<line class="st3" x1="27.33" y1="14.57" x2="31.52" y2="14.57"/>
<line class="st3" x1="29.08" y1="12.12" x2="35.19" y2="12.12"/>
<line class="st3" x1="13.52" y1="32.57" x2="18.59" y2="32.57"/>
<line class="st3" x1="16.67" y1="33.79" x2="21.74" y2="33.79"/>
</svg>
