<?xml version="1.0" encoding="utf-8"?>
<!-- Generator: Adobe Illustrator 24.0.1, SVG Export Plug-In . SVG Version: 6.00 Build 0)  -->
<svg version="1.1" id="Layer_1" xmlns="http://www.w3.org/2000/svg" xmlns:xlink="http://www.w3.org/1999/xlink" x="0px" y="0px"
	 viewBox="0 0 79.1 76.9" style="enable-background:new 0 0 79.1 76.9;" xml:space="preserve">
<style type="text/css">
	.st0{fill:none;stroke:#FFFFFF;stroke-width:1.5;stroke-linecap:round;stroke-linejoin:round;stroke-miterlimit:10;}
	.st1{fill:#9594D2;stroke:#FFFFFF;stroke-width:1.5;stroke-miterlimit:10;}
</style>
<g>
	<path class="st0" d="M60.3,33.6H15.5l-4.9,9.4c0,1.6,1.2,2.8,2.7,2.8c1.5,0,2.7-1.3,2.7-2.8c0,1.6,1.2,2.8,2.7,2.8
		c1.5,0,2.7-1.3,2.7-2.8c0,1.6,1.2,2.8,2.7,2.8c1.5,0,2.7-1.3,2.7-2.8c0,1.6,1.2,2.8,2.7,2.8c1.5,0,2.7-1.3,2.7-2.8
		c0,1.6,1.2,2.8,2.7,2.8s2.7-1.3,2.7-2.8c0,1.6,1.2,2.8,2.7,2.8s2.7-1.3,2.7-2.8c0,1.6,1.2,2.8,2.7,2.8c1.5,0,2.7-1.3,2.7-2.8
		c0,1.6,1.2,2.8,2.7,2.8c1.5,0,2.7-1.3,2.7-2.8c0,1.6,1.2,2.8,2.7,2.8c1.5,0,2.7-1.3,2.7-2.8c0,1.6,1.2,2.8,2.7,2.8
		c1.5,0,2.7-1.3,2.7-2.8L60.3,33.6z"/>
	<line class="st0" x1="14.5" y1="45.8" x2="14.5" y2="67.8"/>
	<line class="st0" x1="61.3" y1="45.8" x2="61.3" y2="67.8"/>
	<line class="st0" x1="63.4" y1="68.1" x2="11.8" y2="68.1"/>
	<path class="st0" d="M19.2,67.9V53.4c0-1.4,1.1-2.5,2.5-2.5h31.1c1.4,0,2.5,1.1,2.5,2.5v14.8"/>
	<line class="st0" x1="30.6" y1="51.1" x2="30.6" y2="68.2"/>
	<line class="st0" x1="55.2" y1="62.7" x2="30.6" y2="62.7"/>
	<rect x="20.6" y="60.4" class="st1" width="3" height="1.3"/>
	<g>
		<path class="st1" d="M9.7,28.7v-1.3l1.6-1.6c3.9-3.7,5.7-5.7,5.7-8c0-1.6-0.7-3-3-3c-1.4,0-2.6,0.7-3.3,1.3l-0.7-1.5
			c1-0.9,2.6-1.6,4.3-1.6c3.3,0,4.7,2.3,4.7,4.5c0,2.8-2.1,5.1-5.3,8.3l-1.2,1.1v0h6.9v1.7H9.7z"/>
		<path class="st1" d="M28.3,28.7v-4.2h-7.1v-1.3l6.9-9.8h2.2v9.6h2.2v1.6h-2.2v4.2H28.3z M28.3,22.8v-5.1c0-0.8,0-1.6,0.1-2.4h-0.1
			c-0.5,0.9-0.9,1.6-1.3,2.3l-3.8,5.2v0H28.3z"/>
		<path class="st1" d="M40.6,17.2l1.6,2.5c0.4,0.6,0.8,1.2,1.2,1.8h0c0.4-0.7,0.8-1.3,1.2-1.9l1.6-2.4h2.3l-3.9,5.5l4,5.9h-2.3
			l-1.7-2.6c-0.4-0.7-0.8-1.3-1.2-2h0c-0.4,0.7-0.8,1.3-1.2,2l-1.7,2.6h-2.3l4.1-5.8l-3.9-5.6H40.6z"/>
		<path class="st1" d="M65,13.3v1.4l-6.7,14h-2.2L62.8,15v0h-7.5v-1.7H65z"/>
	</g>
</g>
</svg>
