<?xml version="1.0" encoding="utf-8"?>
<!-- Generator: Adobe Illustrator 24.0.1, SVG Export Plug-In . SVG Version: 6.00 Build 0)  -->
<svg version="1.1" id="Layer_1" xmlns="http://www.w3.org/2000/svg" xmlns:xlink="http://www.w3.org/1999/xlink" x="0px" y="0px"
	 viewBox="0 0 40 40" style="enable-background:new 0 0 40 40;" xml:space="preserve">
<style type="text/css">
	.st0{fill:none;stroke:#00627A;stroke-width:0.6;stroke-miterlimit:10;}
	.st1{fill:none;stroke:#00627A;stroke-width:0.6;stroke-linecap:round;stroke-linejoin:round;stroke-miterlimit:10;}
</style>
<path class="st0" d="M27.24,38.87H12.99c-1.42,0-2.57-1.15-2.57-2.57V3.59c0-1.42,1.15-2.57,2.57-2.57h14.25
	c1.42,0,2.57,1.15,2.57,2.57V36.3C29.82,37.72,28.67,38.87,27.24,38.87z"/>
<line class="st1" x1="20.05" y1="4.01" x2="20.43" y2="4.01"/>
<line class="st1" x1="18.02" y1="35.54" x2="22.16" y2="35.54"/>
<path class="st1" d="M11.64,22.68h13.97c1.02,0,1.85-0.83,1.85-1.85V8.65c0-1.04-0.85-1.87-1.89-1.85L15.1,7.05
	c-1,0.02-1.8,0.84-1.8,1.85v11.66L11.64,22.68z"/>
<circle class="st1" cx="20.5" cy="11.75" r="2.26"/>
<path class="st1" d="M16.35,19.76v-1.53c0-2.02,1.63-3.65,3.65-3.65h0.89c2.02,0,3.65,1.63,3.65,3.65v1.62"/>
<line class="st1" x1="18.33" y1="17.59" x2="18.33" y2="19.76"/>
<line class="st1" x1="22.57" y1="17.59" x2="22.57" y2="19.76"/>
<line class="st1" x1="24.73" y1="25.03" x2="24.73" y2="29.17"/>
<polyline class="st1" points="23.13,27.76 24.73,29.17 26.15,27.67 "/>
<line class="st1" x1="21.34" y1="30.87" x2="28.03" y2="30.87"/>
<path class="st1" d="M20.59,28.13c0-1.92-1.55-3.47-3.47-3.47s-3.47,1.55-3.47,3.47c0,0.65,0.18,1.25,0.48,1.77
	c0.14,0.23-0.88,1.69-0.69,1.88c0.19,0.2,1.6-0.86,1.83-0.71c0.54,0.34,1.17,0.53,1.85,0.53C19.04,31.6,20.59,30.04,20.59,28.13z"/>
<path class="st0" d="M16.13,28.07l1.07,1l0.56-0.56l0.27,0.02l0.52,0.52l0.06,0.31c0,0-0.97,0.97-2.04,0.22s-1.38-1.19-1.26-1.95
	c0.13-0.75,0.5-1,0.5-1l0.3,0.03l0.51,0.47l0.01,0.26L16.13,28.07z"/>
</svg>
