<?xml version="1.0" encoding="utf-8"?>
<!-- Generator: Adobe Illustrator 24.0.1, SVG Export Plug-In . SVG Version: 6.00 Build 0)  -->
<svg version="1.1" id="Layer_1" xmlns="http://www.w3.org/2000/svg" xmlns:xlink="http://www.w3.org/1999/xlink" x="0px" y="0px"
	 viewBox="0 0 40 40" style="enable-background:new 0 0 40 40;" xml:space="preserve">
<style type="text/css">
	.st0{fill-rule:evenodd;clip-rule:evenodd;fill:none;stroke:#00758D;stroke-width:0.6497;stroke-miterlimit:10;}
	.st1{fill:none;stroke:#00758D;stroke-width:0.6497;stroke-miterlimit:10;}
</style>
<g>
	<g>
		<g>
			<path class="st0" d="M18.35,15.02h3.73c0.31,0,0.56,0.25,0.56,0.56v5.87c0,0.31-0.25,0.56-0.56,0.56h-3.73
				c-0.31,0-0.56-0.25-0.56-0.56v-5.87C17.79,15.27,18.04,15.02,18.35,15.02z"/>
		</g>
		<rect x="6.7" y="6.93" class="st0" width="6.22" height="6.22"/>
		<rect x="27.57" y="6.93" class="st0" width="6.22" height="6.22"/>
		<rect x="6.7" y="27.25" class="st0" width="6.22" height="6.22"/>
		<polyline class="st0" points="27.57,30.26 27.57,33.46 33.78,33.46 33.78,30.15 		"/>
		<polyline class="st0" points="30.68,26.97 33.79,26.97 33.79,17.87 		"/>
		<line class="st0" x1="27.73" y1="18.81" x2="27.73" y2="16.64"/>
		<line class="st0" x1="27.73" y1="26.8" x2="27.73" y2="20.55"/>
		<line class="st0" x1="11.93" y1="23.51" x2="11.93" y2="21.34"/>
		<polyline class="st0" points="15.16,26.68 22.21,26.68 22.21,33.2 17.51,33.2 		"/>
		<polyline class="st0" points="13.69,17.81 6.47,17.81 6.47,22.22 		"/>
		<polyline class="st0" points="17.33,6.77 21.74,6.77 21.74,11.06 		"/>
		<polyline class="st0" points="31.43,0.72 39.07,0.72 39.07,8.35 		"/>
		<polyline class="st0" points="8.56,0.72 0.92,0.72 0.92,8.35 		"/>
		<polyline class="st0" points="31.43,39.27 39.07,39.27 39.07,31.63 		"/>
		<polyline class="st0" points="8.56,39.27 0.92,39.27 0.92,31.63 		"/>
	</g>
	<path class="st1" d="M15.79,25.12V14.82c0-1.31,1.06-2.37,2.37-2.37h3.98"/>
	<path class="st1" d="M24.64,12.17v10.27c0,1.31-1.06,2.37-2.37,2.37h-3.98"/>
</g>
</svg>
