<?xml version="1.0" encoding="utf-8"?>
<!-- Generator: Adobe Illustrator 24.0.1, SVG Export Plug-In . SVG Version: 6.00 Build 0)  -->
<svg version="1.1" id="Layer_1" xmlns="http://www.w3.org/2000/svg" xmlns:xlink="http://www.w3.org/1999/xlink" x="0px" y="0px"
	 viewBox="0 0 44 57" style="enable-background:new 0 0 44 57;" xml:space="preserve">
<style type="text/css">
	.st0{fill-rule:evenodd;clip-rule:evenodd;fill:#A0C21A;}
	.st1{fill:none;stroke:#FFFFFF;stroke-width:0.6;stroke-linecap:round;stroke-linejoin:round;stroke-miterlimit:10;}
	.st2{fill:#FFFFFF;}
</style>
<g>
	<path class="st0" d="M6.96,0.19h30.75c2.54,0,4.63,2.02,4.63,4.5V51.7c0,2.47-2.08,4.5-4.63,4.5H6.96c-2.55,0-4.63-2.02-4.63-4.5
		V4.69C2.34,2.22,4.42,0.19,6.96,0.19z"/>
	<g>
		<circle class="st1" cx="18.04" cy="14.45" r="2.77"/>
		<path class="st1" d="M12.97,24.25v-1.87c0-2.47,2-4.47,4.47-4.47h1.09c1.85,0,3.44,1.13,4.12,2.73"/>
		<line class="st1" x1="15.39" y1="21.59" x2="15.39" y2="24.25"/>
		<line class="st1" x1="20.58" y1="21.59" x2="20.58" y2="24.25"/>
	</g>
	<path class="st1" d="M25.8,13.96c-1.46-2.79-4.37-4.69-7.74-4.69c-4.82,0-8.72,3.91-8.72,8.72s3.91,8.72,8.72,8.72
		c1.03,0,2.02-0.18,2.94-0.51"/>
	<path class="st1" d="M21.47,32.42h-7.26c-1.07,0-1.94-0.87-1.94-1.94v0c0-1.07,0.87-1.94,1.94-1.94h7.26
		c1.07,0,1.94,0.87,1.94,1.94v0C23.41,31.55,22.54,32.42,21.47,32.42z"/>
	<circle class="st2" cx="15.19" cy="30.34" r="0.5"/>
	<circle class="st2" cx="17.14" cy="30.34" r="0.5"/>
	<circle class="st2" cx="18.96" cy="30.34" r="0.5"/>
	<circle class="st2" cx="20.79" cy="30.34" r="0.5"/>
	<path class="st1" d="M23.95,40.72c0,0-2.96-4.37-6.82-1.42c0,0,6.5,7.01,7.21,7.72c0.71,0.71,5.29,3.86,8.62,2.19
		c1.68-0.84,3.14-3.54,3.86-7.21c0.47-2.4-0.64-5.02-3.22-5.79s-5.28-1.67-5.28-1.67s-0.13-4.76-0.13-5.4s-0.64-2.19-1.93-2.19
		s-2.32,1.03-2.32,2.06S23.95,40.72,23.95,40.72z"/>
	<line class="st1" x1="26.33" y1="18.4" x2="26.13" y2="23.24"/>
	<line class="st1" x1="28.53" y1="24.23" x2="33.47" y2="18.22"/>
	<line class="st1" x1="30.62" y1="26.43" x2="35.24" y2="24.26"/>
</g>
</svg>
