<?xml version="1.0" encoding="utf-8"?>
<!-- Generator: Adobe Illustrator 24.0.1, SVG Export Plug-In . SVG Version: 6.00 Build 0)  -->
<svg version="1.1" id="Layer_1" xmlns="http://www.w3.org/2000/svg" xmlns:xlink="http://www.w3.org/1999/xlink" x="0px" y="0px"
	 viewBox="0 0 40 40" style="enable-background:new 0 0 40 40;" xml:space="preserve">
<style type="text/css">
	.st0{fill:none;stroke:#A79F88;stroke-width:0.6;stroke-linecap:round;stroke-linejoin:round;stroke-miterlimit:10;}
</style>
<g>
	<path class="st0" d="M11.6,18.78c-2.47-2.49-3.86-4.9-4.36-8.56c-0.4-4.48,1.24-7,4.88-8c3.52-0.68,6.32,1.29,7.76,3.12
		C20.32,5.9,20.2,5.86,21,5.1c1.91-1.82,3.8-3.4,6.96-2.68c4.3,1.06,6.04,4.26,5.4,8.68c-1.47,5.6-5.82,10.18-12.96,13.76l-4.16-2.4
		c-1.81-1.46-2.01-3.58-1.32-5.52c1.76-3.36,3.92-3.64,6.28-3.6"/>
	<path class="st0" d="M25.36,7.3c0,0,2.12,6.24-1,9.48s-7.32,2.64-8.88,1.08s-0.95-5.75,0.72-7.08c2.52-2,4.64-0.44,6.72-1.72
		C23.83,8.51,25.36,7.3,25.36,7.3z"/>
</g>
<g>
	<polyline class="st0" points="2.91,32.18 5.88,29.47 13.22,36.72 	"/>
	<path class="st0" d="M11.73,39.78c0,0,2.1-2.18,2.8-2.62c0.7-0.44,0.96-0.61,2.18-0.61s5.24,0,6.29,0s3.32-0.52,4.72-1.49
		c1.4-0.96,6.73-4.46,8.04-5.24c1.31-0.79,1.14-2.27,0.7-3.06c-0.44-0.79-1.75-1.31-2.8-0.7c-1.05,0.61-4.63,2.62-4.63,2.62"/>
	<path class="st0" d="M18.28,31.57c0,0,6.64,0,7.95,0c1.31,0,2.53-0.52,2.53-2.1c0-1.57-0.7-2.18-2.18-2.18c-1.49,0-4.63,0-5.42,0
		c-0.79,0-1.57-0.09-2.36-0.52c-0.79-0.44-2.62-0.96-4.46-0.96s-5.5,1.22-7.43,4.11"/>
</g>
</svg>
