<?xml version="1.0" encoding="utf-8"?>
<!-- Generator: Adobe Illustrator 24.0.1, SVG Export Plug-In . SVG Version: 6.00 Build 0)  -->
<svg version="1.1" id="Layer_1" xmlns="http://www.w3.org/2000/svg" xmlns:xlink="http://www.w3.org/1999/xlink" x="0px" y="0px"
	 viewBox="0 0 56 23" style="enable-background:new 0 0 56 23;" xml:space="preserve">
<style type="text/css">
	.st0{fill:none;stroke:#00627A;stroke-width:0.54;stroke-linecap:round;stroke-linejoin:round;stroke-miterlimit:10;}
	.st1{fill:#00627A;}
</style>
<g>
	<path class="st0" d="M0.92,19.33h28.31c-0.58-7.84-5-12.09-13.76-12.82C7.04,6.6,2.45,11.51,0.92,19.33z"/>
	<line class="st0" x1="21.68" y1="7.93" x2="24.27" y2="3.6"/>
	<line class="st0" x1="6.03" y1="3.6" x2="8.62" y2="7.93"/>
	<circle class="st1" cx="8.54" cy="14.06" r="1.34"/>
	<circle class="st1" cx="21.68" cy="14.06" r="1.34"/>
</g>
<g>
	<path class="st0" d="M54.57,7.77c-1.55,0.98-2.41,2.46-2.27,4.63c0.26,1.41,1.22,2.61,2.62,3.67c-0.52,2.56-1.88,4.72-4.46,5.59
		c-1.66,0.04-1.66-1.05-3.19-1.05c-1.49,0-2.18,1.88-3.71,1.22c-2.71-1.22-5.07-4.46-5.42-8.48c-0.06-3.62,0.7-6.47,3.93-7.6
		c1.88-0.31,2.93,0.17,3.54,0.48c0.6,0.3,0.79,0.34,1.18,0.39c0.66,0.09,1.05-0.13,1.66-0.52c0.61-0.39,1.79-0.7,2.88-0.52
		C52.84,5.96,53.97,6.65,54.57,7.77z"/>
	<path class="st0" d="M46.61,5.59c1,0.1,2.07-0.41,3.06-1.4c0.79-0.99,1.39-1.98,1.11-3.23c-0.96,0.02-1.83,0.26-2.85,1.43
		C47.02,3.17,46.59,4.44,46.61,5.59z"/>
</g>
</svg>
