<?xml version="1.0" encoding="utf-8"?>
<!-- Generator: Adobe Illustrator 24.0.1, SVG Export Plug-In . SVG Version: 6.00 Build 0)  -->
<svg version="1.1" id="Layer_1" xmlns="http://www.w3.org/2000/svg" xmlns:xlink="http://www.w3.org/1999/xlink" x="0px" y="0px"
	 viewBox="0 0 40 40" style="enable-background:new 0 0 40 40;" xml:space="preserve">
<style type="text/css">
	.st0{fill:none;stroke:#00627A;stroke-width:0.6;stroke-linecap:round;stroke-linejoin:round;stroke-miterlimit:10;}
</style>
<path class="st0" d="M16.97,14.31l1.98-3.83c0.44-0.85,1.65-0.83,2.06,0.04l1.84,3.9l4.26,0.69c0.94,0.15,1.3,1.32,0.6,1.97
	l-3.14,2.96l0.65,4.26c0.14,0.94-0.85,1.64-1.69,1.18l-3.78-2.07l-3.85,1.94c-0.85,0.43-1.82-0.3-1.65-1.24l0.8-4.24l-3.04-3.06
	c-0.67-0.68-0.27-1.83,0.67-1.95L16.97,14.31z"/>
<line class="st0" x1="19.74" y1="34.07" x2="19.74" y2="39.14"/>
<line class="st0" x1="19.74" y1="1.45" x2="19.74" y2="6.52"/>
<line class="st0" x1="26.63" y1="32.23" x2="29.16" y2="36.61"/>
<line class="st0" x1="10.32" y1="3.97" x2="12.85" y2="8.36"/>
<line class="st0" x1="31.67" y1="27.18" x2="36.06" y2="29.72"/>
<line class="st0" x1="3.42" y1="10.87" x2="7.81" y2="13.41"/>
<line class="st0" x1="33.52" y1="20.29" x2="38.59" y2="20.29"/>
<line class="st0" x1="0.9" y1="20.29" x2="5.96" y2="20.29"/>
<line class="st0" x1="31.67" y1="13.41" x2="36.06" y2="10.87"/>
<line class="st0" x1="3.42" y1="29.72" x2="7.81" y2="27.18"/>
<line class="st0" x1="26.63" y1="8.36" x2="29.16" y2="3.97"/>
<line class="st0" x1="10.32" y1="36.61" x2="12.85" y2="32.23"/>
</svg>
