<?xml version="1.0" encoding="utf-8"?>
<!-- Generator: Adobe Illustrator 24.0.1, SVG Export Plug-In . SVG Version: 6.00 Build 0)  -->
<svg version="1.1" id="Layer_1" xmlns="http://www.w3.org/2000/svg" xmlns:xlink="http://www.w3.org/1999/xlink" x="0px" y="0px"
	 viewBox="0 0 40 40" style="enable-background:new 0 0 40 40;" xml:space="preserve">
<style type="text/css">
	.st0{fill:none;stroke:#837FC8;stroke-width:0.57;stroke-miterlimit:10;}
	.st1{fill:none;stroke:#837FC8;stroke-width:0.546;stroke-miterlimit:10;}
	.st2{fill:none;stroke:#837FC8;stroke-width:2;stroke-miterlimit:10;}
</style>
<circle class="st0" cx="13.62" cy="13.88" r="11.43"/>
<circle class="st0" cx="13.62" cy="13.88" r="6.45"/>
<g>
	<line class="st0" x1="13.51" y1="0.24" x2="13.51" y2="4.89"/>
	<line class="st0" x1="13.51" y1="22.6" x2="13.51" y2="27.25"/>
</g>
<g>
	<line class="st0" x1="0" y1="13.74" x2="4.65" y2="13.74"/>
	<line class="st0" x1="22.36" y1="13.74" x2="27.01" y2="13.74"/>
</g>
<circle class="st0" cx="13.54" cy="11.76" r="1.93"/>
<path class="st0" d="M16.99,16.9c-0.76-1.08,0-2.88-3.61-2.88c-3.03,0-2.59,1.69-3.3,2.99"/>
<path class="st1" d="M33.36,38.79l-7.51-7.5c-1.1-1.1-1.1-2.89,0-3.99l1.1-1.1c1.1-1.1,2.89-1.1,3.99,0l7.51,7.5
	c1.1,1.1,1.1,2.89,0,3.99l-1.1,1.1C36.25,39.88,34.47,39.89,33.36,38.79z"/>
<line class="st2" x1="21.95" y1="21.84" x2="26.73" y2="26.73"/>
</svg>
