<?xml version="1.0" encoding="utf-8"?>
<!-- Generator: Adobe Illustrator 24.0.1, SVG Export Plug-In . SVG Version: 6.00 Build 0)  -->
<svg version="1.1" id="Layer_1" xmlns="http://www.w3.org/2000/svg" xmlns:xlink="http://www.w3.org/1999/xlink" x="0px" y="0px"
	 viewBox="0 0 50 50" style="enable-background:new 0 0 50 50;" xml:space="preserve">
<style type="text/css">
	.st0{fill:none;stroke:#837FC8;stroke-width:0.4396;stroke-linecap:round;stroke-linejoin:round;stroke-miterlimit:10;}
	.st1{fill:none;stroke:#837FC8;stroke-width:0.3989;stroke-linecap:round;stroke-linejoin:round;stroke-miterlimit:10;}
	.st2{fill:none;stroke:#837FC8;stroke-width:0.6594;stroke-linecap:round;stroke-linejoin:round;stroke-miterlimit:10;}
	.st3{fill:none;stroke:#837FC8;stroke-width:0.5983;stroke-linecap:round;stroke-linejoin:round;stroke-miterlimit:10;}
	.st4{fill:none;stroke:#837FC8;stroke-width:0.5116;stroke-miterlimit:10;}
	.st5{fill:none;stroke:#837FC8;stroke-width:0.49;stroke-miterlimit:10;}
	.st6{fill:none;stroke:#837FC8;stroke-width:1.795;stroke-miterlimit:10;}
</style>
<g>
	<circle class="st0" cx="41.26" cy="7.77" r="1.41"/>
	<path class="st0" d="M38.67,12.76V11.8c0-1.26,1.02-2.28,2.28-2.28h0.56c1.26,0,2.28,1.02,2.28,2.28v1.01"/>
	<line class="st0" x1="39.91" y1="11.41" x2="39.91" y2="12.76"/>
	<line class="st0" x1="42.55" y1="11.41" x2="42.55" y2="12.76"/>
</g>
<circle class="st0" cx="41.34" cy="9.58" r="4.14"/>
<g>
	<ellipse class="st1" cx="12.05" cy="6.44" rx="1.31" ry="1.24"/>
	<path class="st1" d="M9.64,10.85v-0.84C9.64,8.9,10.59,8,11.77,8h0.52c1.17,0,2.12,0.9,2.12,2.01v0.89"/>
	<line class="st1" x1="10.79" y1="9.66" x2="10.79" y2="10.85"/>
	<line class="st1" x1="13.26" y1="9.66" x2="13.26" y2="10.85"/>
</g>
<ellipse class="st1" cx="12.13" cy="8.05" rx="3.86" ry="3.66"/>
<g>
	<circle class="st0" cx="5.26" cy="19.55" r="1.41"/>
	<path class="st0" d="M2.68,24.54v-0.95c0-1.26,1.02-2.28,2.28-2.28h0.56c1.26,0,2.28,1.02,2.28,2.28v1.01"/>
	<line class="st0" x1="3.91" y1="23.19" x2="3.91" y2="24.54"/>
	<line class="st0" x1="6.55" y1="23.19" x2="6.55" y2="24.54"/>
</g>
<circle class="st0" cx="5.35" cy="21.37" r="4.14"/>
<g>
	<circle class="st0" cx="44.21" cy="25.34" r="1.41"/>
	<path class="st0" d="M41.82,30.43l-0.04-0.95c-0.05-1.26,0.93-2.31,2.19-2.36l0.56-0.02c1.26-0.05,2.31,0.93,2.36,2.19l0.04,1.01"
		/>
	<line class="st0" x1="43" y1="29.03" x2="43.05" y2="30.38"/>
	<line class="st0" x1="45.64" y1="28.93" x2="45.69" y2="30.28"/>
</g>
<circle class="st0" cx="44.37" cy="27.15" r="4.14"/>
<g>
	<circle class="st0" cx="11.45" cy="33.58" r="1.41"/>
	<path class="st0" d="M8.6,38.42l0.05-0.95c0.07-1.25,1.14-2.22,2.39-2.15l0.56,0.03c1.25,0.07,2.22,1.14,2.15,2.39l-0.05,1.01"/>
	<line class="st0" x1="9.9" y1="37.14" x2="9.83" y2="38.49"/>
	<line class="st0" x1="12.54" y1="37.28" x2="12.47" y2="38.63"/>
</g>
<circle class="st0" cx="11.44" cy="35.39" r="4.14"/>
<line class="st2" x1="33.16" y1="17.75" x2="38.15" y2="12.47"/>
<line class="st3" x1="14.98" y1="10.68" x2="19.45" y2="15.18"/>
<line class="st2" x1="9.07" y1="19.55" x2="18.29" y2="14.27"/>
<line class="st2" x1="43.81" y1="13.42" x2="44.61" y2="22.92"/>
<line class="st2" x1="7.67" y1="25.12" x2="9.79" y2="31.65"/>
<g>
	<circle class="st4" cx="25.1" cy="24.37" r="10.26"/>
	<circle class="st4" cx="25.1" cy="24.37" r="5.79"/>
	<g>
		<line class="st4" x1="25" y1="12.13" x2="25" y2="16.3"/>
		<line class="st4" x1="25" y1="32.2" x2="25" y2="36.37"/>
	</g>
	<g>
		<line class="st4" x1="12.88" y1="24.25" x2="17.05" y2="24.25"/>
		<line class="st4" x1="32.95" y1="24.25" x2="37.12" y2="24.25"/>
	</g>
	<circle class="st4" cx="25.03" cy="22.46" r="1.74"/>
	<path class="st4" d="M28.13,27.08c-0.68-0.97,0-2.58-3.24-2.58c-2.72,0-2.33,1.51-2.97,2.68"/>
	<path class="st5" d="M42.82,46.72l-6.74-6.73c-0.99-0.99-0.99-2.59,0-3.58l0.99-0.99c0.99-0.99,2.59-0.99,3.58,0l6.74,6.73
		c0.99,0.99,0.99,2.59,0,3.58l-0.99,0.99C45.41,47.71,43.81,47.71,42.82,46.72z"/>
	<line class="st6" x1="32.58" y1="31.51" x2="36.87" y2="35.9"/>
</g>
</svg>
