<?xml version="1.0" encoding="utf-8"?>
<!-- Generator: Adobe Illustrator 24.0.1, SVG Export Plug-In . SVG Version: 6.00 Build 0)  -->
<svg version="1.1" id="Layer_1" xmlns="http://www.w3.org/2000/svg" xmlns:xlink="http://www.w3.org/1999/xlink" x="0px" y="0px"
	 viewBox="0 0 44 57" style="enable-background:new 0 0 44 57;" xml:space="preserve">
<style type="text/css">
	.st0{fill-rule:evenodd;clip-rule:evenodd;fill:#A0C21A;}
	.st1{fill:#FFFFFF;}
	.st2{fill:none;stroke:#FFFFFF;stroke-width:0.4;stroke-linecap:round;stroke-linejoin:round;stroke-miterlimit:10;}
</style>
<path class="st0" d="M6.96,0.19h30.75c2.54,0,4.63,2.02,4.63,4.5V51.7c0,2.47-2.08,4.5-4.63,4.5H6.96c-2.55,0-4.63-2.02-4.63-4.5
	V4.69C2.34,2.22,4.42,0.19,6.96,0.19z"/>
<g>
	<path class="st1" d="M20.58,13.06l0.78-1.52c0.17-0.33,0.65-0.33,0.82,0.01l0.73,1.54l1.68,0.27c0.37,0.06,0.51,0.52,0.24,0.78
		l-1.24,1.17l0.26,1.69c0.06,0.37-0.34,0.65-0.67,0.47l-1.5-0.82l-1.52,0.77c-0.34,0.17-0.72-0.12-0.65-0.49l0.32-1.68l-1.2-1.21
		c-0.27-0.27-0.11-0.72,0.27-0.77L20.58,13.06z"/>
	<line class="st2" x1="21.68" y1="7.97" x2="21.68" y2="9.98"/>
	<line class="st2" x1="17.95" y1="8.97" x2="18.95" y2="10.71"/>
	<line class="st2" x1="15.22" y1="11.7" x2="16.96" y2="12.7"/>
	<line class="st2" x1="27.13" y1="15.43" x2="29.13" y2="15.43"/>
	<line class="st2" x1="14.22" y1="15.43" x2="16.23" y2="15.43"/>
	<line class="st2" x1="26.4" y1="12.7" x2="28.13" y2="11.7"/>
	<line class="st2" x1="24.4" y1="10.71" x2="25.41" y2="8.97"/>
</g>
<line class="st2" x1="10.56" y1="20.4" x2="33.16" y2="20.4"/>
<line class="st2" x1="10.56" y1="22.26" x2="33.16" y2="22.26"/>
<line class="st2" x1="10.56" y1="24.82" x2="33.16" y2="24.82"/>
<g>
	<path class="st1" d="M20.58,34.76l0.78-1.52c0.17-0.33,0.65-0.33,0.82,0.01l0.73,1.54l1.68,0.27c0.37,0.06,0.51,0.52,0.24,0.78
		l-1.24,1.17l0.26,1.69c0.06,0.37-0.34,0.65-0.67,0.47l-1.5-0.82l-1.52,0.77c-0.34,0.17-0.72-0.12-0.65-0.49l0.32-1.68l-1.2-1.21
		c-0.27-0.27-0.11-0.72,0.27-0.77L20.58,34.76z"/>
	<line class="st2" x1="21.68" y1="29.67" x2="21.68" y2="31.68"/>
	<line class="st2" x1="17.95" y1="30.67" x2="18.95" y2="32.41"/>
	<line class="st2" x1="15.22" y1="33.4" x2="16.96" y2="34.4"/>
	<line class="st2" x1="27.13" y1="37.13" x2="29.13" y2="37.13"/>
	<line class="st2" x1="14.22" y1="37.13" x2="16.23" y2="37.13"/>
	<line class="st2" x1="26.4" y1="34.4" x2="28.13" y2="33.4"/>
	<line class="st2" x1="24.4" y1="32.41" x2="25.41" y2="30.67"/>
</g>
<line class="st2" x1="10.56" y1="41.33" x2="33.16" y2="41.33"/>
<line class="st2" x1="10.56" y1="43.19" x2="33.16" y2="43.19"/>
<line class="st2" x1="10.56" y1="45.75" x2="33.16" y2="45.75"/>
</svg>
