<?xml version="1.0" encoding="utf-8"?>
<!-- Generator: Adobe Illustrator 24.0.1, SVG Export Plug-In . SVG Version: 6.00 Build 0)  -->
<svg version="1.1" id="Layer_1" xmlns="http://www.w3.org/2000/svg" xmlns:xlink="http://www.w3.org/1999/xlink" x="0px" y="0px"
	 viewBox="0 0 52 54" style="enable-background:new 0 0 52 54;" xml:space="preserve">
<style type="text/css">
	.st0{fill:none;stroke:#000000;stroke-width:1.5;stroke-miterlimit:10;}
	.st1{fill:none;stroke:#000000;stroke-width:1.5;stroke-linecap:round;stroke-linejoin:round;stroke-miterlimit:10;}
</style>
<g>
	<path class="st0" d="M23.1,8.9C25,5,28.9,2.4,33.5,2.4c6.4,0,11.6,5.2,11.6,11.6s-5.2,11.6-11.6,11.6c-1.9,0-3.7-0.5-5.3-1.3"/>
	<path class="st0" d="M7.6,22.5V15c0-1.7,1.4-3.2,3.2-3.2h11.9c1.7,0,3.2,1.4,3.2,3.2v9.8"/>
	<line class="st0" x1="14.9" y1="14.6" x2="17.4" y2="14.6"/>
	<path class="st0" d="M26,35.7v3.5c0,1.4-1.1,2.5-2.5,2.5H10.4c0,0-1.9-0.7-2-1.6"/>
	<path class="st0" d="M5.6,24.4c-1,0.2-3.6,0.7-3.2,5.7S3,39,5.9,39s5-1.8,4.8-7.8C10.6,25.2,5.6,24.4,5.6,24.4z"/>
	<line class="st1" x1="14.1" y1="39" x2="18.9" y2="39"/>
	<ellipse class="st1" cx="26.1" cy="30.2" rx="2.6" ry="3.6"/>
	<polyline class="st1" points="12.9,26.7 16,29.3 20.5,23.2 	"/>
	<line class="st1" x1="18.8" y1="44.5" x2="18.8" y2="53.1"/>
	<line class="st1" x1="39.5" y1="45" x2="39.5" y2="53.3"/>
	<path class="st1" d="M30.7,29.6c0,0,11.5-1.3,15.1,3.4c3.6,4.6,4.3,3.6,4.3,20.1"/>
</g>
</svg>
