<?xml version="1.0" encoding="utf-8"?>
<!-- Generator: Adobe Illustrator 24.0.1, SVG Export Plug-In . SVG Version: 6.00 Build 0)  -->
<svg version="1.1" id="Layer_1" xmlns="http://www.w3.org/2000/svg" xmlns:xlink="http://www.w3.org/1999/xlink" x="0px" y="0px"
	 viewBox="0 0 50 50" style="enable-background:new 0 0 50 50;" xml:space="preserve">
<style type="text/css">
	.st0{fill:none;stroke:#9594D2;stroke-width:0.6;stroke-linecap:round;stroke-linejoin:round;stroke-miterlimit:10;}
</style>
<g>
	<polygon class="st0" points="16.7,17.82 14.95,35.39 35.47,35.39 33.73,17.96 	"/>
	<circle class="st0" cx="26.89" cy="20.91" r="0.94"/>
	<circle class="st0" cx="19.65" cy="20.91" r="0.94"/>
	<polyline class="st0" points="30.24,18.36 28.63,35.39 32.25,32.71 35.47,35.39 	"/>
	<line class="st0" x1="31.99" y1="17.82" x2="31.99" y2="32.71"/>
	<path class="st0" d="M19.65,19.97c0,0-0.54-6.04,3.76-6.04s4.16,6.04,4.16,6.04"/>
	<path class="st0" d="M22.06,17.69c0,0,0-4.16,3.89-4.16s3.35,4.29,3.35,4.29"/>
	<g>
		<g>
			<line class="st0" x1="24.97" y1="39.6" x2="24.97" y2="44.11"/>
			<line class="st0" x1="24.97" y1="6.08" x2="24.97" y2="11.7"/>
			<circle class="st0" cx="24.97" cy="4.14" r="2.22"/>
			<circle class="st0" cx="24.97" cy="46.19" r="2.22"/>
		</g>
		<g>
			<line class="st0" x1="32.18" y1="37.67" x2="34.44" y2="41.57"/>
			<line class="st0" x1="15.42" y1="8.64" x2="18.23" y2="13.51"/>
			<circle class="st0" cx="14.45" cy="6.95" r="2.22"/>
			<circle class="st0" cx="35.48" cy="43.38" r="2.22"/>
		</g>
		<g>
			<line class="st0" x1="37.47" y1="32.38" x2="41.37" y2="34.64"/>
			<line class="st0" x1="8.44" y1="15.62" x2="13.31" y2="18.43"/>
			<circle class="st0" cx="6.76" cy="14.65" r="2.22"/>
			<circle class="st0" cx="43.18" cy="35.68" r="2.22"/>
		</g>
		<g>
			<line class="st0" x1="39.4" y1="25.17" x2="43.91" y2="25.17"/>
			<line class="st0" x1="5.88" y1="25.17" x2="11.5" y2="25.17"/>
			<circle class="st0" cx="3.94" cy="25.17" r="2.22"/>
			<circle class="st0" cx="45.99" cy="25.17" r="2.22"/>
		</g>
		<g>
			<line class="st0" x1="37.47" y1="17.95" x2="41.37" y2="15.69"/>
			<line class="st0" x1="8.44" y1="34.71" x2="13.31" y2="31.9"/>
			<circle class="st0" cx="6.76" cy="35.68" r="2.22"/>
			<circle class="st0" cx="43.18" cy="14.65" r="2.22"/>
		</g>
		<g>
			<line class="st0" x1="32.18" y1="12.66" x2="34.44" y2="8.76"/>
			<line class="st0" x1="15.42" y1="41.69" x2="18.23" y2="36.82"/>
			<circle class="st0" cx="14.45" cy="43.38" r="2.22"/>
			<circle class="st0" cx="35.48" cy="6.95" r="2.22"/>
		</g>
	</g>
</g>
</svg>
