<?xml version="1.0" encoding="utf-8"?>
<!-- Generator: Adobe Illustrator 24.0.1, SVG Export Plug-In . SVG Version: 6.00 Build 0)  -->
<svg version="1.1" id="Layer_1" xmlns="http://www.w3.org/2000/svg" xmlns:xlink="http://www.w3.org/1999/xlink" x="0px" y="0px"
	 viewBox="0 0 50 50" style="enable-background:new 0 0 50 50;" xml:space="preserve">
<style type="text/css">
	.st0{fill:#006E96;}
	.st1{fill:none;stroke:#FFFFFF;stroke-width:0.6;stroke-linecap:round;stroke-linejoin:round;stroke-miterlimit:10;}
</style>
<circle class="st0" cx="25.16" cy="24.9" r="24.47"/>
<g>
	<g>
		<path class="st1" d="M16.43,30.21c-2.47-2.49-3.86-4.9-4.36-8.56c-0.4-4.48,1.24-7,4.88-8c3.52-0.68,6.32,1.29,7.76,3.12
			c0.44,0.56,0.32,0.52,1.12-0.24c1.91-1.82,3.8-3.4,6.96-2.68c4.3,1.06,6.04,4.26,5.4,8.68c-1.47,5.6-5.82,10.18-12.96,13.76
			l-4.16-2.4c-1.81-1.46-2.01-3.58-1.32-5.52c1.76-3.36,3.92-3.64,6.28-3.6"/>
		<path class="st1" d="M30.19,18.73c0,0,2.12,6.24-1,9.48s-7.32,2.64-8.88,1.08c-1.56-1.56-0.95-5.75,0.72-7.08
			c2.52-2,4.64-0.44,6.72-1.72C28.65,19.93,30.19,18.73,30.19,18.73z"/>
	</g>
</g>
</svg>
