<?xml version="1.0" encoding="utf-8"?>
<!-- Generator: Adobe Illustrator 24.0.1, SVG Export Plug-In . SVG Version: 6.00 Build 0)  -->
<svg version="1.1" id="Layer_1" xmlns="http://www.w3.org/2000/svg" xmlns:xlink="http://www.w3.org/1999/xlink" x="0px" y="0px"
	 viewBox="0 0 40 40" style="enable-background:new 0 0 40 40;" xml:space="preserve">
<style type="text/css">
	.st0{fill:none;stroke:#00627A;stroke-width:0.6;stroke-linecap:round;stroke-linejoin:round;stroke-miterlimit:10;}
</style>
<path class="st0" d="M3.14,20.6c0,9.55,7.74,17.29,17.29,17.29s17.29-7.74,17.29-17.29S29.97,3.31,20.43,3.31
	c-5.49,0-10.38,2.56-13.55,6.55"/>
<polyline class="st0" points="6.05,2.56 6.05,10.42 14.09,10.42 "/>
<circle class="st0" cx="16.01" cy="29.76" r="2.1"/>
<circle class="st0" cx="25.4" cy="29.76" r="2.1"/>
<polyline class="st0" points="8.32,13.92 12.52,13.92 16.01,27.66 "/>
<line class="st0" x1="18.11" y1="29.76" x2="23.3" y2="29.76"/>
<polyline class="st0" points="16.01,26.03 26.96,26.03 29.99,16.71 25.33,16.71 "/>
<line class="st0" x1="18.34" y1="16.48" x2="13.68" y2="16.48"/>
<polyline class="st0" points="20.21,16.25 21.6,17.88 21.6,12.75 "/>
<line class="st0" x1="23.06" y1="16.25" x2="21.6" y2="17.88"/>
<line class="st0" x1="17.47" y1="19.97" x2="26.09" y2="19.97"/>
<line class="st0" x1="18.58" y1="22.54" x2="24.93" y2="22.54"/>
<circle class="st0" cx="17" cy="9.26" r="0.84"/>
<circle class="st0" cx="21.37" cy="9.26" r="0.84"/>
<circle class="st0" cx="25.75" cy="9.26" r="0.84"/>
</svg>
