<?xml version="1.0" encoding="utf-8"?>
<!-- Generator: Adobe Illustrator 24.0.1, SVG Export Plug-In . SVG Version: 6.00 Build 0)  -->
<svg version="1.1" id="Layer_1" xmlns="http://www.w3.org/2000/svg" xmlns:xlink="http://www.w3.org/1999/xlink" x="0px" y="0px"
	 viewBox="0 0 44 57" style="enable-background:new 0 0 44 57;" xml:space="preserve">
<style type="text/css">
	.st0{fill-rule:evenodd;clip-rule:evenodd;fill:#A0C21A;}
	.st1{fill:none;stroke:#FFFFFF;stroke-width:0.6;stroke-miterlimit:10;}
	.st2{fill:none;stroke:#FFFFFF;stroke-width:0.6;stroke-linecap:round;stroke-linejoin:round;stroke-miterlimit:10;}
</style>
<path class="st0" d="M6.66,0.21H37.4c2.55,0,4.63,2.02,4.63,4.5v47.01c0,2.47-2.08,4.5-4.63,4.5H6.66c-2.55,0-4.63-2.02-4.63-4.5
	V4.7C2.03,2.23,4.11,0.21,6.66,0.21z"/>
<g>
	<path class="st1" d="M18.96,14.19c1.3-2.65,4.03-4.47,7.18-4.47c4.41,0,7.99,3.58,7.99,7.99s-3.58,7.99-7.99,7.99
		c-1.31,0-2.54-0.31-3.64-0.87"/>
	<path class="st1" d="M8.27,23.57v-5.15c0-1.2,0.97-2.18,2.18-2.18h8.18c1.2,0,2.18,0.97,2.18,2.18v6.75"/>
	<line class="st1" x1="13.33" y1="18.11" x2="15.06" y2="18.11"/>
	<path class="st1" d="M20.93,32.64v2.43c0,0.94-0.76,1.7-1.7,1.7H10.2c0,0-1.33-0.47-1.4-1.13"/>
	<path class="st1" d="M6.93,24.91c-0.67,0.13-2.47,0.47-2.2,3.93c0.27,3.47,0.4,6.13,2.4,6.13s3.47-1.27,3.33-5.4
		S6.93,24.91,6.93,24.91z"/>
	<line class="st2" x1="12.73" y1="34.97" x2="16.06" y2="34.97"/>
	<ellipse class="st2" cx="21" cy="28.87" rx="1.8" ry="2.5"/>
	<polyline class="st2" points="11.93,26.44 14.06,28.24 17.2,24.04 	"/>
	<line class="st2" x1="16" y1="38.7" x2="16" y2="44.63"/>
	<line class="st2" x1="30.26" y1="39.1" x2="30.26" y2="44.77"/>
	<path class="st2" d="M24.19,28.44c0,0,7.93-0.87,10.4,2.33c2.47,3.2,2.93,2.47,2.93,13.86"/>
</g>
</svg>
