<?xml version="1.0" encoding="utf-8"?>
<!-- Generator: Adobe Illustrator 24.0.1, SVG Export Plug-In . SVG Version: 6.00 Build 0)  -->
<svg version="1.1" id="Layer_1" xmlns="http://www.w3.org/2000/svg" xmlns:xlink="http://www.w3.org/1999/xlink" x="0px" y="0px"
	 viewBox="0 0 56.2 64.6" style="enable-background:new 0 0 56.2 64.6;" xml:space="preserve">
<style type="text/css">
	.st0{fill:none;stroke:#000000;stroke-width:1.5;stroke-miterlimit:10;}
	.st1{fill:none;stroke:#000000;stroke-width:1.5;stroke-linecap:round;stroke-linejoin:round;stroke-miterlimit:10;}
</style>
<g>
	<path class="st0" d="M33.4,53.1v5.1c0,2.2-1.8,4.1-4.1,4.1H6.8c-2.2,0-4.1-1.8-4.1-4.1V6.5c0-2.2,1.8-4.1,4.1-4.1h22.5
		c2.2,0,4.1,1.8,4.1,4.1v4.8"/>
	<line class="st1" x1="18" y1="7.2" x2="18.6" y2="7.2"/>
	<line class="st1" x1="14.8" y1="57.1" x2="21.3" y2="57.1"/>
	<path class="st0" d="M11.1,52.8H48c2.7,0,4.9-2.2,4.9-4.9V15.9c0-2.7-2.3-4.9-5-4.9l-27.6,0.1c-2.6,0.1-4.8,2.8-4.8,5.5v30.7
		L11.1,52.8z"/>
	<g>
		<path class="st0" d="M44.3,36.5H24.3c-1.9,0-3.5-1.6-3.5-3.5v-13c0-1.9,1.6-3.5,3.5-3.5h19.9c1.9,0,3.5,1.6,3.5,3.5v13
			C47.8,35,46.2,36.5,44.3,36.5z"/>
		<circle class="st0" cx="37.2" cy="22.9" r="2.8"/>
		<polyline class="st0" points="47.8,32.4 42.1,27.6 36.4,32.2 28.7,25.6 21.3,32.2 		"/>
	</g>
	<line class="st1" x1="22.9" y1="40.8" x2="45.9" y2="40.8"/>
	<line class="st1" x1="22.9" y1="43.9" x2="45.9" y2="43.9"/>
	<line class="st1" x1="22.9" y1="47" x2="45.9" y2="47"/>
</g>
</svg>
