<?xml version="1.0" encoding="utf-8"?>
<!-- Generator: Adobe Illustrator 24.0.1, SVG Export Plug-In . SVG Version: 6.00 Build 0)  -->
<svg version="1.1" id="Layer_1" xmlns="http://www.w3.org/2000/svg" xmlns:xlink="http://www.w3.org/1999/xlink" x="0px" y="0px"
	 viewBox="0 0 40 40" style="enable-background:new 0 0 40 40;" xml:space="preserve">
<style type="text/css">
	.st0{fill:none;stroke:#837FC8;stroke-width:0.6;stroke-miterlimit:10;}
</style>
<path class="st0" d="M29.12,19.68h-18.7V3.89c0-1.61,1.3-2.91,2.91-2.91h12.88c1.61,0,2.91,1.3,2.91,2.91V19.68z"/>
<path class="st0" d="M36.4,38.56H3.58c-1.14,0-2.07-0.93-2.07-2.07V21.93c0-1.14,0.93-2.07,2.07-2.07H36.4
	c1.14,0,2.07,0.93,2.07,2.07v14.56C38.47,37.63,37.54,38.56,36.4,38.56z"/>
<line class="st0" x1="20.21" y1="20.21" x2="20.21" y2="38.38"/>
<g>
	<circle class="st0" cx="19.28" cy="6.63" r="3.09"/>
	<path class="st0" d="M13.62,17.58v-2.09c0-2.76,2.24-4.99,4.99-4.99h1.22c2.76,0,4.99,2.24,4.99,4.99v2.22"/>
	<line class="st0" x1="16.32" y1="14.62" x2="16.32" y2="17.58"/>
	<line class="st0" x1="22.12" y1="14.62" x2="22.12" y2="17.58"/>
</g>
<g>
	<circle class="st0" cx="10.47" cy="25.1" r="3.09"/>
	<path class="st0" d="M4.81,36.05v-2.09c0-2.76,2.24-4.99,4.99-4.99h1.22c2.76,0,4.99,2.24,4.99,4.99v2.22"/>
	<line class="st0" x1="7.51" y1="33.09" x2="7.51" y2="36.05"/>
	<line class="st0" x1="13.31" y1="33.09" x2="13.31" y2="36.05"/>
</g>
<g>
	<circle class="st0" cx="29" cy="25.1" r="3.09"/>
	<path class="st0" d="M23.33,36.05v-2.09c0-2.76,2.24-4.99,4.99-4.99h1.22c2.76,0,4.99,2.24,4.99,4.99v2.22"/>
	<line class="st0" x1="26.04" y1="33.09" x2="26.04" y2="36.05"/>
	<line class="st0" x1="31.83" y1="33.09" x2="31.83" y2="36.05"/>
</g>
</svg>
