<?xml version="1.0" encoding="utf-8"?>
<!-- Generator: Adobe Illustrator 24.0.1, SVG Export Plug-In . SVG Version: 6.00 Build 0)  -->
<svg version="1.1" id="Layer_1" xmlns="http://www.w3.org/2000/svg" xmlns:xlink="http://www.w3.org/1999/xlink" x="0px" y="0px"
	 viewBox="0 0 55 55" style="enable-background:new 0 0 55 55;" xml:space="preserve">
<style type="text/css">
	.st0{fill:none;stroke:#F4F9EA;stroke-width:3;stroke-miterlimit:10;}
	.st1{fill:none;stroke:#F4F9EA;stroke-width:0.6;stroke-linecap:round;stroke-linejoin:round;stroke-miterlimit:10;}
	.st2{fill-rule:evenodd;clip-rule:evenodd;fill:none;stroke:#F4F9EA;stroke-width:0.6;stroke-miterlimit:10;}
	.st3{fill:none;stroke:#F4F9EA;stroke-width:0.6;stroke-miterlimit:10;}
</style>
<circle class="st0" cx="27.82" cy="27.56" r="24.47"/>
<g>
	<g>
		<path class="st1" d="M22.07,22.37c0,0-6.88,0-7.47,0s-2.65,0.49-2.65,2.26s0,9.63,0,10.71c0,1.08,0.98,2.75,2.95,2.75h1.47h15.62
			c1.67,0,4.09,0,4.72,0c0.98,0,2.95-0.29,2.95-2.65c0-2.36,0-9.73,0-10.81s-0.88-2.16-2.16-2.16c-1.28,0-15.43,0-15.43,0"/>
		<g>
			<g>
				<g>
					<path class="st2" d="M25.13,28.54h0.97c0.08,0,0.15,0.07,0.15,0.15v1.53c0,0.08-0.07,0.15-0.15,0.15h-0.97
						c-0.08,0-0.15-0.07-0.15-0.15v-1.53C24.98,28.61,25.05,28.54,25.13,28.54z"/>
				</g>
				<rect x="22.1" y="26.43" class="st2" width="1.62" height="1.62"/>
				<rect x="27.53" y="26.43" class="st2" width="1.62" height="1.62"/>
				<rect x="22.1" y="31.72" class="st2" width="1.62" height="1.62"/>
				<polyline class="st2" points="27.53,32.51 27.53,33.34 29.14,33.34 29.14,32.48 				"/>
				<polyline class="st2" points="28.33,31.65 29.14,31.65 29.14,29.28 				"/>
				<line class="st2" x1="27.57" y1="29.53" x2="27.57" y2="28.96"/>
				<line class="st2" x1="27.57" y1="31.6" x2="27.57" y2="29.98"/>
				<line class="st2" x1="23.46" y1="30.75" x2="23.46" y2="30.18"/>
				<polyline class="st2" points="24.3,31.57 26.13,31.57 26.13,33.27 24.91,33.27 				"/>
				<polyline class="st2" points="23.92,29.27 22.04,29.27 22.04,30.41 				"/>
				<polyline class="st2" points="24.86,26.39 26.01,26.39 26.01,27.51 				"/>
				<polyline class="st2" points="28.53,24.82 30.52,24.82 30.52,26.81 				"/>
				<polyline class="st2" points="22.58,24.82 20.59,24.82 20.59,26.81 				"/>
				<polyline class="st2" points="28.53,34.85 30.52,34.85 30.52,32.86 				"/>
				<polyline class="st2" points="22.58,34.85 20.59,34.85 20.59,32.86 				"/>
			</g>
			<path class="st3" d="M24.46,31.17v-2.68c0-0.34,0.28-0.62,0.62-0.62h1.04"/>
			<path class="st3" d="M26.76,27.8v2.67c0,0.34-0.28,0.62-0.62,0.62h-1.04"/>
		</g>
	</g>
</g>
<g>
	<path class="st1" d="M39.49,34.31c0.29-0.29,0.53-0.7,0.69-1.27c0.64-2.27,2.62-9.37,2.91-10.41c0.29-1.04-0.27-2.32-1.5-2.66
		c-1.23-0.34-14.85-4.16-14.85-4.16"/>
	<path class="st1" d="M26.77,15.71c0,0-6.62-1.85-7.19-2.01c-0.57-0.16-2.69-0.24-3.16,1.46c-0.3,1.08-1.27,4.52-2,7.16"/>
	<g>
		<g>
			
				<rect x="20.63" y="18.47" transform="matrix(0.963 0.2697 -0.2697 0.963 5.9932 -5.0671)" class="st2" width="1.62" height="1.62"/>
			
				<rect x="25.86" y="19.94" transform="matrix(0.963 0.2697 -0.2697 0.963 6.5816 -6.4226)" class="st2" width="1.62" height="1.62"/>
			<line class="st2" x1="25.31" y1="22.74" x2="25.47" y2="22.19"/>
			<line class="st2" x1="21.03" y1="22.8" x2="21.18" y2="22.26"/>
			<polyline class="st2" points="21.87,21.5 20.06,20.99 19.75,22.1 			"/>
			<polyline class="st2" points="23.55,18.99 24.66,19.3 24.36,20.37 			"/>
			<polyline class="st2" points="27.51,18.46 29.42,19 28.89,20.91 			"/>
			<polyline class="st2" points="21.78,16.86 19.87,16.32 19.33,18.24 			"/>
		</g>
	</g>
</g>
</svg>
