<?xml version="1.0" encoding="utf-8"?>
<!-- Generator: Adobe Illustrator 24.0.1, SVG Export Plug-In . SVG Version: 6.00 Build 0)  -->
<svg version="1.1" id="Layer_1" xmlns="http://www.w3.org/2000/svg" xmlns:xlink="http://www.w3.org/1999/xlink" x="0px" y="0px"
	 viewBox="0 0 44 57" style="enable-background:new 0 0 44 57;" xml:space="preserve">
<style type="text/css">
	.st0{fill-rule:evenodd;clip-rule:evenodd;fill:#A0C21A;}
	.st1{fill:#FFFFFF;}
	.st2{fill:none;stroke:#FFFFFF;stroke-width:0.5118;stroke-miterlimit:10;}
</style>
<path class="st0" d="M6.66,0.21H37.4c2.55,0,4.63,2.02,4.63,4.5v47.01c0,2.47-2.08,4.5-4.63,4.5H6.66c-2.55,0-4.63-2.02-4.63-4.5
	V4.7C2.03,2.23,4.11,0.21,6.66,0.21z"/>
<path class="st1" d="M17.49,21.86v11.21c0,0.73,0.79,1.18,1.42,0.82l9.71-5.6c0.63-0.36,0.63-1.28,0-1.64l-9.71-5.6
	C18.27,20.68,17.49,21.13,17.49,21.86z"/>
<path class="st2" d="M31.2,37.47H12.92c-2.76,0-5.02-2.26-5.02-5.02V22.22c0-2.76,2.26-5.02,5.02-5.02H31.2
	c2.76,0,5.02,2.26,5.02,5.02v10.23C36.22,35.21,33.96,37.47,31.2,37.47z"/>
</svg>
