<?xml version="1.0" encoding="utf-8"?>
<!-- Generator: Adobe Illustrator 24.0.1, SVG Export Plug-In . SVG Version: 6.00 Build 0)  -->
<svg version="1.1" id="Layer_1" xmlns="http://www.w3.org/2000/svg" xmlns:xlink="http://www.w3.org/1999/xlink" x="0px" y="0px"
	 viewBox="0 0 44 57" style="enable-background:new 0 0 44 57;" xml:space="preserve">
<style type="text/css">
	.st0{fill-rule:evenodd;clip-rule:evenodd;fill:#A0C21A;}
	.st1{fill:none;stroke:#FFFFFF;stroke-width:0.6;stroke-miterlimit:10;}
	.st2{fill:#FFFFFF;}
</style>
<path class="st0" d="M6.66,0.21H37.4c2.55,0,4.63,2.02,4.63,4.5v47.01c0,2.47-2.08,4.5-4.63,4.5H6.66c-2.55,0-4.63-2.02-4.63-4.5
	V4.7C2.03,2.23,4.11,0.21,6.66,0.21z"/>
<path class="st1" d="M17.76,15.6L9.23,37.96c-0.79,2.07,0.24,4.39,2.31,5.19l10.15,3.93c2.1,0.81,4.45-0.25,5.23-2.36l8.31-22.49
	l-5.97-11.5L17.76,15.6z"/>
<circle class="st2" cx="26.16" cy="20.02" r="2.16"/>
<path class="st1" d="M12.45,23.56c0,0-7.3-1.77-3.76-4.2s15.93,0.22,15.93,0.22"/>
<path class="st1" d="M33.46,27.76L32,42.09c-0.29,2.79-2.86,4.77-5.63,4.32l-0.43-0.07"/>
<line class="st1" x1="13.77" y1="38.16" x2="27.27" y2="29.75"/>
<circle class="st1" cx="19.53" cy="29.75" r="2.21"/>
<circle class="st1" cx="21.8" cy="38.94" r="2.21"/>
</svg>
