<?xml version="1.0" encoding="utf-8"?>
<!-- Generator: Adobe Illustrator 24.0.1, SVG Export Plug-In . SVG Version: 6.00 Build 0)  -->
<svg version="1.1" id="Layer_1" xmlns="http://www.w3.org/2000/svg" xmlns:xlink="http://www.w3.org/1999/xlink" x="0px" y="0px"
	 viewBox="0 0 30.8 41.9" style="enable-background:new 0 0 30.8 41.9;" xml:space="preserve">
<style type="text/css">
	.st0{fill:#FFFFFF;}
	.st1{fill:none;stroke:#FFFFFF;stroke-miterlimit:10;}
</style>
<g>
	<path class="st0" d="M25.5,13.8c0-5.5-4.5-10-10-10s-10,4.5-10,10c0,5.6,4.5,8.7,7.2,13.4c2.1,3.6,2.7,6.8,2.7,6.8s0.6-3.3,2.7-6.9
		C21,22.4,25.5,20,25.5,13.8z"/>
	<circle cx="15.5" cy="14" r="3.5"/>
	<path class="st1" d="M18.9,31.1c3.6,0.5,6.2,1.8,6.2,3.3c0,2-4.3,3.6-9.6,3.6S6,36.5,6,34.5c0-1.5,2.6-2.8,6.2-3.3"/>
</g>
</svg>
