<?xml version="1.0" encoding="utf-8"?>
<!-- Generator: Adobe Illustrator 24.0.1, SVG Export Plug-In . SVG Version: 6.00 Build 0)  -->
<svg version="1.1" id="Layer_1" xmlns="http://www.w3.org/2000/svg" xmlns:xlink="http://www.w3.org/1999/xlink" x="0px" y="0px"
	 viewBox="0 0 55 55" style="enable-background:new 0 0 55 55;" xml:space="preserve">
<style type="text/css">
	.st0{fill:none;stroke:#F4F9EA;stroke-width:3;stroke-miterlimit:10;}
	.st1{fill:none;stroke:#F4F9EA;stroke-width:1.1944;stroke-miterlimit:10;}
	.st2{fill:none;stroke:#F4F9EA;stroke-width:1.1944;stroke-linecap:round;stroke-linejoin:round;stroke-miterlimit:10;}
</style>
<circle class="st0" cx="27.82" cy="27.56" r="24.47"/>
<g>
	<circle class="st1" cx="19.81" cy="33.16" r="2.7"/>
	<circle class="st1" cx="19.81" cy="33.16" r="0.63"/>
	<circle class="st1" cx="37.55" cy="33.16" r="2.7"/>
	<circle class="st1" cx="37.55" cy="33.16" r="0.63"/>
	<line class="st1" x1="22.86" y1="33.25" x2="34.86" y2="33.25"/>
	<path class="st1" d="M40.25,33.16c0,0,2.26,0,2.87,0s1.78-0.17,1.78-1.78c0-1.61,0-2.83,0-3.61c0-0.78-0.65-2.35-2.22-2.96
		c-1.57-0.61-2.78-1.65-4.44-3.57s-4.35-4.17-8.09-4.17s-11.13,0-12.7,0s-4,0.87-4,4s0,9.31,0,10c0,0.7,0.26,2.17,1.39,2.17
		s2.26,0,2.26,0"/>
	<line class="st1" x1="30.42" y1="26.81" x2="13.38" y2="26.81"/>
	<line class="st1" x1="13.72" y1="20.46" x2="36.95" y2="20.46"/>
	<path class="st1" d="M40.77,24.12c0,0-5.91,0-6.7,0c-0.78,0-1.57-0.61-1.57-1.48s0.96-1.74,0.96-1.74"/>
	<line class="st2" x1="42.25" y1="28.29" x2="44.6" y2="28.29"/>
</g>
</svg>
