<?xml version="1.0" encoding="utf-8"?>
<!-- Generator: Adobe Illustrator 24.0.1, SVG Export Plug-In . SVG Version: 6.00 Build 0)  -->
<svg version="1.1" id="Layer_1" xmlns="http://www.w3.org/2000/svg" xmlns:xlink="http://www.w3.org/1999/xlink" x="0px" y="0px"
	 viewBox="0 0 49.7 39.1" style="enable-background:new 0 0 49.7 39.1;" xml:space="preserve">
<style type="text/css">
	.st0{fill:none;stroke:#FFFFFF;stroke-width:0.8;stroke-linecap:round;stroke-linejoin:round;stroke-miterlimit:10;}
	.st1{fill:#FFFFFF;}
</style>
<g>
	<g>
		<path class="st0" d="M29.9,6.4h9.8c1.4,0,2.5,1.1,2.5,2.5V28"/>
		<path class="st0" d="M8.3,27.3V8.9c0-1.4,1.1-2.5,2.5-2.5h9"/>
		<path class="st0" d="M22.3,30c0,0-0.5,1.5,1.2,1.5c1.7,0,2.2,0,2.8,0c0.6,0,2,0,2-1.5h16.5c0,0,0.6,4.6-3.4,4.6s-30.4,0-32.2,0
			S5.3,33.7,5.3,30C5.3,30,22.7,29.6,22.3,30z"/>
	</g>
	<g>
		<circle class="st0" cx="24.7" cy="6.1" r="3.8"/>
		<path class="st0" d="M17.7,19.5V17c0-3.4,2.8-6.1,6.1-6.1h1.5c1.7,0,6.1,0.7,6.1,8.4"/>
		<line class="st0" x1="21.1" y1="15.9" x2="21.1" y2="19.5"/>
		<line class="st0" x1="28.2" y1="15.9" x2="28.2" y2="19.5"/>
	</g>
	<g>
		<path class="st1" d="M16.7,26.9l-1.3-4.4h0.8l0.7,2.5l0.3,0.9c0,0,0.1-0.3,0.2-0.9l0.7-2.6h0.8l0.7,2.5l0.2,0.8l0.2-0.8l0.7-2.5
			h0.7L20,26.9h-0.8l-0.7-2.6l-0.2-0.7l-0.9,3.4H16.7z"/>
		<path class="st1" d="M23.6,26.9l-1.3-4.4H23l0.7,2.5L24,26c0,0,0.1-0.3,0.2-0.9l0.7-2.6h0.8l0.7,2.5l0.2,0.8l0.2-0.8l0.7-2.5h0.7
			l-1.4,4.4h-0.8l-0.7-2.6l-0.2-0.7l-0.9,3.4H23.6z"/>
		<path class="st1" d="M30.5,26.9l-1.3-4.4h0.8l0.7,2.5l0.3,0.9c0,0,0.1-0.3,0.2-0.9l0.7-2.6h0.8l0.7,2.5l0.2,0.8l0.2-0.8l0.7-2.5
			h0.7l-1.4,4.4H33l-0.7-2.6l-0.2-0.7l-0.9,3.4H30.5z"/>
	</g>
</g>
</svg>
