<?xml version="1.0" encoding="utf-8"?>
<!-- Generator: Adobe Illustrator 24.0.1, SVG Export Plug-In . SVG Version: 6.00 Build 0)  -->
<svg version="1.1" id="Layer_1" xmlns="http://www.w3.org/2000/svg" xmlns:xlink="http://www.w3.org/1999/xlink" x="0px" y="0px"
	 viewBox="0 0 40 40" style="enable-background:new 0 0 40 40;" xml:space="preserve">
<style type="text/css">
	.st0{fill:none;stroke:#837FC8;stroke-width:0.5869;stroke-linecap:round;stroke-linejoin:round;stroke-miterlimit:10;}
	.st1{fill:#837FC8;}
</style>
<path class="st0" d="M35.53,15.54H5.24l-3.29,6.38c0,1.06,0.82,1.92,1.84,1.92c1.02,0,1.84-0.86,1.84-1.92
	c0,1.06,0.82,1.92,1.84,1.92s1.84-0.86,1.84-1.92c0,1.06,0.82,1.92,1.84,1.92c1.02,0,1.84-0.86,1.84-1.92
	c0,1.06,0.82,1.92,1.84,1.92c1.02,0,1.84-0.86,1.84-1.92c0,1.06,0.82,1.92,1.84,1.92s1.84-0.86,1.84-1.92
	c0,1.06,0.82,1.92,1.84,1.92s1.84-0.86,1.84-1.92c0,1.06,0.82,1.92,1.84,1.92c1.02,0,1.84-0.86,1.84-1.92
	c0,1.06,0.82,1.92,1.84,1.92c1.02,0,1.84-0.86,1.84-1.92c0,1.06,0.82,1.92,1.84,1.92s1.84-0.86,1.84-1.92
	c0,1.06,0.82,1.92,1.84,1.92s1.84-0.86,1.84-1.92L35.53,15.54z"/>
<line class="st0" x1="4.6" y1="23.75" x2="4.6" y2="38.6"/>
<line class="st0" x1="36.17" y1="23.75" x2="36.17" y2="38.6"/>
<line class="st0" x1="37.62" y1="38.84" x2="2.79" y2="38.84"/>
<path class="st0" d="M7.74,38.66v-9.8c0-0.92,0.75-1.67,1.67-1.67h21c0.92,0,1.67,0.75,1.67,1.67v9.98"/>
<line class="st0" x1="15.43" y1="27.36" x2="15.43" y2="38.9"/>
<line class="st0" x1="32.09" y1="35.17" x2="15.43" y2="35.17"/>
<rect x="8.73" y="33.6" class="st1" width="2.04" height="0.87"/>
<g>
	<path class="st1" d="M1.36,12.18v-0.86l1.1-1.07c2.65-2.52,3.87-3.87,3.87-5.43c0-1.05-0.5-2.03-2.04-2.03
		c-0.94,0-1.73,0.48-2.2,0.88L1.63,2.68c0.7-0.59,1.74-1.05,2.92-1.05c2.24,0,3.18,1.53,3.18,3.02c0,1.92-1.39,3.47-3.58,5.58
		l-0.81,0.77v0.03h4.65v1.17H1.36z"/>
	<path class="st1" d="M13.9,12.18V9.34H9.08V8.43l4.63-6.63h1.52v6.45h1.45v1.09h-1.45v2.84H13.9z M13.9,8.25V4.79
		c0-0.54,0.02-1.09,0.05-1.63H13.9c-0.32,0.61-0.58,1.05-0.86,1.53L10.5,8.22v0.03H13.9z"/>
	<path class="st1" d="M22.24,4.45l1.1,1.66c0.3,0.43,0.54,0.81,0.8,1.25h0.03c0.26-0.45,0.51-0.85,0.78-1.26l1.07-1.65h1.53
		l-2.64,3.74l2.7,3.99h-1.58l-1.15-1.74c-0.3-0.45-0.56-0.88-0.83-1.34h-0.03c-0.26,0.46-0.51,0.88-0.82,1.34l-1.12,1.74h-1.55
		l2.75-3.95l-2.62-3.79H22.24z"/>
	<path class="st1" d="M38.66,1.8v0.93l-4.52,9.46h-1.45L37.19,3V2.96h-5.08V1.8H38.66z"/>
</g>
</svg>
