<?xml version="1.0" encoding="utf-8"?>
<!-- Generator: Adobe Illustrator 24.0.1, SVG Export Plug-In . SVG Version: 6.00 Build 0)  -->
<svg version="1.1" id="Layer_1" xmlns="http://www.w3.org/2000/svg" xmlns:xlink="http://www.w3.org/1999/xlink" x="0px" y="0px"
	 viewBox="0 0 40 40" style="enable-background:new 0 0 40 40;" xml:space="preserve">
<style type="text/css">
	.st0{fill:none;stroke:#A79F88;stroke-width:0.6;stroke-linecap:round;stroke-linejoin:round;stroke-miterlimit:10;}
</style>
<path class="st0" d="M8.44,24.4v7.72l-3.52,4.53h29.86c2.18,0,3.95-1.77,3.95-3.95V6.68c0-2.22-1.82-4-4.04-3.95L12.3,3.25
	C10.16,3.3,8.44,5.06,8.44,7.2v4.27"/>
<circle class="st0" cx="23.29" cy="9.66" r="3.86"/>
<path class="st0" d="M16.21,23.34v-2.61c0-3.45,2.79-6.24,6.24-6.24h1.53c3.45,0,6.24,2.79,6.24,6.24v2.78"/>
<line class="st0" x1="19.59" y1="19.64" x2="19.59" y2="23.34"/>
<line class="st0" x1="26.84" y1="19.64" x2="26.84" y2="23.34"/>
<line class="st0" x1="15.27" y1="27.72" x2="32.92" y2="27.72"/>
<line class="st0" x1="0.93" y1="12.69" x2="12.87" y2="12.69"/>
<line class="st0" x1="0.93" y1="24" x2="12.87" y2="24"/>
<line class="st0" x1="2.68" y1="15.49" x2="14.61" y2="15.49"/>
<line class="st0" x1="2.68" y1="20.91" x2="14.61" y2="20.91"/>
<line class="st0" x1="15.27" y1="30.34" x2="32.92" y2="30.34"/>
<line class="st0" x1="15.27" y1="32.96" x2="32.92" y2="32.96"/>
<circle class="st0" cx="12.34" cy="28.07" r="0.87"/>
<circle class="st0" cx="12.34" cy="31.57" r="0.87"/>
<line class="st0" x1="4.43" y1="18.28" x2="16.36" y2="18.28"/>
</svg>
