<?xml version="1.0" encoding="utf-8"?>
<!-- Generator: Adobe Illustrator 24.0.1, SVG Export Plug-In . SVG Version: 6.00 Build 0)  -->
<svg version="1.1" id="Layer_1" xmlns="http://www.w3.org/2000/svg" xmlns:xlink="http://www.w3.org/1999/xlink" x="0px" y="0px"
	 viewBox="0 0 50 50" style="enable-background:new 0 0 50 50;" xml:space="preserve">
<style type="text/css">
	.st0{fill-rule:evenodd;clip-rule:evenodd;fill:none;stroke:#9594D2;stroke-width:1.0607;stroke-miterlimit:10;}
	.st1{fill:none;stroke:#9594D2;stroke-width:0.6;stroke-miterlimit:10;}
	.st2{fill:none;stroke:#9594D2;stroke-width:0.6;stroke-linecap:round;stroke-linejoin:round;stroke-miterlimit:10;}
	.st3{fill:none;stroke:#9594D2;stroke-width:0.7801;stroke-linecap:round;stroke-linejoin:round;stroke-miterlimit:10;}
	.st4{fill:#9594D2;}
</style>
<g>
	<g>
		<g>
			<path class="st0" d="M15.42,7.11H34.3c1.56,0,2.84,1.28,2.84,2.84v29.71c0,1.56-1.28,2.84-2.84,2.84H15.42
				c-1.56,0-2.84-1.28-2.84-2.84V9.96C12.58,8.39,13.86,7.11,15.42,7.11z"/>
		</g>
	</g>
	<path class="st1" d="M8.38,49.4V11.07c0-4.88,3.96-8.84,8.84-8.84h14.83"/>
	<path class="st1" d="M41.35,1.21v38.23c0,4.88-3.96,8.84-8.84,8.84H17.68"/>
</g>
<path class="st2" d="M14.06,18.59c0-3.75,0.91-4.43,4.43-4.43"/>
<path class="st2" d="M18.49,35.06c-3.75,0-4.43-0.91-4.43-4.43"/>
<path class="st2" d="M35.19,18.59c0-3.75-0.91-4.43-4.43-4.43"/>
<path class="st2" d="M30.76,35.06c3.75,0,4.43-0.91,4.43-4.43"/>
<path class="st3" d="M19.18,27.9c0,0,0.11,5.57,5.45,5.57s5.79-5.68,5.79-5.68s1.59-0.45,1.14-2.27c0,0,1.7-7.38-2.04-7.84
	c0,0-0.8-2.27-3.18-2.04s-6.59,0.68-7.73,3.07c-1.14,2.39-1.36,4.2-0.8,6.59C17.81,25.29,17.36,27.34,19.18,27.9z"/>
<path class="st3" d="M20.31,22.91c0,0,1.93-1.14,3.29-1.25s3.64,0.8,4.77-1.59c0,0-0.11,1.02,0.45,1.36
	c0.57,0.34,0.91,0.57,0.91,1.93"/>
<path class="st3" d="M22.81,29.61c0,0,0.45,0.8,1.7,0.8c1.25,0,1.82-0.68,1.82-0.68"/>
<circle class="st4" cx="27.13" cy="25.4" r="0.8"/>
<circle class="st4" cx="22.14" cy="25.4" r="0.8"/>
</svg>
