<?xml version="1.0" encoding="utf-8"?>
<!-- Generator: Adobe Illustrator 24.0.1, SVG Export Plug-In . SVG Version: 6.00 Build 0)  -->
<svg version="1.1" id="Layer_1" xmlns="http://www.w3.org/2000/svg" xmlns:xlink="http://www.w3.org/1999/xlink" x="0px" y="0px"
	 viewBox="0 0 50 50" style="enable-background:new 0 0 50 50;" xml:space="preserve">
<style type="text/css">
	.st0{fill:#006E96;}
	.st1{fill:none;stroke:#FFFFFF;stroke-width:0.6;stroke-miterlimit:10;}
</style>
<circle class="st0" cx="25.06" cy="24.94" r="24.47"/>
<g>
	<path class="st1" d="M15.5,41.02c0,0,0.35-3.84-2.1-5.94s-4.43-3.61-4.43-5.94s0-6.41,0-7.22s0.82-2.1,1.4-2.1s1.28,0.35,1.51,1.51
		c0.23,1.17,0.7,5.01,0.7,5.01"/>
	<path class="st1" d="M16.09,32.98l-4.54-4.54c0,0-0.35-1.17,0.58-1.98c0.93-0.82,1.86-0.12,2.21,0.47
		c0.35,0.58,1.63,1.98,1.98,2.21c0.35,0.23,1.05,0.7,1.86,0.7s4.89,1.05,4.89,5.13s0,6.29,0,6.29"/>
	<path class="st1" d="M34.14,41.02c0,0-0.35-3.84,2.1-5.94s4.43-3.61,4.43-5.94s0-6.41,0-7.22s-0.82-2.1-1.4-2.1
		s-1.28,0.35-1.51,1.51s-0.7,5.01-0.7,5.01"/>
	<path class="st1" d="M33.56,32.98l4.54-4.54c0,0,0.35-1.17-0.58-1.98s-1.86-0.12-2.21,0.47s-1.63,1.98-1.98,2.21
		s-1.05,0.7-1.86,0.7c-0.82,0-4.89,1.05-4.89,5.13s0,6.29,0,6.29"/>
</g>
<circle class="st1" cx="25.16" cy="23.21" r="5.78"/>
<polyline class="st1" points="24.91,20.13 24.91,23.21 26.32,24.62 "/>
<polyline class="st1" points="30.94,23.21 35.17,23.21 35.17,10.38 14.77,10.38 14.77,23.08 19.39,23.08 "/>
<path class="st1" d="M26.49,17.52c0.14-0.25,0.21-0.54,0.21-0.85c0-0.99-0.8-1.8-1.8-1.8s-1.8,0.8-1.8,1.8
	c0,0.23,0.04,0.44,0.12,0.65"/>
<line class="st1" x1="22.43" y1="28.09" x2="22.43" y2="29.05"/>
<line class="st1" x1="24.91" y1="17.52" x2="24.91" y2="18.51"/>
<line class="st1" x1="27.99" y1="26.38" x2="28.99" y2="27.38"/>
<line class="st1" x1="20.82" y1="19.21" x2="22" y2="20.39"/>
<line class="st1" x1="29.27" y1="23.3" x2="30.68" y2="23.3"/>
<line class="st1" x1="19.13" y1="23.3" x2="20.71" y2="23.3"/>
<line class="st1" x1="27.99" y1="20.21" x2="28.99" y2="19.21"/>
<line class="st1" x1="20.82" y1="27.38" x2="22" y2="26.04"/>
</svg>
