<?xml version="1.0" encoding="utf-8"?>
<!-- Generator: Adobe Illustrator 24.0.1, SVG Export Plug-In . SVG Version: 6.00 Build 0)  -->
<svg version="1.1" id="Layer_1" xmlns="http://www.w3.org/2000/svg" xmlns:xlink="http://www.w3.org/1999/xlink" x="0px" y="0px"
	 viewBox="0 0 40 40" style="enable-background:new 0 0 40 40;" xml:space="preserve">
<style type="text/css">
	.st0{fill:none;stroke:#A79F88;stroke-width:0.6;stroke-linecap:round;stroke-linejoin:round;stroke-miterlimit:10;}
	.st1{fill:none;stroke:#A79F88;stroke-width:0.4691;stroke-linecap:round;stroke-linejoin:round;stroke-miterlimit:10;}
	.st2{fill:#A79F88;}
	.st3{fill:none;stroke:#A79F88;stroke-linecap:round;stroke-linejoin:round;stroke-miterlimit:10;}
</style>
<path class="st0" d="M35.29,24.18c0-3.14-0.97-6.06-2.62-8.46"/>
<path class="st0" d="M33.62,31.06c0.18-0.35,0.35-0.7,0.5-1.06"/>
<path class="st0" d="M5.36,23.88c0,0.1,0,0.2,0,0.3c0,2.42,0.57,4.7,1.59,6.72"/>
<path class="st0" d="M28.83,11.86c-2.42-1.67-5.35-2.65-8.5-2.65c-4.44,0-8.43,1.93-11.17,5.01"/>
<path class="st0" d="M34.19,9.02c0,0-0.87-4.37-4.19-2.62s-0.87,6.12-0.87,6.12l1.05,3.5l5.59-1.4c0,0,3.79-1.08,3.15-3.67
	C38.03,7.45,34.19,9.02,34.19,9.02z"/>
<path class="st0" d="M4.85,17.46c0,0-4.29-1.2-4.24,2.55s5.06,3.55,5.06,3.55l3.59,0.65l1.29-5.62c0,0,0.76-3.87-1.85-4.47
	C5.19,13.32,4.85,17.46,4.85,17.46z"/>
<path class="st1" d="M34.77,24.75c0,0-0.65-3.42-3.26-2.08c-2.61,1.34-0.73,4.77-0.73,4.77l0.79,2.74l4.38-1.05
	c0,0,2.97-0.81,2.49-2.84C37.79,23.55,34.77,24.75,34.77,24.75z"/>
<circle class="st2" cx="24.87" cy="15.02" r="1.4"/>
<circle class="st2" cx="15.95" cy="15.02" r="1.4"/>
<path class="st3" d="M16.1,19.16c1.05,3.32,7.69,3.67,8.3,0"/>
</svg>
