<?xml version="1.0" encoding="utf-8"?>
<!-- Generator: Adobe Illustrator 24.0.1, SVG Export Plug-In . SVG Version: 6.00 Build 0)  -->
<svg version="1.1" id="Layer_1" xmlns="http://www.w3.org/2000/svg" xmlns:xlink="http://www.w3.org/1999/xlink" x="0px" y="0px"
	 viewBox="0 0 40 40" style="enable-background:new 0 0 40 40;" xml:space="preserve">
<style type="text/css">
	.st0{fill:none;stroke:#A79F88;stroke-width:0.6;stroke-linecap:round;stroke-linejoin:round;stroke-miterlimit:10;}
	.st1{fill:none;stroke:#A79F88;stroke-width:1.2513;stroke-linecap:round;stroke-linejoin:round;stroke-miterlimit:10;}
	.st2{fill:#A79F88;}
</style>
<g>
	<circle class="st0" cx="14.22" cy="10.6" r="2.67"/>
	<path class="st0" d="M9.32,20.07v-1.81c0-2.38,1.93-4.31,4.31-4.31h1.05c1.19,0,2.27,0.48,3.05,1.26"/>
	<line class="st0" x1="11.66" y1="17.51" x2="11.66" y2="20.07"/>
	<line class="st0" x1="16.67" y1="17.51" x2="16.67" y2="20.07"/>
</g>
<path class="st0" d="M25.82,8.96V5.31c0-1.91-1.55-3.45-3.45-3.45H7.41c-1.91,0-3.45,1.55-3.45,3.45v29.9
	c0,1.91,1.55,3.45,3.45,3.45h15.16c1.7,0,3.07-1.38,3.07-3.07v-2.21"/>
<line class="st1" x1="12.7" y1="34.29" x2="16.89" y2="34.29"/>
<path class="st0" d="M15.98,22.63H9.97c0,0-3.1,0-3.1,2.92s2.19,3.1,2.92,3.1s8.2,0,8.2,0"/>
<circle class="st2" cx="15.07" cy="5.14" r="0.91"/>
<circle class="st2" cx="10.51" cy="25.73" r="0.82"/>
<circle class="st2" cx="13.58" cy="25.73" r="0.82"/>
<circle class="st2" cx="16.64" cy="25.73" r="0.82"/>
<circle class="st0" cx="28.37" cy="21.36" r="9.68"/>
<g>
	<polyline class="st0" points="25.22,20.8 27.81,23.82 27.81,14.32 	"/>
	<line class="st0" x1="30.51" y1="20.8" x2="27.81" y2="23.82"/>
</g>
<polyline class="st0" points="22.3,23.42 22.3,25.61 33.23,25.61 33.23,23.66 "/>
</svg>
