<?xml version="1.0" encoding="utf-8"?>
<!-- Generator: Adobe Illustrator 24.0.1, SVG Export Plug-In . SVG Version: 6.00 Build 0)  -->
<svg version="1.1" id="Layer_1" xmlns="http://www.w3.org/2000/svg" xmlns:xlink="http://www.w3.org/1999/xlink" x="0px" y="0px"
	 viewBox="0 0 40 40" style="enable-background:new 0 0 40 40;" xml:space="preserve">
<style type="text/css">
	.st0{fill:none;stroke:#837FC8;stroke-width:0.6245;stroke-linecap:round;stroke-linejoin:round;stroke-miterlimit:10;}
	.st1{fill:none;stroke:#837FC8;stroke-width:0.4163;stroke-linecap:round;stroke-linejoin:round;stroke-miterlimit:10;}
</style>
<g>
	<g>
		<circle class="st0" cx="22.64" cy="14.33" r="2.13"/>
		<path class="st0" d="M18.74,21.87v-1.44c0-1.9,1.54-3.44,3.44-3.44h0.84c1.9,0,3.44,1.54,3.44,3.44v1.53"/>
		<line class="st0" x1="20.6" y1="19.83" x2="20.6" y2="21.87"/>
		<line class="st0" x1="24.59" y1="19.83" x2="24.59" y2="21.87"/>
	</g>
	<circle class="st0" cx="22.77" cy="17.07" r="6.26"/>
	<g>
		<circle class="st1" cx="34.52" cy="3.1" r="1.33"/>
		<path class="st1" d="M32.08,7.83v-0.9c0-1.19,0.96-2.16,2.16-2.16h0.53c1.19,0,2.16,0.96,2.16,2.16v0.96"/>
		<line class="st1" x1="33.24" y1="6.55" x2="33.24" y2="7.83"/>
		<line class="st1" x1="35.74" y1="6.55" x2="35.74" y2="7.83"/>
	</g>
	<circle class="st1" cx="34.6" cy="4.82" r="3.92"/>
	<g>
		<circle class="st1" cx="10.88" cy="3.01" r="1.33"/>
		<path class="st1" d="M8.43,7.74v-0.9c0-1.19,0.96-2.16,2.16-2.16h0.53c1.19,0,2.16,0.96,2.16,2.16v0.96"/>
		<line class="st1" x1="9.6" y1="6.46" x2="9.6" y2="7.74"/>
		<line class="st1" x1="12.1" y1="6.46" x2="12.1" y2="7.74"/>
	</g>
	<circle class="st1" cx="10.96" cy="4.73" r="3.92"/>
	<g>
		<circle class="st1" cx="4.42" cy="24.02" r="1.33"/>
		<path class="st1" d="M1.97,28.74v-0.9c0-1.19,0.96-2.16,2.16-2.16h0.53c1.19,0,2.16,0.96,2.16,2.16v0.96"/>
		<line class="st1" x1="3.14" y1="27.47" x2="3.14" y2="28.74"/>
		<line class="st1" x1="5.64" y1="27.47" x2="5.64" y2="28.74"/>
	</g>
	<circle class="st1" cx="4.5" cy="25.74" r="3.92"/>
	<g>
		<circle class="st1" cx="16.79" cy="33.84" r="1.33"/>
		<path class="st1" d="M14.34,38.57v-0.9c0-1.19,0.96-2.16,2.16-2.16h0.53c1.19,0,2.16,0.96,2.16,2.16v0.96"/>
		<line class="st1" x1="15.51" y1="37.29" x2="15.51" y2="38.57"/>
		<line class="st1" x1="18.01" y1="37.29" x2="18.01" y2="38.57"/>
	</g>
	<circle class="st1" cx="16.87" cy="35.56" r="3.92"/>
	<g>
		<circle class="st1" cx="34.7" cy="27.02" r="1.33"/>
		<path class="st1" d="M32.26,31.75v-0.9c0-1.19,0.96-2.16,2.16-2.16h0.53c1.19,0,2.16,0.96,2.16,2.16v0.96"/>
		<line class="st1" x1="33.42" y1="30.47" x2="33.42" y2="31.75"/>
		<line class="st1" x1="35.93" y1="30.47" x2="35.93" y2="31.75"/>
	</g>
	<circle class="st1" cx="34.78" cy="28.74" r="3.92"/>
	<line class="st0" x1="26.85" y1="12.56" x2="31.58" y2="7.56"/>
	<line class="st0" x1="13.85" y1="7.56" x2="18.39" y2="12.38"/>
	<line class="st0" x1="8.03" y1="24.02" x2="16.76" y2="19.02"/>
	<line class="st0" x1="21.21" y1="23.29" x2="18.58" y2="31.93"/>
	<line class="st0" x1="27.4" y1="21.47" x2="31.85" y2="26.2"/>
</g>
</svg>
