<?xml version="1.0" encoding="utf-8"?>
<!-- Generator: Adobe Illustrator 24.0.1, SVG Export Plug-In . SVG Version: 6.00 Build 0)  -->
<svg version="1.1" id="Layer_1" xmlns="http://www.w3.org/2000/svg" xmlns:xlink="http://www.w3.org/1999/xlink" x="0px" y="0px"
	 viewBox="0 0 50 50" style="enable-background:new 0 0 50 50;" xml:space="preserve">
<style type="text/css">
	.st0{fill:#006E96;}
	.st1{fill:none;stroke:#FFFFFF;stroke-width:0.6;stroke-linecap:round;stroke-linejoin:round;stroke-miterlimit:10;}
	.st2{fill-rule:evenodd;clip-rule:evenodd;fill:none;stroke:#FFFFFF;stroke-width:0.6;stroke-miterlimit:10;}
	.st3{fill:none;stroke:#FFFFFF;stroke-width:0.6;stroke-miterlimit:10;}
</style>
<circle class="st0" cx="25.16" cy="24.9" r="24.47"/>
<g>
	<path class="st1" d="M21.1,17.21c0,0-6.88,0-7.47,0c-0.59,0-2.65,0.49-2.65,2.26s0,9.63,0,10.71c0,1.08,0.98,2.75,2.95,2.75h1.47
		h15.62c1.67,0,4.09,0,4.72,0c0.98,0,2.95-0.29,2.95-2.65s0-9.73,0-10.81s-0.88-2.16-2.16-2.16c-1.28,0-15.43,0-15.43,0"/>
	<g>
		<g>
			<g>
				<path class="st2" d="M19.15,23.38h0.97c0.08,0,0.15,0.07,0.15,0.15v1.53c0,0.08-0.07,0.15-0.15,0.15h-0.97
					c-0.08,0-0.15-0.07-0.15-0.15v-1.53C19,23.45,19.07,23.38,19.15,23.38z"/>
			</g>
			<rect x="16.12" y="21.28" class="st2" width="1.62" height="1.62"/>
			<rect x="21.55" y="21.28" class="st2" width="1.62" height="1.62"/>
			<rect x="16.12" y="26.56" class="st2" width="1.62" height="1.62"/>
			<polyline class="st2" points="21.55,27.35 21.55,28.18 23.16,28.18 23.16,27.32 			"/>
			<polyline class="st2" points="22.36,26.49 23.17,26.49 23.17,24.12 			"/>
			<line class="st2" x1="21.59" y1="24.37" x2="21.59" y2="23.8"/>
			<line class="st2" x1="21.59" y1="26.45" x2="21.59" y2="24.82"/>
			<line class="st2" x1="17.48" y1="25.59" x2="17.48" y2="25.03"/>
			<polyline class="st2" points="18.32,26.42 20.15,26.42 20.15,28.11 18.93,28.11 			"/>
			<polyline class="st2" points="17.94,24.11 16.06,24.11 16.06,25.25 			"/>
			<polyline class="st2" points="18.88,21.24 20.03,21.24 20.03,22.35 			"/>
			<polyline class="st2" points="22.55,19.66 24.54,19.66 24.54,21.65 			"/>
			<polyline class="st2" points="16.6,19.66 14.62,19.66 14.62,21.65 			"/>
			<polyline class="st2" points="22.55,29.69 24.54,29.69 24.54,27.7 			"/>
			<polyline class="st2" points="16.6,29.69 14.62,29.69 14.62,27.7 			"/>
		</g>
		<path class="st3" d="M18.48,26.01v-2.68c0-0.34,0.28-0.62,0.62-0.62h1.04"/>
		<path class="st3" d="M20.79,22.64v2.67c0,0.34-0.28,0.62-0.62,0.62h-1.04"/>
	</g>
	<polyline class="st1" points="29.41,24.66 30.59,26.23 33.53,23.68 	"/>
	<circle class="st1" cx="31.37" cy="24.66" r="4.32"/>
</g>
</svg>
