<?xml version="1.0" encoding="utf-8"?>
<!-- Generator: Adobe Illustrator 24.0.1, SVG Export Plug-In . SVG Version: 6.00 Build 0)  -->
<svg version="1.1" id="Layer_1" xmlns="http://www.w3.org/2000/svg" xmlns:xlink="http://www.w3.org/1999/xlink" x="0px" y="0px"
	 viewBox="0 0 52 54" style="enable-background:new 0 0 52 54;" xml:space="preserve">
<style type="text/css">
	.st0{fill:none;stroke:#000000;stroke-width:1.5;stroke-miterlimit:10;}
	.st1{fill:none;stroke:#000000;stroke-width:2.2286;stroke-linecap:round;stroke-linejoin:round;stroke-miterlimit:10;}
</style>
<g>
	<polyline class="st0" points="40.8,52.8 40.8,46.4 39.2,46.4 39.2,53 	"/>
	<path class="st0" d="M22.1,53v-11c0,0-8.9-2.6-12.9-6.8c0,0,4.1-1.4,5.1-4.5c0,0-3.7,3.7-7.4,3.2c-3.8-0.4-6.2-3.2-5.3-6
		s4.2-6,5.3-6.4s4.3-0.1,5.8,1.6c1.5,1.8,3.1,3.8,2.6,5.3l1.1-0.3c0,0,4.2,3.5,9.9,2.4l5.8,6.1l6.1-4.7c0,0,11,0.8,11,7.8
		s0,12.7,0,12.7"/>
	<path class="st0" d="M35.8,5.7c-0.9,0-1.7,0.1-2.5,0.3c2.1,2.2,3.4,5.2,3.4,8.5c0,5.1-3.1,9.5-7.5,11.4c1.9,1.4,4.2,2.2,6.7,2.2
		c6.2,0,11.2-5,11.2-11.2S42,5.7,35.8,5.7z"/>
	<path class="st1" d="M12.4,22.3l1.5-1.5c-1.1-1.8-1.8-4-1.8-6.2c0-6.6,5.4-12,12-12c3.5,0,6.6,1.5,8.7,3.8c2,2.1,3.2,5,3.2,8.2
		c0,4.9-3,9.1-7.2,11c-1.5,0.6-3.1,1-4.7,1c-2,0-3.9-0.5-5.6-1.4l-2.6,2.4"/>
	<circle cx="23.7" cy="11.5" r="4.1"/>
	<path d="M17,21.2c0,0,0.9-4.3,4.6-4.3l2,2l2.3-2.3c0,0,4.4,1,4.4,4.5L17,21.2z"/>
</g>
</svg>
