<?xml version="1.0" encoding="utf-8"?>
<!-- Generator: Adobe Illustrator 24.0.1, SVG Export Plug-In . SVG Version: 6.00 Build 0)  -->
<svg version="1.1" id="Layer_1" xmlns="http://www.w3.org/2000/svg" xmlns:xlink="http://www.w3.org/1999/xlink" x="0px" y="0px"
	 viewBox="0 0 48.3 76.9" style="enable-background:new 0 0 48.3 76.9;" xml:space="preserve">
<style type="text/css">
	.st0{fill:none;stroke:#FFFFFF;stroke-width:1.5;stroke-miterlimit:10;}
	.st1{fill:none;stroke:#FFFFFF;stroke-width:1.5;stroke-linecap:round;stroke-linejoin:round;stroke-miterlimit:10;}
</style>
<g>
	<path class="st0" d="M35.4,66.3H12.9c-2.2,0-4.1-1.8-4.1-4.1V10.6c0-2.2,1.8-4.1,4.1-4.1h22.5c2.2,0,4.1,1.8,4.1,4.1v51.7
		C39.4,64.5,37.6,66.3,35.4,66.3z"/>
	<line class="st1" x1="24" y1="11.3" x2="24.6" y2="11.3"/>
	<line class="st1" x1="20.8" y1="61.1" x2="27.3" y2="61.1"/>
	<path class="st1" d="M10.7,40.7h22.1c1.6,0,2.9-1.3,2.9-2.9V18.6c0-1.6-1.3-3-3-2.9l-16.5,0.4c-1.6,0-2.9,1.3-2.9,2.9v18.4
		L10.7,40.7z"/>
	<circle class="st1" cx="24.7" cy="23.5" r="3.6"/>
	<path class="st1" d="M18.2,36.1v-2.4c0-3.2,2.6-5.8,5.8-5.8h1.4c3.2,0,5.8,2.6,5.8,5.8v2.6"/>
	<line class="st1" x1="21.3" y1="32.7" x2="21.3" y2="36.1"/>
	<line class="st1" x1="28" y1="32.7" x2="28" y2="36.1"/>
	<line class="st1" x1="31.4" y1="44.5" x2="31.4" y2="51"/>
	<polyline class="st1" points="28.9,48.8 31.4,51 33.6,48.6 	"/>
	<line class="st1" x1="26" y1="53.7" x2="36.6" y2="53.7"/>
	<path class="st1" d="M24.9,49.3c0-3-2.5-5.5-5.5-5.5s-5.5,2.5-5.5,5.5c0,1,0.3,2,0.8,2.8c0.2,0.4-1.4,2.7-1.1,3
		c0.3,0.3,2.5-1.4,2.9-1.1c0.8,0.5,1.8,0.8,2.9,0.8C22.4,54.8,24.9,52.4,24.9,49.3z"/>
	<path class="st0" d="M17.8,49.3l1.7,1.6l0.9-0.9l0.4,0l0.8,0.8l0.1,0.5c0,0-1.5,1.5-3.2,0.3s-2.2-1.9-2-3.1
		c0.2-1.2,0.8-1.6,0.8-1.6l0.5,0l0.8,0.7l0,0.4L17.8,49.3z"/>
</g>
</svg>
