<?xml version="1.0" encoding="utf-8"?>
<!-- Generator: Adobe Illustrator 24.0.1, SVG Export Plug-In . SVG Version: 6.00 Build 0)  -->
<svg version="1.1" id="Layer_1" xmlns="http://www.w3.org/2000/svg" xmlns:xlink="http://www.w3.org/1999/xlink" x="0px" y="0px"
	 viewBox="0 0 51.1 35.8" style="enable-background:new 0 0 51.1 35.8;" xml:space="preserve">
<style type="text/css">
	.st0{fill:none;stroke:#FFFFFF;stroke-width:0.8;stroke-linecap:round;stroke-linejoin:round;stroke-miterlimit:10;}
	.st1{fill:#FFFFFF;}
	.st2{fill:none;stroke:#4C86A0;stroke-width:0.8;stroke-linecap:round;stroke-linejoin:round;stroke-miterlimit:10;}
</style>
<g>
	<g>
		<circle class="st0" cx="13.5" cy="6.6" r="3.8"/>
		<path class="st0" d="M6.5,20.1v-2.6c0-3.4,2.8-6.1,6.1-6.1h1.5c1.7,0,3.2,0.7,4.3,1.8"/>
		<line class="st0" x1="9.9" y1="16.4" x2="9.9" y2="20.1"/>
		<line class="st0" x1="17" y1="16.4" x2="17" y2="20.1"/>
	</g>
	<path class="st0" d="M16,23.7H7.5c0,0-4.4,0-4.4,4.2s3.1,4.4,4.2,4.4s11.7,0,11.7,0"/>
	<circle class="st1" cx="8.2" cy="28.2" r="1.2"/>
	<circle class="st1" cx="12.6" cy="28.2" r="1.2"/>
	<circle class="st1" cx="17" cy="28.2" r="1.2"/>
	<circle class="st1" cx="33.7" cy="17.6" r="13.8"/>
	<g>
		<polyline class="st2" points="29.2,16.8 32.9,21.1 32.9,7.6 		"/>
		<line class="st2" x1="36.7" y1="16.8" x2="32.9" y2="21.1"/>
	</g>
	<polyline class="st2" points="25,20.5 25,23.7 40.6,23.7 40.6,20.9 	"/>
</g>
</svg>
