<?xml version="1.0" encoding="utf-8"?>
<!-- Generator: Adobe Illustrator 24.0.1, SVG Export Plug-In . SVG Version: 6.00 Build 0)  -->
<svg version="1.1" id="Layer_1" xmlns="http://www.w3.org/2000/svg" xmlns:xlink="http://www.w3.org/1999/xlink" x="0px" y="0px"
	 viewBox="0 0 31 31" style="enable-background:new 0 0 31 31;" xml:space="preserve">
<style type="text/css">
	.st0{fill:none;stroke:#A79F88;stroke-width:0.6;stroke-linecap:round;stroke-linejoin:round;stroke-miterlimit:10;}
	.st1{fill-rule:evenodd;clip-rule:evenodd;fill:none;stroke:#A79F88;stroke-width:0.3;stroke-miterlimit:10;}
	.st2{fill:none;stroke:#A79F88;stroke-width:0.3;stroke-miterlimit:10;}
	.st3{fill:none;stroke:#A79F88;stroke-width:0.5875;stroke-linecap:round;stroke-linejoin:round;stroke-miterlimit:10;}
	.st4{fill:none;stroke:#A79F88;stroke-width:0.6048;stroke-linecap:round;stroke-linejoin:round;stroke-miterlimit:10;}
	.st5{fill:none;stroke:#A79F88;stroke-width:0.5251;stroke-linecap:round;stroke-linejoin:round;stroke-miterlimit:10;}
</style>
<path class="st0" d="M2.36,24.47l2.36-2.36l8.13,7.78c0,0,0.61-0.96,1.49-0.96c0.87,0,2.53-0.17,3.93-1.22"/>
<path class="st0" d="M5.33,22.63c0,0,0.52-0.79,0.61-1.66S5.68,19.23,5.86,18s0.09-2.01,0.87-2.97s2.36-3.5,2.53-5.33
	c0.17-1.83,0.17-2.8,0.87-3.06s2.62,1.31,2.62,3.15s-0.26,4.72-0.79,5.5c-0.52,0.79-0.87,2.1-0.87,2.1s0,4.81,0,5.68
	c0,0.87,0.26,2.62,2.36,2.62s8.65,0,9.61,0c0.96,0,1.92-0.79,1.92-1.92c0-1.14,0-2.05,0-2.05"/>
<path class="st0" d="M25.08,10.05c0,0,0-6.12,0-6.64s-0.44-2.36-2.01-2.36c-1.57,0-8.56,0-9.52,0S11.1,1.93,11.1,3.67v1.31"/>
<g>
	<g>
		<g>
			<path class="st1" d="M17.93,11.87h0.86c0.07,0,0.13,0.06,0.13,0.13v1.36c0,0.07-0.06,0.13-0.13,0.13h-0.86
				c-0.07,0-0.13-0.06-0.13-0.13V12C17.8,11.93,17.86,11.87,17.93,11.87z"/>
		</g>
		<rect x="15.23" y="10" class="st1" width="1.44" height="1.44"/>
		<rect x="20.06" y="10" class="st1" width="1.44" height="1.44"/>
		<rect x="15.23" y="14.7" class="st1" width="1.44" height="1.44"/>
		<polyline class="st1" points="20.06,15.4 20.06,16.14 21.5,16.14 21.5,15.37 		"/>
		<polyline class="st1" points="20.78,14.64 21.5,14.64 21.5,12.53 		"/>
		<line class="st1" x1="20.1" y1="12.75" x2="20.1" y2="12.25"/>
		<line class="st1" x1="20.1" y1="14.6" x2="20.1" y2="13.15"/>
		<line class="st1" x1="16.44" y1="13.84" x2="16.44" y2="13.33"/>
		<polyline class="st1" points="17.19,14.57 18.82,14.57 18.82,16.08 17.73,16.08 		"/>
		<polyline class="st1" points="16.85,12.52 15.18,12.52 15.18,13.54 		"/>
		<polyline class="st1" points="17.69,9.96 18.71,9.96 18.71,10.95 		"/>
		<polyline class="st1" points="20.95,8.56 22.72,8.56 22.72,10.33 		"/>
		<polyline class="st1" points="15.66,8.56 13.9,8.56 13.9,10.33 		"/>
		<polyline class="st1" points="20.95,17.48 22.72,17.48 22.72,15.71 		"/>
		<polyline class="st1" points="15.66,17.48 13.9,17.48 13.9,15.71 		"/>
	</g>
	<path class="st2" d="M17.34,14.21v-2.38c0-0.3,0.25-0.55,0.55-0.55h0.92"/>
	<path class="st2" d="M19.38,11.21v2.38c0,0.3-0.25,0.55-0.55,0.55h-0.92"/>
</g>
<path class="st3" d="M27.85,11.97l-1.97,1.96c-0.59,0.59-1.54,0.58-2.13-0.01l0,0c-0.59-0.59-0.58-1.54,0.01-2.13l1.97-1.96
	c0.59-0.59,1.54-0.58,2.13,0.01l0,0C28.44,10.43,28.44,11.39,27.85,11.97z"/>
<path class="st4" d="M28.28,16.3l-1.87,1.86c-0.62,0.61-1.61,0.61-2.23-0.01l-0.03-0.03c-0.61-0.62-0.61-1.61,0.01-2.23l1.87-1.86
	c0.62-0.61,1.61-0.61,2.23,0.01l0.03,0.03C28.9,14.69,28.89,15.69,28.28,16.3z"/>
<path class="st5" d="M28.36,20.32l-1.28,1.27c-0.54,0.54-1.42,0.54-1.96-0.01l-0.18-0.18c-0.54-0.54-0.54-1.42,0.01-1.96l1.28-1.27
	c0.54-0.54,1.42-0.54,1.96,0.01l0.18,0.18C28.91,18.9,28.91,19.78,28.36,20.32z"/>
</svg>
