<?xml version="1.0" encoding="utf-8"?>
<!-- Generator: Adobe Illustrator 24.0.1, SVG Export Plug-In . SVG Version: 6.00 Build 0)  -->
<svg version="1.1" id="Layer_1" xmlns="http://www.w3.org/2000/svg" xmlns:xlink="http://www.w3.org/1999/xlink" x="0px" y="0px"
	 viewBox="0 0 206.3 86" style="enable-background:new 0 0 206.3 86;" xml:space="preserve">
<style type="text/css">
	.st0{fill:#008240;}
	.st1{fill:#23204E;}
	.st2{fill-rule:evenodd;clip-rule:evenodd;fill:#A0C21A;}
	.st3{fill-rule:evenodd;clip-rule:evenodd;fill:#23204E;}
</style>
<path class="st0" d="M92.8,55.2H106c3.4,0,5.3-0.5,5.3-3.6l0-32.5h7.4v32.5c0,3.3-1,5.9-3.1,7.8c-2,1.8-4.9,2.8-8.6,2.8H92.8
	L92.8,55.2z"/>
<path class="st1" d="M75.5,62.2l-9.8,0v-7.4h-0.2c-3.1,4.9-7.6,7.4-13.6,7.4c-4.4,0-7.9-1.1-10.4-3.3c-2.5-2.2-3.7-5.1-3.7-8.7
	c0-7.8,4.9-12.3,14.6-13.6l13.3-1.7c0-5.9-3-8.8-9.1-8.8c-5.4,0-10.2,1.7-14.5,5.1V23c4.7-2.6,10.2-3.8,16.4-3.8
	c11.3,0,17,5.1,17,15.3L75.5,62.2L75.5,62.2z M65.7,41l-9.4,1.2c-2.9,0.4-5.1,1-6.6,1.9c-1.5,1-2.2,2.6-2.2,5c0,1.7,0.7,3.2,2,4.3
	c1.4,1.1,3.2,1.7,5.5,1.7c3.1,0,5.7-1,7.7-3c2-2,3.1-4.5,3.1-7.5V41z"/>
<g>
	<path class="st1" d="M165.4,43.6h-30.8c0.1,3.8,1.4,6.8,3.9,8.8c2.5,2.1,5.8,3.1,10.1,3.1c4.8,0,9.2-1.3,13.3-4v7.5
		c-4.1,2.4-9.5,3.5-16.3,3.5c-6.6,0-11.8-1.9-15.6-5.6c-3.8-3.7-5.7-9-5.7-15.8c0-6.4,2.1-11.7,6.2-15.7c4.2-4,9.3-6.1,15.5-6.1
		c6.2,0,10.9,1.8,14.3,5.4c3.4,3.6,5.1,8.7,5.1,15.1V43.6z M155.5,37c0-3.4-0.9-6-2.6-7.8c-1.7-1.9-4.1-2.8-7-2.8
		c-2.9,0-5.4,1-7.5,2.9c-2,2-3.3,4.5-3.8,7.7H155.5z"/>
</g>
<path class="st1" d="M9.7,53.2h8.8c1.2,0,2-0.4,2.6-1.2c0.6-0.8,0.9-2,0.9-3.5l0-19.9c0-2.2-0.9-3.1-3.5-3.2l-8.8,0l0-6.3h12.4V6.4
	h9v12.7l5.4,0l0,6.3l-2.2,0c-2.5,0-3.2,1.4-3.2,3.1l0,20c0,4.3-1,7.7-3.1,10c-2,2.4-4.9,3.6-8.6,3.6H9.7V53.2z"/>
<path class="st1" d="M193.5,53.1h-8.8c-1.2,0-2-0.4-2.6-1.2c-0.6-0.8-0.9-2-0.9-3.5l0-19.9c0-2.2,0.9-3.1,3.5-3.2l8.8,0l0-6.3h-12.4
	V6.4h-9v12.7l-5.4,0l0,6.3l2.2,0c2.5,0,3.2,1.4,3.2,3.1l0,20c0,4.3,1,7.7,3.1,10c2,2.4,4.9,3.6,8.6,3.6h9.9V53.1z"/>
<g>
	<path d="M16.1,76.4h-4.8v-8h1.4v6.9h3.4V76.4z"/>
	<path d="M21.9,76.4h-1.4v-0.9h0c-0.4,0.7-1.1,1-1.9,1c-0.6,0-1.1-0.2-1.4-0.5c-0.3-0.3-0.5-0.7-0.5-1.2c0-1.1,0.7-1.7,2-1.9
		l1.8-0.2c0-0.8-0.4-1.2-1.3-1.2c-0.7,0-1.4,0.2-2,0.7V71c0.7-0.4,1.4-0.5,2.3-0.5c1.6,0,2.3,0.7,2.3,2.1V76.4z M20.6,73.6l-1.3,0.2
		c-0.4,0-0.7,0.1-0.9,0.3c-0.2,0.1-0.3,0.4-0.3,0.7c0,0.2,0.1,0.4,0.3,0.6c0.2,0.2,0.4,0.2,0.8,0.2c0.4,0,0.8-0.1,1.1-0.4
		c0.3-0.3,0.4-0.6,0.4-1V73.6z"/>
	<path d="M30.3,76.3c-0.3,0.1-0.6,0.2-1.1,0.2c-1.2,0-1.8-0.5-1.8-1.6v-3.2h-1v-1h1v-1.3l1.4-0.4v1.7h1.5v1h-1.5v2.9
		c0,0.3,0.1,0.6,0.2,0.7c0.1,0.1,0.4,0.2,0.7,0.2c0.2,0,0.4-0.1,0.6-0.2V76.3z"/>
	<path d="M36.3,76.4h-1.4v-0.9h0c-0.4,0.7-1.1,1-1.9,1c-0.6,0-1.1-0.2-1.4-0.5c-0.3-0.3-0.5-0.7-0.5-1.2c0-1.1,0.7-1.7,2-1.9
		l1.8-0.2c0-0.8-0.4-1.2-1.3-1.2c-0.7,0-1.4,0.2-2,0.7V71c0.7-0.4,1.4-0.5,2.3-0.5c1.6,0,2.3,0.7,2.3,2.1V76.4z M34.9,73.6l-1.3,0.2
		c-0.4,0-0.7,0.1-0.9,0.3c-0.2,0.1-0.3,0.4-0.3,0.7c0,0.2,0.1,0.4,0.3,0.6c0.2,0.2,0.4,0.2,0.8,0.2c0.4,0,0.8-0.1,1.1-0.4
		c0.3-0.3,0.4-0.6,0.4-1V73.6z"/>
	<path d="M41.5,71.9c-0.2-0.1-0.4-0.2-0.7-0.2c-0.4,0-0.8,0.2-1,0.5c-0.3,0.3-0.4,0.8-0.4,1.4v2.7H38v-5.7h1.4v1.2h0
		c0.1-0.4,0.3-0.7,0.6-0.9c0.3-0.2,0.6-0.3,1-0.3c0.3,0,0.4,0,0.6,0.1V71.9z"/>
	<path d="M43.9,76.1c0,0.9-0.2,1.7-0.6,2.2c-0.4,0.5-1,0.8-1.8,0.8c-0.3,0-0.6-0.1-0.9-0.2v-1.1c0.3,0.2,0.5,0.3,0.7,0.3
		c0.8,0,1.2-0.6,1.2-1.9v-5.4h1.4V76.1z M43.3,69.4c-0.2,0-0.4-0.1-0.6-0.2c-0.2-0.1-0.2-0.3-0.2-0.5c0-0.2,0.1-0.4,0.2-0.5
		C42.8,68,43,68,43.3,68c0.2,0,0.4,0.1,0.6,0.2c0.2,0.1,0.2,0.3,0.2,0.5c0,0.2-0.1,0.4-0.2,0.5C43.7,69.4,43.5,69.4,43.3,69.4z"/>
	<path d="M51,73.9h-4.2c0,0.5,0.2,0.9,0.5,1.2c0.3,0.3,0.8,0.4,1.4,0.4c0.7,0,1.3-0.2,1.8-0.5v1c-0.6,0.3-1.3,0.5-2.2,0.5
		c-0.9,0-1.6-0.3-2.1-0.8c-0.5-0.5-0.8-1.3-0.8-2.2c0-0.9,0.3-1.6,0.9-2.2c0.6-0.6,1.3-0.8,2.1-0.8c0.8,0,1.5,0.3,2,0.8
		c0.5,0.5,0.7,1.2,0.7,2.1V73.9z M49.7,72.9c0-0.5-0.1-0.8-0.4-1.1c-0.2-0.3-0.6-0.4-1-0.4c-0.4,0-0.7,0.1-1,0.4
		c-0.3,0.3-0.5,0.6-0.5,1.1H49.7z"/>
	<path d="M55.6,76.3c-0.3,0.1-0.6,0.2-1.1,0.2c-1.2,0-1.8-0.5-1.8-1.6v-3.2h-1v-1h1v-1.3l1.4-0.4v1.7h1.5v1h-1.5v2.9
		c0,0.3,0.1,0.6,0.2,0.7c0.1,0.1,0.4,0.2,0.7,0.2c0.2,0,0.4-0.1,0.6-0.2V76.3z"/>
	<path d="M61.6,76.4h-1.4v-0.9h0c-0.4,0.7-1.1,1-1.9,1c-0.6,0-1.1-0.2-1.4-0.5c-0.3-0.3-0.5-0.7-0.5-1.2c0-1.1,0.7-1.7,2-1.9
		l1.8-0.2c0-0.8-0.4-1.2-1.3-1.2c-0.7,0-1.4,0.2-2,0.7V71c0.7-0.4,1.4-0.5,2.3-0.5c1.6,0,2.3,0.7,2.3,2.1V76.4z M60.2,73.6l-1.3,0.2
		c-0.4,0-0.7,0.1-0.9,0.3c-0.2,0.1-0.3,0.4-0.3,0.7c0,0.2,0.1,0.4,0.3,0.6c0.2,0.2,0.4,0.2,0.8,0.2c0.4,0,0.8-0.1,1.1-0.4
		c0.3-0.3,0.4-0.6,0.4-1V73.6z"/>
	<path d="M72.3,76.4h-1.4v-1h0c-0.5,0.7-1.1,1.1-2.1,1.1c-0.8,0-1.4-0.3-1.8-0.8c-0.5-0.5-0.7-1.2-0.7-2.1c0-0.9,0.3-1.7,0.8-2.3
		c0.5-0.6,1.2-0.9,2-0.9c0.8,0,1.4,0.3,1.8,0.9h0v-3.5h1.4V76.4z M70.9,73.7V73c0-0.4-0.1-0.8-0.4-1c-0.3-0.3-0.7-0.4-1.1-0.4
		c-0.5,0-0.9,0.2-1.2,0.5c-0.3,0.4-0.4,0.9-0.4,1.5c0,0.6,0.1,1,0.4,1.4c0.3,0.3,0.7,0.5,1.2,0.5c0.5,0,0.9-0.2,1.2-0.5
		C70.8,74.7,70.9,74.2,70.9,73.7z"/>
	<path d="M79.4,73.9h-4.2c0,0.5,0.2,0.9,0.5,1.2c0.3,0.3,0.8,0.4,1.4,0.4c0.7,0,1.3-0.2,1.8-0.5v1c-0.6,0.3-1.3,0.5-2.2,0.5
		c-0.9,0-1.6-0.3-2.1-0.8c-0.5-0.5-0.8-1.3-0.8-2.2c0-0.9,0.3-1.6,0.9-2.2c0.6-0.6,1.3-0.8,2.1-0.8c0.8,0,1.5,0.3,2,0.8
		c0.5,0.5,0.7,1.2,0.7,2.1V73.9z M78,72.9c0-0.5-0.1-0.8-0.4-1.1c-0.2-0.3-0.6-0.4-1-0.4c-0.4,0-0.7,0.1-1,0.4
		c-0.3,0.3-0.5,0.6-0.5,1.1H78z"/>
	<path d="M85.5,75.5L85.5,75.5l0,3.5h-1.4v-8.4h1.4v1h0c0.5-0.8,1.2-1.1,2.1-1.1c0.8,0,1.4,0.3,1.8,0.8c0.4,0.5,0.7,1.2,0.7,2.1
		c0,1-0.2,1.7-0.7,2.3s-1.2,0.9-2,0.9C86.6,76.5,85.9,76.2,85.5,75.5z M85.5,73.3V74c0,0.4,0.1,0.8,0.4,1.1c0.3,0.3,0.7,0.4,1.1,0.4
		c0.5,0,0.9-0.2,1.2-0.6c0.3-0.4,0.4-0.9,0.4-1.6c0-0.6-0.1-1-0.4-1.3c-0.3-0.3-0.6-0.5-1.1-0.5c-0.5,0-0.9,0.2-1.2,0.5
		C85.6,72.4,85.5,72.8,85.5,73.3z"/>
	<path d="M95.1,71.9c-0.2-0.1-0.4-0.2-0.7-0.2c-0.4,0-0.8,0.2-1,0.5c-0.3,0.3-0.4,0.8-0.4,1.4v2.7h-1.4v-5.7h1.4v1.2h0
		c0.1-0.4,0.3-0.7,0.6-0.9c0.3-0.2,0.6-0.3,1-0.3c0.3,0,0.4,0,0.6,0.1V71.9z"/>
	<path d="M101.3,73.9H97c0,0.5,0.2,0.9,0.5,1.2c0.3,0.3,0.8,0.4,1.4,0.4c0.7,0,1.3-0.2,1.8-0.5v1c-0.6,0.3-1.3,0.5-2.2,0.5
		c-0.9,0-1.6-0.3-2.1-0.8c-0.5-0.5-0.8-1.3-0.8-2.2c0-0.9,0.3-1.6,0.9-2.2c0.6-0.6,1.3-0.8,2.1-0.8c0.8,0,1.5,0.3,2,0.8
		c0.5,0.5,0.7,1.2,0.7,2.1V73.9z M99.9,72.9c0-0.5-0.1-0.8-0.4-1.1c-0.2-0.3-0.6-0.4-1-0.4c-0.4,0-0.7,0.1-1,0.4
		c-0.3,0.3-0.5,0.6-0.5,1.1H99.9z"/>
	<path d="M102.2,76.2V75c0.5,0.4,1.1,0.6,1.7,0.6c0.8,0,1.3-0.2,1.3-0.7c0-0.1,0-0.2-0.1-0.3c-0.1-0.1-0.2-0.2-0.3-0.2
		c-0.1-0.1-0.3-0.1-0.4-0.2c-0.2-0.1-0.4-0.1-0.6-0.2c-0.3-0.1-0.5-0.2-0.7-0.3s-0.4-0.2-0.5-0.4c-0.1-0.1-0.2-0.3-0.3-0.5
		c-0.1-0.2-0.1-0.4-0.1-0.6c0-0.3,0.1-0.5,0.2-0.7c0.1-0.2,0.3-0.4,0.6-0.5c0.2-0.1,0.5-0.3,0.8-0.3c0.3-0.1,0.6-0.1,0.9-0.1
		c0.6,0,1.1,0.1,1.5,0.2v1.1c-0.4-0.3-0.9-0.4-1.5-0.4c-0.2,0-0.3,0-0.5,0.1c-0.1,0-0.3,0.1-0.4,0.1c-0.1,0.1-0.2,0.1-0.2,0.2
		c-0.1,0.1-0.1,0.2-0.1,0.3c0,0.1,0,0.2,0.1,0.3c0.1,0.1,0.1,0.2,0.3,0.2c0.1,0.1,0.2,0.1,0.4,0.2c0.2,0.1,0.3,0.1,0.5,0.2
		c0.3,0.1,0.5,0.2,0.7,0.3c0.2,0.1,0.4,0.2,0.5,0.4c0.1,0.1,0.3,0.3,0.3,0.5c0.1,0.2,0.1,0.4,0.1,0.6c0,0.3-0.1,0.5-0.2,0.8
		c-0.1,0.2-0.3,0.4-0.6,0.5c-0.2,0.1-0.5,0.2-0.8,0.3c-0.3,0.1-0.6,0.1-1,0.1C103.3,76.5,102.7,76.4,102.2,76.2z"/>
	<path d="M113.2,73.9h-4.2c0,0.5,0.2,0.9,0.5,1.2c0.3,0.3,0.8,0.4,1.4,0.4c0.7,0,1.3-0.2,1.8-0.5v1c-0.6,0.3-1.3,0.5-2.2,0.5
		c-0.9,0-1.6-0.3-2.1-0.8c-0.5-0.5-0.8-1.3-0.8-2.2c0-0.9,0.3-1.6,0.9-2.2c0.6-0.6,1.3-0.8,2.1-0.8c0.8,0,1.5,0.3,2,0.8
		c0.5,0.5,0.7,1.2,0.7,2.1V73.9z M111.8,72.9c0-0.5-0.1-0.8-0.4-1.1c-0.2-0.3-0.6-0.4-1-0.4c-0.4,0-0.7,0.1-1,0.4s-0.5,0.6-0.5,1.1
		H111.8z"/>
	<path d="M120,76.4h-1.4v-3.2c0-1.1-0.4-1.6-1.2-1.6c-0.4,0-0.8,0.1-1.1,0.4c-0.3,0.3-0.4,0.7-0.4,1.1v3.3h-1.4v-5.7h1.4v1h0
		c0.5-0.7,1.1-1.1,2-1.1c0.7,0,1.2,0.2,1.5,0.6c0.4,0.4,0.5,1,0.5,1.8V76.4z"/>
	<path d="M125,76.3c-0.3,0.1-0.6,0.2-1.1,0.2c-1.2,0-1.8-0.5-1.8-1.6v-3.2h-1v-1h1v-1.3l1.4-0.4v1.7h1.5v1h-1.5v2.9
		c0,0.3,0.1,0.6,0.2,0.7c0.1,0.1,0.4,0.2,0.7,0.2c0.2,0,0.4-0.1,0.6-0.2V76.3z"/>
	<path d="M130.9,76.4h-1.4v-0.9h0c-0.4,0.7-1.1,1-1.9,1c-0.6,0-1.1-0.2-1.4-0.5c-0.3-0.3-0.5-0.7-0.5-1.2c0-1.1,0.7-1.7,2-1.9
		l1.8-0.2c0-0.8-0.4-1.2-1.3-1.2c-0.7,0-1.4,0.2-2,0.7V71c0.7-0.4,1.4-0.5,2.3-0.5c1.6,0,2.3,0.7,2.3,2.1V76.4z M129.6,73.6
		l-1.3,0.2c-0.4,0-0.7,0.1-0.9,0.3c-0.2,0.1-0.3,0.4-0.3,0.7c0,0.2,0.1,0.4,0.3,0.6c0.2,0.2,0.4,0.2,0.8,0.2c0.4,0,0.8-0.1,1.1-0.4
		c0.3-0.3,0.4-0.6,0.4-1V73.6z"/>
	<path d="M137.1,76.1c-0.5,0.3-1.1,0.4-1.8,0.4c-0.9,0-1.7-0.3-2.2-0.8c-0.6-0.5-0.8-1.2-0.8-2.1c0-0.9,0.3-1.7,0.9-2.3
		s1.4-0.9,2.4-0.9c0.6,0,1.1,0.1,1.5,0.3V72c-0.4-0.3-0.9-0.4-1.4-0.4c-0.6,0-1.1,0.2-1.5,0.6c-0.4,0.4-0.6,0.9-0.6,1.5
		c0,0.6,0.2,1.1,0.5,1.4c0.4,0.3,0.8,0.5,1.4,0.5c0.5,0,1-0.2,1.4-0.5V76.1z"/>
	<path d="M139.2,69.4c-0.2,0-0.4-0.1-0.6-0.2c-0.2-0.1-0.2-0.3-0.2-0.5c0-0.2,0.1-0.4,0.2-0.5c0.2-0.1,0.4-0.2,0.6-0.2
		c0.2,0,0.4,0.1,0.6,0.2c0.2,0.1,0.2,0.3,0.2,0.5c0,0.2-0.1,0.4-0.2,0.5C139.6,69.4,139.4,69.4,139.2,69.4z M139.9,76.4h-1.4v-5.7
		h1.4V76.4z"/>
	<path d="M144.4,76.5c-1,0-1.7-0.3-2.3-0.8c-0.6-0.5-0.9-1.2-0.9-2.1c0-1,0.3-1.7,0.9-2.3c0.6-0.5,1.4-0.8,2.4-0.8
		c1,0,1.7,0.3,2.3,0.8c0.5,0.5,0.8,1.3,0.8,2.2c0,0.9-0.3,1.6-0.9,2.2C146.2,76.2,145.4,76.5,144.4,76.5z M144.5,71.5
		c-0.5,0-1,0.2-1.3,0.5s-0.5,0.8-0.5,1.5c0,0.6,0.2,1.1,0.5,1.4c0.3,0.3,0.8,0.5,1.3,0.5c0.6,0,1-0.2,1.3-0.5
		c0.3-0.3,0.4-0.8,0.4-1.4c0-0.6-0.1-1.1-0.4-1.5C145.5,71.7,145,71.5,144.5,71.5z M146.3,67.7l-1.7,1.8h-1l1.5-1.8H146.3z"/>
	<path d="M154.6,76.4h-1.4v-3.2c0-1.1-0.4-1.6-1.2-1.6c-0.4,0-0.8,0.1-1.1,0.4c-0.3,0.3-0.4,0.7-0.4,1.1v3.3h-1.4v-5.7h1.4v1h0
		c0.5-0.7,1.1-1.1,2-1.1c0.7,0,1.2,0.2,1.5,0.6c0.4,0.4,0.5,1,0.5,1.8V76.4z"/>
	<path d="M165,70.6l-2.4,5.7h-1.5l-2.3-5.7h1.5l1.4,4c0.1,0.3,0.2,0.6,0.2,0.8h0c0-0.3,0.1-0.5,0.2-0.7l1.4-4H165z"/>
	<path d="M166.7,69.4c-0.2,0-0.4-0.1-0.6-0.2c-0.2-0.1-0.2-0.3-0.2-0.5c0-0.2,0.1-0.4,0.2-0.5c0.2-0.1,0.4-0.2,0.6-0.2
		c0.2,0,0.4,0.1,0.6,0.2c0.2,0.1,0.2,0.3,0.2,0.5c0,0.2-0.1,0.4-0.2,0.5C167.1,69.4,166.9,69.4,166.7,69.4z M167.4,76.4H166v-5.7
		h1.4V76.4z"/>
	<path d="M172.8,71.9c-0.2-0.1-0.4-0.2-0.7-0.2c-0.4,0-0.8,0.2-1,0.5c-0.3,0.3-0.4,0.8-0.4,1.4v2.7h-1.4v-5.7h1.4v1.2h0
		c0.1-0.4,0.3-0.7,0.6-0.9c0.3-0.2,0.6-0.3,1-0.3c0.3,0,0.4,0,0.6,0.1V71.9z"/>
	<path d="M177.4,76.3c-0.3,0.1-0.6,0.2-1.1,0.2c-1.2,0-1.8-0.5-1.8-1.6v-3.2h-1v-1h1v-1.3l1.4-0.4v1.7h1.5v1h-1.5v2.9
		c0,0.3,0.1,0.6,0.2,0.7c0.1,0.1,0.4,0.2,0.7,0.2c0.2,0,0.4-0.1,0.6-0.2V76.3z"/>
	<path d="M184,76.4h-1.4v-0.9h0c-0.4,0.7-1,1-1.9,1c-1.5,0-2.2-0.8-2.2-2.4v-3.4h1.4v3.3c0,1,0.4,1.5,1.3,1.5c0.4,0,0.8-0.1,1-0.4
		c0.3-0.3,0.4-0.7,0.4-1.1v-3.3h1.4V76.4z"/>
	<path d="M190.6,76.4h-1.4v-0.9h0c-0.4,0.7-1.1,1-1.9,1c-0.6,0-1.1-0.2-1.4-0.5c-0.3-0.3-0.5-0.7-0.5-1.2c0-1.1,0.7-1.7,2-1.9
		l1.8-0.2c0-0.8-0.4-1.2-1.3-1.2c-0.7,0-1.4,0.2-2,0.7V71c0.7-0.4,1.4-0.5,2.3-0.5c1.6,0,2.3,0.7,2.3,2.1V76.4z M189.2,73.6
		l-1.3,0.2c-0.4,0-0.7,0.1-0.9,0.3c-0.2,0.1-0.3,0.4-0.3,0.7c0,0.2,0.1,0.4,0.3,0.6c0.2,0.2,0.4,0.2,0.8,0.2c0.4,0,0.8-0.1,1.1-0.4
		c0.3-0.3,0.4-0.6,0.4-1V73.6z"/>
	<path d="M193.7,76.4h-1.4v-8.5h1.4V76.4z"/>
</g>
<path class="st0" d="M107.9,26.1H94.7c-3.4,0-5.3,0.5-5.3,3.6l0,32.5h-7.4V29.7c0-3.3,1-5.9,3.1-7.8c2-1.8,4.9-2.8,8.6-2.8h14.1
	L107.9,26.1z"/>
<path class="st2" d="M94.1,28.5h12.7c1.1,0,1.9,0.9,1.9,1.9v20c0,1.1-0.9,1.9-1.9,1.9H94.1c-1.1,0-1.9-0.9-1.9-1.9v-20
	C92.2,29.4,93.1,28.5,94.1,28.5z"/>
<ellipse class="st3" cx="114.9" cy="10.7" rx="4.5" ry="4.3"/>
</svg>
