<?xml version="1.0" encoding="utf-8"?>
<!-- Generator: Adobe Illustrator 24.0.1, SVG Export Plug-In . SVG Version: 6.00 Build 0)  -->
<svg version="1.1" id="Layer_1" xmlns="http://www.w3.org/2000/svg" xmlns:xlink="http://www.w3.org/1999/xlink" x="0px" y="0px"
	 viewBox="0 0 116 48" style="enable-background:new 0 0 116 48;" xml:space="preserve">
<style type="text/css">
	.st0{fill:#008240;}
	.st1{fill:#23204E;}
	.st2{fill:#9D9D9C;}
	.st3{fill-rule:evenodd;clip-rule:evenodd;fill:#A0C21A;}
	.st4{fill-rule:evenodd;clip-rule:evenodd;fill:#23204E;}
</style>
<g>
	<path class="st0" d="M52.6,32.26h8.17c2.1,0,3.28-0.32,3.28-2.26L64.01,9.78h4.6V30c0,2.08-0.64,3.69-1.9,4.83
		c-1.26,1.14-3.04,1.72-5.32,1.72H52.6L52.6,32.26z"/>
	<path class="st1" d="M41.82,36.62l-6.11,0.01V32h-0.11c-1.93,3.07-4.76,4.59-8.48,4.59c-2.75,0-4.9-0.68-6.45-2.04
		c-1.55-1.36-2.33-3.17-2.33-5.42c0-4.82,3.03-7.63,9.1-8.43l8.29-1.07c0-3.64-1.89-5.46-5.67-5.46c-3.33,0-6.33,1.05-9,3.14v-5.07
		c2.94-1.6,6.34-2.39,10.19-2.39c7.05,0,10.59,3.18,10.58,9.53L41.82,36.62L41.82,36.62z M35.73,23.44l-5.86,0.75
		c-1.81,0.22-3.18,0.62-4.1,1.21c-0.92,0.6-1.38,1.63-1.38,3.11c0,1.08,0.43,1.97,1.27,2.66c0.85,0.69,1.98,1.04,3.4,1.04
		c1.93,0,3.53-0.62,4.78-1.86c1.27-1.23,1.9-2.79,1.9-4.68V23.44z"/>
	<g>
		<path class="st1" d="M97.71,25.07H78.59c0.07,2.37,0.87,4.2,2.4,5.49c1.52,1.29,3.62,1.93,6.29,1.93c3,0,5.74-0.82,8.25-2.46v4.69
			c-2.56,1.47-5.94,2.21-10.14,2.21c-4.13,0-7.37-1.17-9.71-3.5c-2.35-2.33-3.52-5.61-3.52-9.84c0-3.99,1.29-7.25,3.88-9.76
			c2.58-2.51,5.79-3.77,9.63-3.77c3.84,0,6.8,1.13,8.9,3.38c2.1,2.26,3.15,5.39,3.15,9.4V25.07z M91.57,20.95
			c-0.02-2.09-0.56-3.71-1.62-4.88c-1.06-1.16-2.52-1.74-4.38-1.74c-1.83,0-3.37,0.61-4.64,1.83c-1.27,1.22-2.05,2.82-2.34,4.79
			H91.57z"/>
	</g>
	<path class="st1" d="M0.92,31.01h5.5c0.72,0,1.27-0.26,1.65-0.77c0.38-0.51,0.58-1.23,0.58-2.16L8.63,15.7
		c0-1.34-0.54-1.95-2.2-1.97l-5.5,0.02l0-3.92h7.72v-7.9h5.63v7.89l3.35-0.01l0,3.89l-1.38,0c-1.55,0-2,0.84-2,1.94l0.02,12.44
		c0,2.69-0.64,4.77-1.9,6.25c-1.26,1.48-3.04,2.22-5.32,2.22H0.92V31.01z"/>
	<path class="st1" d="M115.21,30.97h-5.5c-0.72,0-1.27-0.26-1.65-0.77c-0.38-0.51-0.58-1.23-0.58-2.16l0.02-12.39
		c0-1.34,0.54-1.95,2.2-1.97l5.5,0.02l0-3.92h-7.72v-7.9h-5.63v7.89l-3.35-0.01l0,3.89l1.38,0c1.55,0,2,0.84,2,1.94l-0.02,12.44
		c0,2.69,0.64,4.77,1.9,6.25c1.26,1.48,3.04,2.22,5.32,2.22h6.13V30.97z"/>
	<g>
		<path class="st2" d="M4.88,45.42H1.9v-4.99h0.89v4.29h2.09V45.42z"/>
		<path class="st2" d="M8.51,45.42H7.67v-0.56H7.65C7.39,45.29,7,45.5,6.48,45.5c-0.38,0-0.67-0.1-0.89-0.29
			c-0.21-0.19-0.32-0.44-0.32-0.76c0-0.67,0.42-1.06,1.25-1.18l1.14-0.15c0-0.51-0.26-0.76-0.78-0.76c-0.46,0-0.87,0.15-1.24,0.44
			v-0.71c0.41-0.22,0.87-0.33,1.4-0.33c0.97,0,1.46,0.44,1.46,1.33V45.42z M7.67,43.67l-0.81,0.1c-0.25,0.03-0.44,0.09-0.57,0.17
			s-0.19,0.23-0.19,0.43c0,0.15,0.06,0.27,0.17,0.37c0.12,0.1,0.27,0.14,0.47,0.14c0.27,0,0.49-0.09,0.66-0.26
			c0.17-0.17,0.26-0.39,0.26-0.65V43.67z"/>
		<path class="st2" d="M13.72,45.38c-0.17,0.08-0.39,0.12-0.67,0.12c-0.75,0-1.12-0.33-1.12-0.99v-2.01h-0.64v-0.63h0.64v-0.82
			l0.87-0.23v1.05h0.92v0.63H12.8v1.78c0,0.21,0.04,0.36,0.12,0.45c0.08,0.09,0.22,0.14,0.41,0.14c0.15,0,0.28-0.04,0.38-0.12V45.38
			z"/>
		<path class="st2" d="M17.42,45.42h-0.85v-0.56h-0.02c-0.27,0.43-0.65,0.64-1.17,0.64c-0.38,0-0.67-0.1-0.89-0.29
			c-0.21-0.19-0.32-0.44-0.32-0.76c0-0.67,0.42-1.06,1.25-1.18l1.14-0.15c0-0.51-0.26-0.76-0.78-0.76c-0.46,0-0.87,0.15-1.24,0.44
			v-0.71c0.41-0.22,0.87-0.33,1.4-0.33c0.97,0,1.46,0.44,1.46,1.33V45.42z M16.58,43.67l-0.81,0.1c-0.25,0.03-0.44,0.09-0.57,0.17
			c-0.13,0.08-0.19,0.23-0.19,0.43c0,0.15,0.06,0.27,0.17,0.37c0.12,0.1,0.27,0.14,0.47,0.14c0.27,0,0.49-0.09,0.66-0.26
			c0.17-0.17,0.26-0.39,0.26-0.65V43.67z"/>
		<path class="st2" d="M20.71,42.63c-0.11-0.08-0.26-0.11-0.45-0.11c-0.26,0-0.47,0.11-0.65,0.32c-0.17,0.22-0.26,0.51-0.26,0.88
			v1.7h-0.87v-3.56h0.87v0.73h0.01c0.09-0.25,0.22-0.45,0.39-0.59c0.18-0.14,0.37-0.21,0.59-0.21c0.16,0,0.28,0.02,0.36,0.07V42.63z
			"/>
		<path class="st2" d="M22.2,45.27c0,0.58-0.13,1.03-0.4,1.35c-0.27,0.32-0.64,0.47-1.14,0.47c-0.18,0-0.36-0.04-0.53-0.11v-0.69
			c0.16,0.1,0.32,0.16,0.46,0.16c0.49,0,0.74-0.4,0.74-1.2v-3.39h0.87V45.27z M21.77,41.11c-0.14,0-0.26-0.04-0.37-0.13
			c-0.1-0.09-0.15-0.19-0.15-0.33s0.05-0.24,0.15-0.33c0.1-0.09,0.22-0.13,0.37-0.13c0.15,0,0.27,0.04,0.37,0.13
			c0.1,0.09,0.15,0.2,0.15,0.33c0,0.13-0.05,0.23-0.15,0.32C22.04,41.07,21.92,41.11,21.77,41.11z"/>
		<path class="st2" d="M26.6,43.86h-2.62c0.01,0.33,0.12,0.58,0.33,0.76c0.21,0.18,0.5,0.27,0.86,0.27c0.41,0,0.79-0.11,1.13-0.34
			v0.65c-0.35,0.2-0.81,0.31-1.39,0.31c-0.57,0-1.01-0.16-1.33-0.49c-0.32-0.32-0.48-0.78-0.48-1.37c0-0.55,0.18-1.01,0.53-1.35
			c0.35-0.35,0.79-0.52,1.32-0.52c0.53,0,0.93,0.16,1.22,0.47c0.29,0.31,0.43,0.75,0.43,1.3V43.86z M25.75,43.29
			c0-0.29-0.08-0.52-0.22-0.68c-0.15-0.16-0.35-0.24-0.6-0.24c-0.25,0-0.46,0.08-0.64,0.25c-0.17,0.17-0.28,0.39-0.32,0.66H25.75z"
			/>
		<path class="st2" d="M29.45,45.38c-0.17,0.08-0.39,0.12-0.67,0.12c-0.75,0-1.12-0.33-1.12-0.99v-2.01h-0.64v-0.63h0.64v-0.82
			l0.87-0.23v1.05h0.92v0.63h-0.92v1.78c0,0.21,0.04,0.36,0.12,0.45c0.08,0.09,0.22,0.14,0.41,0.14c0.15,0,0.28-0.04,0.38-0.12
			V45.38z"/>
		<path class="st2" d="M33.16,45.42h-0.85v-0.56H32.3c-0.27,0.43-0.65,0.64-1.17,0.64c-0.38,0-0.67-0.1-0.89-0.29
			c-0.21-0.19-0.32-0.44-0.32-0.76c0-0.67,0.42-1.06,1.25-1.18l1.14-0.15c0-0.51-0.26-0.76-0.78-0.76c-0.46,0-0.87,0.15-1.24,0.44
			v-0.71c0.41-0.22,0.87-0.33,1.4-0.33c0.97,0,1.46,0.44,1.46,1.33V45.42z M32.32,43.67l-0.81,0.1c-0.25,0.03-0.44,0.09-0.57,0.17
			c-0.13,0.08-0.19,0.23-0.19,0.43c0,0.15,0.06,0.27,0.17,0.37c0.12,0.1,0.27,0.14,0.47,0.14c0.27,0,0.49-0.09,0.66-0.26
			c0.17-0.17,0.26-0.39,0.26-0.65V43.67z"/>
		<path class="st2" d="M39.83,45.42h-0.87v-0.61h-0.01c-0.28,0.46-0.71,0.69-1.3,0.69c-0.47,0-0.85-0.16-1.14-0.48
			s-0.43-0.75-0.43-1.3c0-0.59,0.16-1.06,0.47-1.42c0.31-0.35,0.73-0.53,1.26-0.53c0.52,0,0.9,0.19,1.13,0.58h0.01v-2.21h0.87V45.42
			z M38.97,43.79v-0.47c0-0.25-0.09-0.47-0.27-0.64c-0.18-0.18-0.4-0.26-0.68-0.26c-0.33,0-0.58,0.11-0.77,0.34
			c-0.19,0.23-0.28,0.54-0.28,0.94c0,0.36,0.09,0.65,0.27,0.86c0.18,0.21,0.42,0.32,0.72,0.32c0.3,0,0.54-0.1,0.72-0.3
			C38.88,44.36,38.97,44.1,38.97,43.79z"/>
		<path class="st2" d="M44.23,43.86H41.6c0.01,0.33,0.12,0.58,0.33,0.76c0.21,0.18,0.5,0.27,0.86,0.27c0.41,0,0.79-0.11,1.13-0.34
			v0.65c-0.35,0.2-0.81,0.31-1.39,0.31c-0.57,0-1.01-0.16-1.33-0.49c-0.32-0.32-0.48-0.78-0.48-1.37c0-0.55,0.18-1.01,0.53-1.35
			c0.35-0.35,0.79-0.52,1.32-0.52c0.53,0,0.93,0.16,1.22,0.47c0.29,0.31,0.43,0.75,0.43,1.3V43.86z M43.38,43.29
			c0-0.29-0.08-0.52-0.22-0.68c-0.15-0.16-0.35-0.24-0.6-0.24c-0.25,0-0.46,0.08-0.64,0.25c-0.17,0.17-0.28,0.39-0.32,0.66H43.38z"
			/>
		<path class="st2" d="M48.06,44.9h-0.01v2.16h-0.87v-5.2h0.87v0.63h0.01c0.3-0.47,0.73-0.71,1.31-0.71c0.49,0,0.87,0.16,1.14,0.48
			c0.27,0.32,0.41,0.74,0.41,1.28c0,0.59-0.15,1.07-0.46,1.43c-0.31,0.36-0.73,0.54-1.26,0.54C48.7,45.49,48.32,45.29,48.06,44.9z
			 M48.03,43.49v0.44c0,0.26,0.09,0.48,0.27,0.66c0.18,0.18,0.41,0.27,0.68,0.27c0.32,0,0.58-0.12,0.76-0.35
			c0.18-0.23,0.28-0.56,0.28-0.98c0-0.35-0.09-0.62-0.26-0.82c-0.17-0.2-0.4-0.3-0.7-0.3c-0.31,0-0.56,0.1-0.75,0.31
			C48.13,42.93,48.03,43.18,48.03,43.49z"/>
		<path class="st2" d="M54.04,42.63c-0.11-0.08-0.26-0.11-0.45-0.11c-0.26,0-0.47,0.11-0.65,0.32c-0.17,0.22-0.26,0.51-0.26,0.88
			v1.7H51.8v-3.56h0.87v0.73h0.01c0.09-0.25,0.22-0.45,0.39-0.59c0.18-0.14,0.37-0.21,0.59-0.21c0.16,0,0.28,0.02,0.36,0.07V42.63z"
			/>
		<path class="st2" d="M57.84,43.86h-2.62c0.01,0.33,0.12,0.58,0.33,0.76c0.21,0.18,0.5,0.27,0.86,0.27c0.41,0,0.79-0.11,1.13-0.34
			v0.65c-0.35,0.2-0.81,0.31-1.39,0.31c-0.57,0-1.01-0.16-1.33-0.49c-0.32-0.32-0.48-0.78-0.48-1.37c0-0.55,0.18-1.01,0.53-1.35
			c0.35-0.35,0.79-0.52,1.32-0.52c0.53,0,0.93,0.16,1.22,0.47c0.29,0.31,0.43,0.75,0.43,1.3V43.86z M57,43.29
			c0-0.29-0.08-0.52-0.22-0.68c-0.15-0.16-0.35-0.24-0.6-0.24c-0.25,0-0.46,0.08-0.64,0.25c-0.17,0.17-0.28,0.39-0.32,0.66H57z"/>
		<path class="st2" d="M58.43,45.31v-0.75c0.33,0.23,0.68,0.34,1.08,0.34c0.53,0,0.79-0.14,0.79-0.43c0-0.08-0.02-0.15-0.07-0.21
			c-0.05-0.06-0.11-0.11-0.18-0.15c-0.08-0.04-0.17-0.08-0.27-0.12c-0.1-0.03-0.22-0.07-0.35-0.12c-0.16-0.06-0.3-0.12-0.43-0.18
			s-0.23-0.14-0.32-0.22c-0.08-0.08-0.15-0.18-0.19-0.28c-0.04-0.1-0.06-0.23-0.06-0.37c0-0.17,0.04-0.32,0.13-0.45
			c0.09-0.13,0.21-0.24,0.35-0.33c0.15-0.09,0.32-0.16,0.5-0.2c0.19-0.05,0.38-0.07,0.58-0.07c0.36,0,0.67,0.05,0.95,0.15v0.71
			c-0.27-0.17-0.58-0.26-0.93-0.26c-0.11,0-0.21,0.01-0.3,0.03s-0.16,0.05-0.23,0.09c-0.06,0.04-0.11,0.08-0.15,0.13
			c-0.04,0.05-0.05,0.11-0.05,0.17c0,0.08,0.02,0.14,0.05,0.19c0.04,0.05,0.09,0.1,0.16,0.14s0.15,0.08,0.25,0.11
			c0.1,0.03,0.21,0.07,0.33,0.11c0.17,0.06,0.31,0.13,0.45,0.19c0.13,0.07,0.24,0.14,0.34,0.22c0.09,0.08,0.16,0.18,0.21,0.29
			c0.05,0.11,0.07,0.24,0.07,0.38c0,0.18-0.05,0.34-0.14,0.47c-0.09,0.13-0.21,0.25-0.36,0.33s-0.32,0.15-0.52,0.2
			c-0.2,0.04-0.4,0.06-0.62,0.06C59.1,45.5,58.74,45.44,58.43,45.31z"/>
		<path class="st2" d="M65.24,43.86h-2.62c0.01,0.33,0.12,0.58,0.33,0.76c0.21,0.18,0.5,0.27,0.86,0.27c0.41,0,0.79-0.11,1.13-0.34
			v0.65c-0.35,0.2-0.81,0.31-1.39,0.31c-0.57,0-1.01-0.16-1.33-0.49c-0.32-0.32-0.48-0.78-0.48-1.37c0-0.55,0.18-1.01,0.53-1.35
			c0.35-0.35,0.79-0.52,1.32-0.52c0.53,0,0.93,0.16,1.22,0.47c0.29,0.31,0.43,0.75,0.43,1.3V43.86z M64.4,43.29
			c0-0.29-0.08-0.52-0.22-0.68c-0.15-0.16-0.35-0.24-0.6-0.24c-0.25,0-0.46,0.08-0.64,0.25c-0.17,0.17-0.28,0.39-0.32,0.66H64.4z"/>
		<path class="st2" d="M69.5,45.42h-0.87v-2.01c0-0.67-0.25-1-0.76-1c-0.27,0-0.48,0.09-0.66,0.28s-0.26,0.42-0.26,0.7v2.03h-0.87
			v-3.56h0.87v0.59h0.02c0.29-0.45,0.7-0.68,1.25-0.68c0.42,0,0.74,0.13,0.96,0.38c0.22,0.25,0.33,0.62,0.33,1.09V45.42z"/>
		<path class="st2" d="M72.59,45.38c-0.17,0.08-0.39,0.12-0.67,0.12c-0.75,0-1.12-0.33-1.12-0.99v-2.01h-0.64v-0.63h0.64v-0.82
			l0.87-0.23v1.05h0.92v0.63h-0.92v1.78c0,0.21,0.04,0.36,0.12,0.45c0.08,0.09,0.22,0.14,0.41,0.14c0.15,0,0.28-0.04,0.38-0.12
			V45.38z"/>
		<path class="st2" d="M76.29,45.42h-0.85v-0.56h-0.02c-0.27,0.43-0.65,0.64-1.17,0.64c-0.38,0-0.67-0.1-0.89-0.29
			c-0.21-0.19-0.32-0.44-0.32-0.76c0-0.67,0.42-1.06,1.25-1.18l1.14-0.15c0-0.51-0.26-0.76-0.78-0.76c-0.46,0-0.87,0.15-1.24,0.44
			v-0.71c0.41-0.22,0.87-0.33,1.4-0.33c0.97,0,1.46,0.44,1.46,1.33V45.42z M75.45,43.67l-0.81,0.1c-0.25,0.03-0.44,0.09-0.57,0.17
			c-0.13,0.08-0.19,0.23-0.19,0.43c0,0.15,0.06,0.27,0.17,0.37c0.12,0.1,0.27,0.14,0.47,0.14c0.27,0,0.48-0.09,0.66-0.26
			c0.17-0.17,0.26-0.39,0.26-0.65V43.67z"/>
		<path class="st2" d="M80.11,45.26c-0.31,0.16-0.67,0.25-1.09,0.25c-0.57,0-1.03-0.17-1.38-0.5c-0.35-0.33-0.53-0.76-0.53-1.29
			c0-0.59,0.19-1.06,0.57-1.41s0.88-0.53,1.51-0.53c0.35,0,0.66,0.06,0.93,0.17v0.75c-0.27-0.19-0.55-0.28-0.86-0.28
			c-0.37,0-0.67,0.12-0.91,0.35C78.12,43,78,43.3,78,43.67c0,0.37,0.11,0.66,0.33,0.87c0.22,0.21,0.52,0.32,0.89,0.32
			c0.31,0,0.61-0.1,0.89-0.31V45.26z"/>
		<path class="st2" d="M81.41,41.11c-0.14,0-0.26-0.04-0.37-0.13c-0.1-0.09-0.15-0.19-0.15-0.33s0.05-0.24,0.15-0.33
			c0.1-0.09,0.22-0.13,0.37-0.13c0.15,0,0.27,0.04,0.38,0.13c0.1,0.09,0.15,0.2,0.15,0.33c0,0.13-0.05,0.23-0.15,0.32
			C81.69,41.07,81.56,41.11,81.41,41.11z M81.84,45.42h-0.87v-3.56h0.87V45.42z"/>
		<path class="st2" d="M84.69,45.5c-0.59,0-1.07-0.17-1.42-0.5c-0.35-0.33-0.53-0.77-0.53-1.32c0-0.6,0.18-1.07,0.55-1.4
			c0.37-0.34,0.87-0.5,1.49-0.5c0.6,0,1.07,0.16,1.4,0.49c0.34,0.33,0.5,0.78,0.5,1.36c0,0.57-0.18,1.02-0.54,1.37
			C85.78,45.33,85.3,45.5,84.69,45.5z M84.73,42.42c-0.34,0-0.61,0.11-0.81,0.33c-0.2,0.22-0.3,0.52-0.3,0.91
			c0,0.37,0.1,0.67,0.3,0.88s0.47,0.32,0.8,0.32c0.34,0,0.61-0.11,0.79-0.32c0.18-0.21,0.28-0.51,0.28-0.9
			c0-0.39-0.09-0.69-0.28-0.91C85.34,42.53,85.07,42.42,84.73,42.42z M85.84,40.04l-1.07,1.14h-0.65l0.91-1.14H85.84z"/>
		<path class="st2" d="M91,45.42h-0.87v-2.01c0-0.67-0.25-1-0.76-1c-0.27,0-0.48,0.09-0.66,0.28s-0.26,0.42-0.26,0.7v2.03h-0.87
			v-3.56h0.87v0.59h0.02c0.29-0.45,0.7-0.68,1.25-0.68c0.42,0,0.74,0.13,0.96,0.38C90.89,42.4,91,42.77,91,43.24V45.42z"/>
		<path class="st2" d="M97.49,41.86L96,45.42h-0.94l-1.42-3.56h0.95l0.85,2.49c0.07,0.18,0.11,0.34,0.12,0.48h0.01
			c0.02-0.17,0.06-0.33,0.11-0.47l0.89-2.5H97.49z"/>
		<path class="st2" d="M98.52,41.11c-0.14,0-0.26-0.04-0.37-0.13C98.05,40.9,98,40.79,98,40.65s0.05-0.24,0.15-0.33
			c0.1-0.09,0.22-0.13,0.37-0.13c0.15,0,0.27,0.04,0.38,0.13c0.1,0.09,0.15,0.2,0.15,0.33c0,0.13-0.05,0.23-0.15,0.32
			C98.79,41.07,98.67,41.11,98.52,41.11z M98.95,45.42h-0.87v-3.56h0.87V45.42z"/>
		<path class="st2" d="M102.32,42.63c-0.11-0.08-0.26-0.11-0.45-0.11c-0.26,0-0.47,0.11-0.65,0.32c-0.17,0.22-0.26,0.51-0.26,0.88
			v1.7h-0.87v-3.56h0.87v0.73h0.01c0.09-0.25,0.22-0.45,0.39-0.59s0.37-0.21,0.59-0.21c0.16,0,0.28,0.02,0.36,0.07V42.63z"/>
		<path class="st2" d="M105.19,45.38c-0.17,0.08-0.39,0.12-0.67,0.12c-0.75,0-1.12-0.33-1.12-0.99v-2.01h-0.64v-0.63h0.64v-0.82
			l0.87-0.23v1.05h0.92v0.63h-0.92v1.78c0,0.21,0.04,0.36,0.12,0.45c0.08,0.09,0.22,0.14,0.41,0.14c0.15,0,0.28-0.04,0.38-0.12
			V45.38z"/>
		<path class="st2" d="M109.29,45.42h-0.87v-0.56h-0.01c-0.25,0.43-0.65,0.65-1.18,0.65c-0.91,0-1.36-0.51-1.36-1.52v-2.13h0.87
			v2.05c0,0.64,0.27,0.96,0.8,0.96c0.26,0,0.47-0.09,0.64-0.26c0.17-0.18,0.25-0.41,0.25-0.69v-2.05h0.87V45.42z"/>
		<path class="st2" d="M113.38,45.42h-0.85v-0.56h-0.02c-0.27,0.43-0.65,0.64-1.17,0.64c-0.38,0-0.67-0.1-0.89-0.29
			c-0.21-0.19-0.32-0.44-0.32-0.76c0-0.67,0.42-1.06,1.25-1.18l1.14-0.15c0-0.51-0.26-0.76-0.78-0.76c-0.46,0-0.87,0.15-1.24,0.44
			v-0.71c0.41-0.22,0.87-0.33,1.4-0.33c0.97,0,1.46,0.44,1.46,1.33V45.42z M112.54,43.67l-0.81,0.1c-0.25,0.03-0.44,0.09-0.57,0.17
			c-0.13,0.08-0.19,0.23-0.19,0.43c0,0.15,0.06,0.27,0.17,0.37c0.12,0.1,0.27,0.14,0.47,0.14c0.27,0,0.48-0.09,0.66-0.26
			c0.17-0.17,0.26-0.39,0.26-0.65V43.67z"/>
		<path class="st2" d="M115.32,45.42h-0.87v-5.27h0.87V45.42z"/>
	</g>
	<path class="st0" d="M61.94,14.14h-8.17c-2.1,0-3.28,0.32-3.28,2.26l0.03,20.22h-4.6V16.4c0-2.08,0.64-3.69,1.9-4.83
		c1.26-1.14,3.04-1.72,5.32-1.72h8.79L61.94,14.14z"/>
	<path class="st3" d="M53.41,15.67h7.89c0.65,0,1.19,0.53,1.19,1.19v12.42c0,0.65-0.53,1.19-1.19,1.19h-7.89
		c-0.65,0-1.19-0.53-1.19-1.19V16.86C52.22,16.2,52.76,15.67,53.41,15.67z"/>
	<ellipse class="st4" cx="66.35" cy="4.58" rx="2.79" ry="2.65"/>
</g>
</svg>
