<?xml version="1.0" encoding="utf-8"?>
<!-- Generator: Adobe Illustrator 24.0.1, SVG Export Plug-In . SVG Version: 6.00 Build 0)  -->
<svg version="1.1" id="Layer_1" xmlns="http://www.w3.org/2000/svg" xmlns:xlink="http://www.w3.org/1999/xlink" x="0px" y="0px"
	 viewBox="0 0 219 27" style="enable-background:new 0 0 219 27;" xml:space="preserve">
<style type="text/css">
	.st0{fill:#008240;}
	.st1{fill:#23204E;}
	.st2{fill:#5D8196;}
	.st3{fill-rule:evenodd;clip-rule:evenodd;fill:#A0C21A;}
	.st4{fill-rule:evenodd;clip-rule:evenodd;fill:#23204E;}
</style>
<g>
	<path class="st0" d="M34.53,20.89h5.21c1.34,0,2.09-0.21,2.09-1.44L41.81,6.54h2.93v12.91c0,1.33-0.41,2.35-1.21,3.08
		c-0.81,0.73-1.94,1.09-3.4,1.09h-5.61L34.53,20.89z"/>
	<path class="st1" d="M27.65,23.67l-3.9,0.01v-2.95h-0.07c-1.23,1.96-3.03,2.93-5.41,2.93c-1.75,0-3.12-0.43-4.12-1.3
		c-0.99-0.87-1.48-2.02-1.48-3.46c0-3.08,1.94-4.87,5.81-5.38l5.29-0.68c0-2.33-1.21-3.48-3.62-3.48c-2.13,0-4.04,0.67-5.74,2.01
		V8.12c1.88-1.02,4.04-1.53,6.5-1.53c4.5,0,6.76,2.03,6.75,6.08L27.65,23.67L27.65,23.67z M23.77,15.26l-3.74,0.48
		c-1.16,0.14-2.03,0.4-2.62,0.77c-0.59,0.38-0.88,1.04-0.88,1.98c0,0.69,0.27,1.26,0.81,1.7c0.54,0.44,1.26,0.66,2.17,0.66
		c1.23,0,2.25-0.4,3.05-1.19c0.81-0.79,1.21-1.78,1.21-2.98V15.26z"/>
	<g>
		<path class="st1" d="M63.31,16.3h-12.2c0.05,1.51,0.56,2.68,1.53,3.5c0.97,0.82,2.31,1.23,4.01,1.23c1.91,0,3.66-0.52,5.26-1.57
			v2.99c-1.63,0.94-3.79,1.41-6.47,1.41c-2.63,0-4.7-0.74-6.2-2.23c-1.5-1.49-2.25-3.58-2.25-6.28c0-2.55,0.82-4.62,2.47-6.23
			c1.65-1.6,3.7-2.41,6.14-2.41c2.45,0,4.34,0.72,5.68,2.16c1.34,1.44,2.01,3.44,2.01,6V16.3z M59.4,13.67
			c-0.01-1.33-0.36-2.37-1.03-3.11c-0.68-0.74-1.61-1.11-2.8-1.11c-1.17,0-2.15,0.39-2.96,1.17c-0.81,0.78-1.31,1.8-1.49,3.05H59.4z
			"/>
	</g>
	<path class="st1" d="M1.55,20.09h3.51c0.46,0,0.81-0.16,1.05-0.49c0.24-0.33,0.37-0.79,0.37-1.38l-0.01-7.9
		c0-0.85-0.34-1.25-1.4-1.26L1.56,9.08l0-2.5h4.93V1.54h3.59v5.03l2.14,0l0,2.48l-0.88,0c-0.99,0-1.28,0.54-1.27,1.24l0.01,7.94
		c0,1.71-0.41,3.05-1.21,3.98c-0.81,0.94-1.94,1.42-3.4,1.42H1.55V20.09z"/>
	<path class="st1" d="M74.48,20.06h-3.51c-0.46,0-0.81-0.16-1.05-0.49c-0.24-0.33-0.37-0.79-0.37-1.38l0.01-7.9
		c0-0.85,0.34-1.25,1.4-1.26l3.51,0.01l0-2.5h-4.93V1.51h-3.59v5.03l-2.14,0l0,2.48l0.88,0c0.99,0,1.28,0.54,1.27,1.24l-0.01,7.94
		c0,1.71,0.41,3.05,1.21,3.98c0.81,0.94,1.94,1.42,3.4,1.42h3.91V20.06z"/>
	<g>
		<path class="st2" d="M85.37,23.94h-3.58v-5.98h1.07v5.14h2.5V23.94z"/>
		<path class="st2" d="M89.72,23.94h-1.01v-0.67h-0.02c-0.32,0.51-0.79,0.77-1.4,0.77c-0.45,0-0.81-0.11-1.07-0.34
			c-0.26-0.23-0.39-0.53-0.39-0.91c0-0.81,0.5-1.28,1.5-1.41l1.37-0.18c0-0.61-0.31-0.91-0.94-0.91c-0.55,0-1.05,0.18-1.49,0.53
			v-0.85c0.49-0.27,1.05-0.4,1.68-0.4c1.17,0,1.75,0.53,1.75,1.59V23.94z M88.72,21.84l-0.97,0.13c-0.3,0.04-0.53,0.1-0.68,0.2
			c-0.15,0.1-0.23,0.27-0.23,0.52c0,0.18,0.07,0.33,0.21,0.44c0.14,0.12,0.33,0.17,0.56,0.17c0.32,0,0.58-0.1,0.79-0.31
			c0.21-0.21,0.31-0.47,0.31-0.78V21.84z"/>
		<path class="st2" d="M95.97,23.89c-0.2,0.09-0.47,0.14-0.81,0.14c-0.89,0-1.34-0.4-1.34-1.19v-2.42h-0.77v-0.76h0.77v-0.99
			l1.04-0.28v1.26h1.1v0.76h-1.1v2.14c0,0.25,0.05,0.43,0.15,0.54c0.1,0.11,0.26,0.16,0.5,0.16c0.18,0,0.33-0.05,0.46-0.14V23.89z"
			/>
		<path class="st2" d="M100.41,23.94H99.4v-0.67h-0.02c-0.32,0.51-0.79,0.77-1.4,0.77c-0.45,0-0.81-0.11-1.07-0.34
			c-0.26-0.23-0.39-0.53-0.39-0.91c0-0.81,0.5-1.28,1.5-1.41l1.37-0.18c0-0.61-0.31-0.91-0.94-0.91c-0.55,0-1.05,0.18-1.49,0.53
			v-0.85c0.49-0.27,1.05-0.4,1.68-0.4c1.17,0,1.75,0.53,1.75,1.59V23.94z M99.4,21.84l-0.97,0.13c-0.3,0.04-0.53,0.1-0.68,0.2
			c-0.15,0.1-0.23,0.27-0.23,0.52c0,0.18,0.07,0.33,0.21,0.44c0.14,0.12,0.33,0.17,0.56,0.17c0.32,0,0.58-0.1,0.79-0.31
			c0.21-0.21,0.31-0.47,0.31-0.78V21.84z"/>
		<path class="st2" d="M104.36,20.59c-0.13-0.09-0.31-0.14-0.55-0.14c-0.31,0-0.57,0.13-0.77,0.39c-0.21,0.26-0.31,0.61-0.31,1.06
			v2.04h-1.05v-4.27h1.05v0.88h0.02c0.1-0.3,0.26-0.53,0.47-0.7s0.45-0.25,0.71-0.25c0.19,0,0.33,0.03,0.43,0.08V20.59z"/>
		<path class="st2" d="M106.14,23.76c0,0.7-0.16,1.24-0.48,1.62c-0.32,0.38-0.77,0.57-1.36,0.57c-0.22,0-0.43-0.04-0.64-0.13v-0.83
			c0.2,0.13,0.38,0.19,0.55,0.19c0.59,0,0.88-0.48,0.88-1.44v-4.06h1.05V23.76z M105.63,18.77c-0.17,0-0.32-0.05-0.44-0.15
			c-0.12-0.1-0.18-0.23-0.18-0.39c0-0.16,0.06-0.29,0.18-0.4c0.12-0.11,0.27-0.16,0.44-0.16c0.17,0,0.32,0.05,0.45,0.16
			c0.12,0.11,0.18,0.24,0.18,0.4c0,0.15-0.06,0.28-0.18,0.39C105.95,18.71,105.8,18.77,105.63,18.77z"/>
		<path class="st2" d="M111.41,22.06h-3.14c0.01,0.39,0.14,0.7,0.39,0.91c0.25,0.21,0.6,0.32,1.03,0.32c0.49,0,0.94-0.14,1.36-0.41
			v0.78c-0.42,0.24-0.98,0.37-1.67,0.37c-0.68,0-1.21-0.19-1.6-0.58c-0.39-0.39-0.58-0.93-0.58-1.64c0-0.66,0.21-1.21,0.64-1.62
			c0.42-0.42,0.95-0.63,1.58-0.63c0.63,0,1.12,0.19,1.46,0.56c0.35,0.38,0.52,0.9,0.52,1.56V22.06z M110.4,21.38
			c0-0.35-0.09-0.62-0.27-0.81c-0.17-0.19-0.41-0.29-0.72-0.29c-0.3,0-0.55,0.1-0.76,0.3c-0.21,0.2-0.34,0.47-0.39,0.8H110.4z"/>
		<path class="st2" d="M114.84,23.89c-0.2,0.09-0.47,0.14-0.81,0.14c-0.9,0-1.34-0.4-1.34-1.19v-2.42h-0.77v-0.76h0.77v-0.99
			l1.04-0.28v1.26h1.1v0.76h-1.1v2.14c0,0.25,0.05,0.43,0.15,0.54c0.1,0.11,0.26,0.16,0.5,0.16c0.18,0,0.33-0.05,0.46-0.14V23.89z"
			/>
		<path class="st2" d="M119.28,23.94h-1.01v-0.67h-0.02c-0.32,0.51-0.79,0.77-1.4,0.77c-0.45,0-0.81-0.11-1.07-0.34
			c-0.26-0.23-0.39-0.53-0.39-0.91c0-0.81,0.5-1.28,1.5-1.41l1.37-0.18c0-0.61-0.31-0.91-0.94-0.91c-0.55,0-1.05,0.18-1.49,0.53
			v-0.85c0.49-0.27,1.05-0.4,1.68-0.4c1.17,0,1.75,0.53,1.75,1.59V23.94z M118.27,21.84l-0.97,0.13c-0.3,0.04-0.53,0.1-0.68,0.2
			c-0.15,0.1-0.23,0.27-0.23,0.52c0,0.18,0.07,0.33,0.21,0.44c0.14,0.12,0.33,0.17,0.56,0.17c0.32,0,0.58-0.1,0.79-0.31
			c0.21-0.21,0.31-0.47,0.31-0.78V21.84z"/>
		<path class="st2" d="M127.29,23.94h-1.05v-0.73h-0.02c-0.34,0.55-0.85,0.83-1.55,0.83c-0.57,0-1.02-0.19-1.36-0.57
			s-0.51-0.9-0.51-1.56c0-0.71,0.19-1.27,0.57-1.7c0.38-0.43,0.88-0.64,1.51-0.64c0.62,0,1.07,0.23,1.36,0.69h0.02v-2.64h1.05V23.94
			z M126.25,21.98v-0.56c0-0.3-0.11-0.56-0.32-0.77c-0.21-0.21-0.48-0.32-0.82-0.32c-0.39,0-0.7,0.14-0.92,0.4
			c-0.22,0.27-0.34,0.64-0.34,1.12c0,0.43,0.11,0.78,0.32,1.03c0.21,0.25,0.5,0.38,0.87,0.38c0.36,0,0.65-0.12,0.87-0.37
			C126.14,22.66,126.25,22.35,126.25,21.98z"/>
		<path class="st2" d="M132.56,22.06h-3.14c0.01,0.39,0.14,0.7,0.39,0.91c0.25,0.21,0.6,0.32,1.03,0.32c0.49,0,0.94-0.14,1.36-0.41
			v0.78c-0.42,0.24-0.98,0.37-1.67,0.37c-0.68,0-1.21-0.19-1.6-0.58c-0.39-0.39-0.58-0.93-0.58-1.64c0-0.66,0.21-1.21,0.64-1.62
			c0.42-0.42,0.95-0.63,1.58-0.63c0.63,0,1.12,0.19,1.46,0.56c0.35,0.38,0.52,0.9,0.52,1.56V22.06z M131.55,21.38
			c0-0.35-0.09-0.62-0.27-0.81c-0.17-0.19-0.41-0.29-0.72-0.29c-0.3,0-0.55,0.1-0.76,0.3c-0.21,0.2-0.34,0.47-0.39,0.8H131.55z"/>
		<path class="st2" d="M137.15,23.31h-0.02v2.6h-1.05v-6.24h1.05v0.75h0.02c0.36-0.57,0.88-0.85,1.57-0.85
			c0.59,0,1.04,0.19,1.37,0.57c0.33,0.38,0.49,0.89,0.49,1.54c0,0.71-0.18,1.28-0.55,1.71c-0.37,0.43-0.87,0.64-1.51,0.64
			C137.92,24.02,137.47,23.78,137.15,23.31z M137.12,21.62v0.53c0,0.31,0.11,0.58,0.32,0.79c0.21,0.22,0.49,0.33,0.82,0.33
			c0.39,0,0.69-0.14,0.91-0.42c0.22-0.28,0.33-0.67,0.33-1.17c0-0.42-0.1-0.75-0.31-0.99c-0.21-0.24-0.48-0.36-0.84-0.36
			c-0.37,0-0.67,0.12-0.9,0.37C137.24,20.95,137.12,21.25,137.12,21.62z"/>
		<path class="st2" d="M144.32,20.59c-0.13-0.09-0.31-0.14-0.55-0.14c-0.31,0-0.57,0.13-0.77,0.39c-0.21,0.26-0.31,0.61-0.31,1.06
			v2.04h-1.05v-4.27h1.05v0.88h0.02c0.1-0.3,0.26-0.53,0.47-0.7s0.45-0.25,0.71-0.25c0.19,0,0.33,0.03,0.43,0.08V20.59z"/>
		<path class="st2" d="M148.88,22.06h-3.14c0.01,0.39,0.14,0.7,0.39,0.91c0.25,0.21,0.6,0.32,1.03,0.32c0.49,0,0.94-0.14,1.36-0.41
			v0.78c-0.42,0.24-0.98,0.37-1.67,0.37c-0.68,0-1.21-0.19-1.6-0.58c-0.39-0.39-0.58-0.93-0.58-1.64c0-0.66,0.21-1.21,0.64-1.62
			c0.42-0.42,0.95-0.63,1.58-0.63c0.63,0,1.12,0.19,1.46,0.56c0.35,0.38,0.52,0.9,0.52,1.56V22.06z M147.88,21.38
			c0-0.35-0.09-0.62-0.27-0.81c-0.17-0.19-0.41-0.29-0.72-0.29c-0.3,0-0.55,0.1-0.76,0.3c-0.21,0.2-0.34,0.47-0.39,0.8H147.88z"/>
		<path class="st2" d="M149.59,23.8v-0.9c0.39,0.28,0.82,0.41,1.29,0.41c0.63,0,0.95-0.17,0.95-0.52c0-0.1-0.03-0.18-0.08-0.25
			c-0.05-0.07-0.13-0.13-0.22-0.18c-0.09-0.05-0.2-0.1-0.32-0.14c-0.12-0.04-0.26-0.09-0.42-0.14c-0.19-0.07-0.36-0.14-0.51-0.22
			S150,21.7,149.9,21.6c-0.1-0.1-0.18-0.21-0.23-0.34c-0.05-0.12-0.08-0.27-0.08-0.44c0-0.21,0.05-0.39,0.16-0.54
			c0.11-0.16,0.25-0.29,0.42-0.4c0.18-0.11,0.38-0.19,0.6-0.24c0.22-0.05,0.46-0.08,0.7-0.08c0.43,0,0.81,0.06,1.14,0.18v0.85
			c-0.32-0.21-0.7-0.31-1.12-0.31c-0.13,0-0.25,0.01-0.36,0.04c-0.11,0.03-0.2,0.06-0.27,0.1c-0.08,0.04-0.13,0.1-0.18,0.16
			c-0.04,0.06-0.06,0.13-0.06,0.21c0,0.09,0.02,0.17,0.06,0.23c0.04,0.06,0.1,0.12,0.19,0.17s0.18,0.09,0.3,0.13
			c0.12,0.04,0.25,0.08,0.4,0.13c0.2,0.07,0.38,0.15,0.53,0.23c0.16,0.08,0.29,0.17,0.4,0.26c0.11,0.1,0.2,0.21,0.26,0.34
			c0.06,0.13,0.09,0.28,0.09,0.46c0,0.22-0.05,0.41-0.16,0.57c-0.11,0.16-0.25,0.29-0.43,0.4c-0.18,0.11-0.39,0.18-0.62,0.24
			c-0.24,0.05-0.48,0.08-0.75,0.08C150.4,24.04,149.96,23.96,149.59,23.8z"/>
		<path class="st2" d="M157.76,22.06h-3.14c0.01,0.39,0.14,0.7,0.39,0.91c0.25,0.21,0.6,0.32,1.03,0.32c0.49,0,0.94-0.14,1.36-0.41
			v0.78c-0.42,0.24-0.98,0.37-1.67,0.37c-0.68,0-1.21-0.19-1.6-0.58c-0.39-0.39-0.58-0.93-0.58-1.64c0-0.66,0.21-1.21,0.64-1.62
			c0.42-0.42,0.95-0.63,1.58-0.63c0.63,0,1.12,0.19,1.46,0.56c0.35,0.38,0.52,0.9,0.52,1.56V22.06z M156.75,21.38
			c0-0.35-0.09-0.62-0.27-0.81c-0.17-0.19-0.41-0.29-0.72-0.29c-0.3,0-0.55,0.1-0.76,0.3c-0.21,0.2-0.34,0.47-0.39,0.8H156.75z"/>
		<path class="st2" d="M162.87,23.94h-1.04v-2.41c0-0.8-0.31-1.2-0.91-1.2c-0.32,0-0.58,0.11-0.79,0.33s-0.31,0.5-0.31,0.84v2.44
			h-1.05v-4.27h1.05v0.71h0.02c0.35-0.54,0.84-0.81,1.5-0.81c0.5,0,0.88,0.15,1.15,0.45c0.26,0.3,0.4,0.74,0.4,1.31V23.94z"/>
		<path class="st2" d="M166.57,23.89c-0.2,0.09-0.47,0.14-0.81,0.14c-0.9,0-1.34-0.4-1.34-1.19v-2.42h-0.77v-0.76h0.77v-0.99
			l1.04-0.28v1.26h1.1v0.76h-1.1v2.14c0,0.25,0.05,0.43,0.15,0.54c0.1,0.11,0.26,0.16,0.5,0.16c0.18,0,0.33-0.05,0.46-0.14V23.89z"
			/>
		<path class="st2" d="M171.01,23.94H170v-0.67h-0.02c-0.32,0.51-0.79,0.77-1.4,0.77c-0.45,0-0.81-0.11-1.07-0.34
			c-0.26-0.23-0.39-0.53-0.39-0.91c0-0.81,0.5-1.28,1.5-1.41l1.37-0.18c0-0.61-0.31-0.91-0.94-0.91c-0.55,0-1.04,0.18-1.49,0.53
			v-0.85c0.49-0.27,1.05-0.4,1.68-0.4c1.17,0,1.75,0.53,1.75,1.59V23.94z M170.01,21.84l-0.97,0.13c-0.3,0.04-0.53,0.1-0.68,0.2
			s-0.23,0.27-0.23,0.52c0,0.18,0.07,0.33,0.21,0.44c0.14,0.12,0.33,0.17,0.56,0.17c0.32,0,0.58-0.1,0.79-0.31
			c0.21-0.21,0.31-0.47,0.31-0.78V21.84z"/>
		<path class="st2" d="M175.59,23.74c-0.37,0.2-0.81,0.3-1.31,0.3c-0.68,0-1.24-0.2-1.66-0.59c-0.42-0.4-0.63-0.91-0.63-1.54
			c0-0.7,0.23-1.27,0.68-1.7c0.45-0.43,1.06-0.64,1.81-0.64c0.42,0,0.79,0.07,1.11,0.2v0.9c-0.32-0.22-0.66-0.33-1.03-0.33
			c-0.44,0-0.8,0.14-1.09,0.42c-0.28,0.28-0.42,0.64-0.42,1.09c0,0.44,0.13,0.79,0.4,1.05c0.27,0.26,0.62,0.38,1.07,0.38
			c0.38,0,0.73-0.12,1.06-0.37V23.74z"/>
		<path class="st2" d="M177.15,18.77c-0.17,0-0.32-0.05-0.44-0.15c-0.12-0.1-0.18-0.23-0.18-0.39c0-0.16,0.06-0.29,0.18-0.4
			c0.12-0.11,0.27-0.16,0.44-0.16c0.18,0,0.33,0.05,0.45,0.16c0.12,0.11,0.18,0.24,0.18,0.4c0,0.15-0.06,0.28-0.18,0.39
			C177.48,18.71,177.33,18.77,177.15,18.77z M177.67,23.94h-1.04v-4.27h1.04V23.94z"/>
		<path class="st2" d="M181.08,24.04c-0.71,0-1.28-0.2-1.7-0.6c-0.43-0.4-0.64-0.93-0.64-1.59c0-0.72,0.22-1.28,0.66-1.68
			c0.44-0.4,1.04-0.61,1.79-0.61c0.72,0,1.28,0.2,1.68,0.59c0.4,0.39,0.6,0.94,0.6,1.63c0,0.68-0.22,1.23-0.65,1.64
			S181.81,24.04,181.08,24.04z M181.13,20.33c-0.41,0-0.73,0.13-0.97,0.4c-0.24,0.26-0.36,0.63-0.36,1.09c0,0.45,0.12,0.8,0.36,1.06
			c0.24,0.26,0.56,0.39,0.96,0.39c0.41,0,0.73-0.13,0.95-0.38c0.22-0.25,0.33-0.61,0.33-1.08c0-0.47-0.11-0.83-0.33-1.09
			C181.86,20.46,181.54,20.33,181.13,20.33z M182.46,17.49l-1.29,1.37h-0.77l1.09-1.37H182.46z"/>
		<path class="st2" d="M188.65,23.94h-1.04v-2.41c0-0.8-0.31-1.2-0.91-1.2c-0.32,0-0.58,0.11-0.79,0.33s-0.31,0.5-0.31,0.84v2.44
			h-1.05v-4.27h1.05v0.71h0.02c0.35-0.54,0.84-0.81,1.5-0.81c0.5,0,0.88,0.15,1.15,0.45c0.26,0.3,0.4,0.74,0.4,1.31V23.94z"/>
		<path class="st2" d="M196.44,19.66l-1.78,4.27h-1.13l-1.7-4.27h1.14l1.02,2.99c0.08,0.22,0.13,0.41,0.14,0.58h0.01
			c0.03-0.21,0.07-0.39,0.13-0.56l1.07-3H196.44z"/>
		<path class="st2" d="M197.67,18.77c-0.17,0-0.32-0.05-0.44-0.15c-0.12-0.1-0.18-0.23-0.18-0.39c0-0.16,0.06-0.29,0.18-0.4
			c0.12-0.11,0.27-0.16,0.44-0.16c0.18,0,0.33,0.05,0.45,0.16c0.12,0.11,0.18,0.24,0.18,0.4c0,0.15-0.06,0.28-0.18,0.39
			C198,18.71,197.85,18.77,197.67,18.77z M198.19,23.94h-1.04v-4.27h1.04V23.94z"/>
		<path class="st2" d="M202.23,20.59c-0.13-0.09-0.31-0.14-0.54-0.14c-0.31,0-0.57,0.13-0.77,0.39c-0.21,0.26-0.31,0.61-0.31,1.06
			v2.04h-1.04v-4.27h1.04v0.88h0.02c0.1-0.3,0.26-0.53,0.47-0.7s0.45-0.25,0.71-0.25c0.19,0,0.33,0.03,0.43,0.08V20.59z"/>
		<path class="st2" d="M205.67,23.89c-0.2,0.09-0.47,0.14-0.81,0.14c-0.89,0-1.34-0.4-1.34-1.19v-2.42h-0.77v-0.76h0.77v-0.99
			l1.04-0.28v1.26h1.1v0.76h-1.1v2.14c0,0.25,0.05,0.43,0.15,0.54c0.1,0.11,0.26,0.16,0.5,0.16c0.18,0,0.33-0.05,0.46-0.14V23.89z"
			/>
		<path class="st2" d="M210.59,23.94h-1.04v-0.68h-0.02c-0.3,0.52-0.77,0.78-1.41,0.78c-1.09,0-1.63-0.61-1.63-1.82v-2.55h1.04v2.45
			c0,0.77,0.32,1.15,0.96,1.15c0.31,0,0.56-0.11,0.76-0.32c0.2-0.21,0.3-0.49,0.3-0.83v-2.46h1.04V23.94z"/>
		<path class="st2" d="M215.49,23.94h-1.01v-0.67h-0.02c-0.32,0.51-0.79,0.77-1.4,0.77c-0.45,0-0.81-0.11-1.07-0.34
			c-0.26-0.23-0.39-0.53-0.39-0.91c0-0.81,0.5-1.28,1.5-1.41l1.37-0.18c0-0.61-0.31-0.91-0.94-0.91c-0.55,0-1.04,0.18-1.49,0.53
			v-0.85c0.49-0.27,1.05-0.4,1.68-0.4c1.17,0,1.75,0.53,1.75,1.59V23.94z M214.48,21.84l-0.97,0.13c-0.3,0.04-0.53,0.1-0.68,0.2
			c-0.15,0.1-0.23,0.27-0.23,0.52c0,0.18,0.07,0.33,0.21,0.44c0.14,0.12,0.33,0.17,0.56,0.17c0.32,0,0.58-0.1,0.79-0.31
			c0.21-0.21,0.31-0.47,0.31-0.78V21.84z"/>
		<path class="st2" d="M217.81,23.94h-1.05v-6.33h1.05V23.94z"/>
	</g>
	<path class="st0" d="M40.49,9.33h-5.21c-1.34,0-2.09,0.21-2.09,1.44l0.02,12.91h-2.93V10.77c0-1.33,0.41-2.35,1.21-3.08
		c0.81-0.73,1.94-1.09,3.4-1.09h5.61L40.49,9.33z"/>
	<path class="st3" d="M35.05,10.3h5.04c0.42,0,0.76,0.34,0.76,0.76v7.93c0,0.42-0.34,0.76-0.76,0.76h-5.04
		c-0.42,0-0.76-0.34-0.76-0.76v-7.93C34.29,10.64,34.63,10.3,35.05,10.3z"/>
	<ellipse class="st4" cx="43.3" cy="3.23" rx="1.78" ry="1.69"/>
</g>
</svg>
